<?xml version="1.0" encoding="utf-8"?>
<!-- Generator: Adobe Illustrator 22.0.1, SVG Export Plug-In . SVG Version: 6.00 Build 0)  -->
<svg version="1.1" id="Layer_1" xmlns="http://www.w3.org/2000/svg" xmlns:xlink="http://www.w3.org/1999/xlink" x="0px" y="0px"
	 viewBox="0 0 157.9 67" style="enable-background:new 0 0 157.9 67;" xml:space="preserve">
<style type="text/css">
	.st0{fill:#231F20;}
	.st1{fill:#DBDCDD;}
	.st2{fill:#B79B5B;}
	.st3{fill:#AD9752;}
	.st4{fill:#A5A8A9;}
	.st5{fill:#ED1C24;}
	.st6{fill:#FFFFFF;}
</style>
<g id="Layer_1_2_">
	<g>
		<path class="st0" d="M155,14.9c-11.6,0-20.4,0-26.3,0c-3,0-5.2,0-6.8,0c-6,0-13-1.9-19.8-3.8c-0.9-0.3-3.2-0.9-3.2-0.9
			C92,8.4,83.2,6,79.2,6c-4,0-12.8,2.4-19.9,4.3c0,0-2.3,0.6-3.2,0.9c-6.8,1.8-13.8,3.8-19.8,3.8c-1.5,0-3.8,0-6.8,0
			c-5.8,0-14.6,0-26.3,0H1.8v1.5v0.9v0.4l0.2,0.3c0,0,0.5,0.9,1.9,3.3c1.3,2.2,3.1,3.4,5.7,3.8l1.6,1.5c1.5,1.4,3.2,2.1,5.2,2.4l0,0
			c0,0,0.8,1.4,2.1,3.5c0.7,1.1,1.5,2.3,3.1,3.2c1.4,0.8,3.2,1.2,5.6,1.2l1.2,1.3c1.4,1.5,2.9,2.2,4.7,2.5c0.2,0.3,1,1.8,2.3,4.1
			c0.9,1.5,1.9,2.9,4.3,3.5L41,50c1.1,1.2,2.6,2.6,5.2,2.6c0.4,0,0.4,0,0.7,0.4c2.1,3.6,6.6,8,15.1,8h34.1c8.6,0,12.9-4.3,15.1-8
			c0.3-0.3,0.3-0.4,0.7-0.4c2.7,0,4.1-1.3,5.2-2.6l1.5-1.5c2.4-0.6,3.4-2,4.3-3.5c1.3-2.3,2.1-3.8,2.3-4.1c1.8-0.3,3.4-1,4.7-2.5
			l1.2-1.3c5-0.1,7.1-1.7,8.6-4.4c1.2-2.1,2.1-3.5,2.1-3.5l0,0c2-0.3,3.7-1,5.2-2.4l1.6-1.5c2.7-0.3,4.4-1.5,5.7-3.8
			c1.4-2.5,1.9-3.3,1.9-3.3l0.2-0.3v-0.4v-0.9v-1.5C156.3,14.9,155,14.9,155,14.9z"/>
		<path class="st1" d="M103.8,48c0,0.9-0.8,1.8-1.8,1.8c-0.9,0-1.8-0.8-1.8-1.8c0-0.9,0.8-1.8,1.8-1.8C103,46.2,103.8,47,103.8,48z
			 M56.2,46.2c-0.9,0-1.8,0.8-1.8,1.8c0,0.9,0.8,1.8,1.8,1.8c0.9,0,1.8-0.8,1.8-1.8C58,47,57.3,46.2,56.2,46.2z M81.1,18.2l-0.5-1.7
			l1.5-1l-0.2-0.6H80l-0.5-1.7h-0.7l-0.5,1.7h-1.8l-0.2,0.6l1.5,1l-0.5,1.7l0.5,0.4l1.5-1l1.5,1L81.1,18.2z M95.3,16l-11.7-0.5v1.3
			l11.7-0.4C95.3,16.4,95.3,16,95.3,16z M74.7,15.5L63,16v0.4l11.7,0.4V15.5z M54.8,32.6c0,2.3-1.9,4.3-5.4,4.3h-5.7v-2.1h0.4
			c0.3,0,0.4-0.2,0.4-0.4v-9.7c0-0.3-0.2-0.5-0.4-0.5h-0.5v-2.1h6c3.2,0,4.7,1.7,4.7,3.8c0,1.9-1.4,2.9-2.6,3.2V29
			C53.6,29.4,54.8,30.5,54.8,32.6z M48.4,27.7h0.9c0.9,0,1.4-0.6,1.4-1.8c0-1-0.4-1.6-1.4-1.6h-0.9V27.7z M50.8,32.3
			c0-1.2-0.6-2.1-1.5-2.1h-0.9v4.1h0.9C50.2,34.4,50.8,33.6,50.8,32.3z M62.7,24c0,0,0.1,0,0.3,0c0.4,0,0.6,0.2,0.6,0.5
			c0,0.3,0,4.8,0,4.8c0,1.2-0.5,1.7-1.5,1.7c-1,0-1.5-0.5-1.5-1.7c0,0,0-4.5,0-4.7c0-0.3,0.2-0.6,0.5-0.6c0.2,0,0.3,0,0.3,0v-2.1
			h-5.4V24h0.4c0.3,0,0.4,0.2,0.4,0.4V29c0,2.8,1.6,4.2,4.9,4.2c3.2,0,4.8-1.5,4.8-4.2v-4.6c0-0.3,0.2-0.5,0.4-0.5h0.3v-2.1h-4.4V24
			z M76.1,31h-2.2c0,0,0-6,0-6.3c0-0.4,0.3-0.8,0.7-0.8c0.3,0,0.6,0,0.6,0v-2.1h-6v2.1h0.4c0.3,0,0.4,0.2,0.4,0.4v6.3
			c0,0.3-0.2,0.4-0.5,0.4h-0.4v2h9.5v-4.2h-2.3L76.1,31z M87.5,31h-2.2v-7h1.3v-2.1h-6V24H81c0.3,0,0.4,0.2,0.4,0.5v6.2
			c0,0.3-0.1,0.4-0.4,0.4h-0.4v2H90V29h-2.3L87.5,31z M99.2,31h-2.5v-2.5h2.6v-2.3h-2.6v-2.1h2.4l0.3,1.3h2.1v-3.4H92V24h0.4
			c0.3,0,0.4,0.2,0.4,0.4v6.3c0,0.3-0.2,0.4-0.4,0.4H92v2h9.7v-3.7h-2.3L99.2,31z M103.4,26.3h2.2l0.3-1.8h1.4v9.9
			c0,0.3-0.1,0.4-0.4,0.4h-0.5v2h5.8v-2h-0.5c-0.3,0-0.4-0.2-0.4-0.4v-9.9h1.4l0.3,1.8h2.2v-4.4h-11.5L103.4,26.3L103.4,26.3z
			 M69.7,47.9L69.7,47.9c1.5-0.3,2.2-1.1,2.2-2.6c0-2-1.5-2.8-4-2.8c-1.4,0-2.7,0.3-3.6,0.6v2.6H66c0.3-0.4,0.7-0.7,1.4-0.7
			c0.8,0,1,0.3,1,0.9c0,0.7-0.4,1.1-1.4,1.1h-0.9v2.1h0.9c0.9,0,1.4,0.3,1.4,1.1s-0.5,1.1-1.2,1.1c-0.8,0-1.2-0.3-1.5-0.8H64v2.5
			c0.9,0.3,1.9,0.6,3.5,0.6c2.9,0,4.6-1.1,4.6-3.2C72.1,49,71.4,48.2,69.7,47.9z M79.8,46.5c-1.1,0-1.7,0.3-2.1,0.7h-0.1v-2.1h2.6
			l0.3,0.6h2.1v-3.1h-7.4v6.6h2c0.3-0.3,0.5-0.5,1.2-0.5s1.1,0.4,1.1,1.3c0,0.9-0.5,1.4-1.3,1.4c-0.8,0-1.2-0.3-1.5-0.9H75V53
			c0.9,0.3,1.9,0.6,3.5,0.6c3,0,4.6-1.4,4.6-3.7C83.1,47.5,81.6,46.5,79.8,46.5z M95.5,48c0,3.6-2.3,5.6-5.1,5.6
			c-2.8,0-5.1-1.9-5.1-5.6c0-3.6,2.4-5.6,5.1-5.6C93.2,42.5,95.5,44.4,95.5,48z M91.8,48.1c0-2.2-0.5-3.2-1.5-3.2
			c-0.9,0-1.5,0.9-1.5,3.2s0.4,3.2,1.5,3.2C91.4,51.3,91.8,50.3,91.8,48.1z M155,16.5c0,0.2,0,0.7,0,0.9c0,0-0.5,0.9-1.9,3.3
			c-1,1.9-2.7,3-5.9,3c0,0-22.4,0-26.9,0v1.8h20.2h5.5c-1.3,1.2-3.1,2.1-5.5,2.1c-3.2,0-16.1,0-20.2,0v0.8h20v0.2
			c0,0-0.7,1.1-1.9,3.2c-1.3,2.1-2.7,3.7-7.5,3.7c-3.8,0-8.9,0-10.6,0v1.8h8.5c-1.1,1.2-2.6,2.1-4.7,2.1c-2.9,0-2.2,0-4,0
			c0,0.3-0.2,0.6-0.3,0.8h4v0.2c0,0-0.8,1.3-2.2,3.9c-0.9,1.6-1.9,3-5.6,3c0,0-3.4,0-4,0c-0.2,0.6-0.3,1.2-0.5,1.8h4.6
			c-1,1.1-2.1,2.1-4.1,2.1c-1.2,0-1.6,0.6-2.1,1.2c-2.5,4.2-6.8,7.2-13.8,7.2H62.1c-6.8,0-11.3-3-13.8-7.2C48,51.6,47.6,51,46.3,51
			c-2.1,0-3.1-0.9-4.1-2.1h4.6c-0.2-0.6-0.4-1.2-0.5-1.8c-0.6,0-4,0-4,0c-3.8,0-4.7-1.4-5.6-3c-1.5-2.6-2.2-3.9-2.2-3.9v-0.2h4
			c-0.2-0.2-0.3-0.5-0.3-0.8c-1.8,0-1.1,0-4,0c-2.1,0-3.6-0.9-4.7-2.1h8.5v-1.8c-1.7,0-6.7,0-10.6,0c-4.8,0-6.2-1.5-7.5-3.7
			c-1.2-2.1-1.9-3.2-1.9-3.2v-0.2h20v-0.8c-4.2,0-16.9,0-20.2,0c-2.4,0-4.2-0.9-5.5-2.1h5.5h20.2v-1.8c-4.4,0-26.9,0-26.9,0
			c-3.2,0-4.8-1.1-5.9-3c-1.4-2.5-1.9-3.3-1.9-3.3c0-0.2,0-0.8,0-0.9c17.4,0,28.5,0,32.9,0c6.9,0,15.2-2.5,22.7-4.5
			c6.9-1.9,16.2-4.4,20.1-4.4c3.8,0,13.2,2.5,20.1,4.4c7.5,2.1,15.8,4.5,22.7,4.5C126.5,16.5,137.5,16.5,155,16.5z M109.9,42.7v-0.3
			c0,0-1.9,0-2.1,0c-6.2,0-5-3.2-13.3-3.2c-1.3,0-8,0-15.4,0s-14.1,0-15.4,0c-8.2,0-7.1,3.2-13.3,3.2c-0.3,0-2.1,0-2.1,0v0.3
			c0,5.6,2.9,14.1,13.5,14.1c1.5,0,33.2,0,34.6,0C107.1,56.8,109.9,48.4,109.9,42.7z M117.9,22.1c0-2.2-0.9-2.7-5-3.8
			c-5.6-1.5-29-8.1-33.6-8.1s-28,6.6-33.6,8.1c-4.3,1.2-5,1.6-5,3.8v15.5c0,1.3,1,2.3,2.3,2.3c0,0,3.3,0,7.7,0s4.5-3.2,13.2-3.2
			c2.1,0,8.6,0,15.6,0c7,0,13.5,0,15.6,0c8.6,0,8.7,3.2,13.2,3.2s7.7,0,7.7,0c1.3,0,2.3-1,2.3-2.3V22.1H117.9z"/>
	</g>
</g>
</svg>
