<?xml version="1.0" encoding="utf-8"?>
<!-- Generator: Adobe Illustrator 22.0.1, SVG Export Plug-In . SVG Version: 6.00 Build 0)  -->
<svg version="1.1" id="Layer_1" xmlns="http://www.w3.org/2000/svg" xmlns:xlink="http://www.w3.org/1999/xlink" x="0px" y="0px"
	 viewBox="0 0 122 68.1" style="enable-background:new 0 0 122 68.1;" xml:space="preserve">
<style type="text/css">
	.st0{fill:#231F20;}
	.st1{fill:#DBDCDD;}
	.st2{fill:#B79B5B;}
	.st3{fill:#AD9752;}
	.st4{fill:#A5A8A9;}
	.st5{fill:#ED1C24;}
	.st6{fill:#FFFFFF;}
</style>
<g>
	<path class="st2" d="M9.7,10.5C16.5,3.7,26,0.1,37.2,0.1h82.1h1.7v1.7c0,5.5-1.3,10.3-3.7,13.8c-2.8,4.1-7.1,6.3-12.3,6.3H89.6l0,0
		l0,0c0,2.6-0.3,7.6-2.5,11.7c-2.6,4.9-7.1,7.4-13.2,7.4c0,0-1.4,0-6.3,0v0.2c-0.7,6.7-4.4,13.5-10.2,18.8c-6.4,5.7-14.6,8.9-23,8.9
		c-9.2,0-17.8-3.6-24.3-10.1C3.6,52.2,0,43.6,0,34.4C0,25.2,3.4,16.7,9.7,10.5z"/>
	<path class="st0" d="M21.9,30.7L21.9,30.7c0-2.3,1.7-4.1,4.1-4.1c1.6,0,2.6,0.7,3.3,1.6l-1.6,1.2c-0.4-0.6-0.9-0.9-1.7-0.9
		c-1.1,0-1.8,0.9-1.8,2l0,0c0,1.2,0.7,2.1,1.8,2.1c0.8,0,1.3-0.4,1.7-0.9l1.6,1.2c-0.7,1-1.7,1.7-3.4,1.7
		C23.7,34.8,21.9,33.1,21.9,30.7z M31.5,26.9h2.2v5.8h3.7v1.9h-5.9V26.9z M41.8,26.8h2.1l3.3,7.8h-2.3l-0.6-1.4h-3l-0.6,1.4h-2.3
		L41.8,26.8z M43.7,31.5l-0.9-2.2L42,31.5H43.7z M48.5,33.4l1.2-1.4c0.7,0.6,1.6,0.9,2.5,0.9c0.6,0,0.9-0.2,0.9-0.6l0,0
		c0-0.3-0.2-0.5-1.3-0.7c-1.7-0.4-2.9-0.9-2.9-2.5l0,0c0-1.4,1.2-2.5,3-2.5c1.3,0,2.3,0.4,3.2,1l-1,1.5c-0.7-0.5-1.5-0.7-2.2-0.7
		c-0.5,0-0.8,0.2-0.8,0.5l0,0c0,0.4,0.2,0.5,1.4,0.7c1.8,0.4,2.9,1,2.9,2.4l0,0c0,1.6-1.2,2.5-3.1,2.5
		C50.7,34.7,49.5,34.3,48.5,33.4z M57.1,33.4l1.2-1.4c0.7,0.6,1.6,0.9,2.5,0.9c0.6,0,0.9-0.2,0.9-0.6l0,0c0-0.3-0.2-0.5-1.3-0.7
		c-1.7-0.4-2.9-0.9-2.9-2.5l0,0c0-1.4,1.2-2.5,3-2.5c1.3,0,2.3,0.4,3.2,1l-1,1.5c-0.7-0.5-1.5-0.7-2.2-0.7c-0.5,0-0.8,0.2-0.8,0.5
		l0,0c0,0.4,0.2,0.5,1.4,0.7c1.8,0.4,2.9,1,2.9,2.4l0,0c0,1.6-1.2,2.5-3.1,2.5C59.4,34.7,58.1,34.3,57.1,33.4z M66.4,26.9h2.2v7.7
		h-2.2V26.9z M71.3,30.7L71.3,30.7c0-2.3,1.7-4.1,4.1-4.1c1.6,0,2.6,0.7,3.3,1.6L77,29.5c-0.4-0.6-0.9-0.9-1.7-0.9
		c-1.1,0-1.8,0.9-1.8,2l0,0c0,1.2,0.7,2.1,1.8,2.1c0.8,0,1.3-0.4,1.7-0.9l1.6,1.2c-0.7,1-1.7,1.7-3.4,1.7
		C73.1,34.8,71.3,33.1,71.3,30.7z M43.3,50.5c0.8,0,1.3-0.8,1.3-2l0,0c0-1.2-0.6-2-1.4-2c-0.8,0-1.3,0.8-1.3,2l0,0
		C41.9,49.6,42.4,50.5,43.3,50.5z M34,50.5c0.8,0,1.3-0.8,1.3-2l0,0c0-1.2-0.6-2-1.4-2c-0.8,0-1.3,0.8-1.3,2l0,0
		C32.7,49.6,33.2,50.5,34,50.5z M1.7,34.4c0,18.1,14.6,32.7,32.7,32.7c17.5,0,30.4-13.8,31.6-26.2c0,0-38.8,0-42.9,0
		c-6.3,0-10.3-4.6-10.3-10.4c0-5.9,4-10.4,10.7-10.4h81.5c10.1,0,14.4-8.7,14.4-18.4H37.2C14.4,1.7,1.7,17.1,1.7,34.4z M39.9,48.4
		c0-2,1.3-3.7,3.4-3.7c2,0,3.3,1.7,3.3,3.7l0,0c0,2-1.3,3.7-3.4,3.7C41.2,52.2,39.9,50.5,39.9,48.4L39.9,48.4z M30.7,48.4
		c0-2,1.3-3.7,3.4-3.7c2,0,3.3,1.7,3.3,3.7l0,0c0,2-1.3,3.7-3.4,3.7S30.7,50.5,30.7,48.4L30.7,48.4z M25.2,48.8
		c-0.4,0-0.8,0.2-1.2,0.4l-1.2-0.7l0.2-3.7h4.9v1.7h-3.3l-0.1,1.1c0.3-0.2,0.7-0.2,1.2-0.2c1.3,0,2.5,0.7,2.5,2.3l0,0
		c0,1.6-1.2,2.6-3,2.6c-1.3,0-2.2-0.4-2.9-1.2l1.2-1.4c0.6,0.5,1.2,0.8,1.8,0.8c0.7,0,1-0.3,1-0.9l0,0
		C26.3,49.1,25.9,48.8,25.2,48.8z M7.4,34.4c0-12.6,6.3-20.6,20.3-20.6c0.1,0,83,0,83,0c-0.8,1.4-2.6,2.9-5.4,2.9
		c-2.2,0-70,0-79.6,0c-12.4,0-17.1,7.9-17.1,17.7c0,14.2,11.6,25.7,25.7,25.7c10.9,0,20.3-6.9,24-16.5h1.3
		C55.9,54,46,61.4,34.3,61.4C19.5,61.3,7.4,49.3,7.4,34.4z"/>
</g>
</svg>
