<svg width="196" height="26" viewBox="0 0 196 26" fill="none" xmlns="http://www.w3.org/2000/svg">
<path d="M62.7072 4.16256H56.7503V4.2266C56.9425 4.5468 57.0706 4.99507 57.0706 5.44335C57.0706 6.14778 56.6222 7.42857 56.4941 8.00493L52.715 18.8916C52.2026 20.3005 52.1386 20.6847 51.2418 22.0296V22.0936H56.1739V22.0296C55.9176 21.5813 55.7895 21.197 55.7895 20.7488C55.7895 20.0443 56.1098 19.0837 56.302 18.5714L56.5582 17.803H61.9386C61.9386 17.803 62.2588 18.7635 62.515 19.3399C62.7072 19.8522 62.7712 20.3645 62.7712 20.6847C62.7712 21.069 62.7072 21.3892 62.515 22.0296V22.0936H69.6889V22.0296C68.9203 21.069 68.5359 19.9803 67.8954 18.1872L62.7072 4.16256ZM57.519 14.8571L59.1843 9.86207L60.9137 14.8571H57.519ZM48.1673 18.1232C48.1673 19.7241 48.2954 21.197 48.8078 22.0296V22.0936H41.7621V22.0296C42.4667 20.8128 42.3386 19.5961 42.3386 18.1872V15.2414V14.5369L41.3778 12.6798L37.983 6.3399C37.5346 5.44335 37.1503 4.86699 36.4458 4.2266V4.16256H42.5948V4.2266L46.2458 11.6552C46.2458 11.6552 47.0784 9.99015 47.2706 9.60591C47.6549 8.83744 48.1033 7.94089 48.2954 7.55665C48.6157 6.9803 48.936 6.14778 48.936 5.50739C48.936 4.86699 48.7438 4.5468 48.5516 4.29064V4.16256H53.4196V4.2266L48.4876 13.9606L48.1033 14.665L48.1673 18.1232ZM83.5882 22.0936H70.9699V22.0296C71.4824 20.8768 71.5464 19.9163 71.5464 18.1872V8.06896C71.5464 5.95566 71.3542 5.12315 70.9699 4.29064V4.2266H77.8235V4.29064C77.3752 5.50739 77.3111 6.21182 77.3111 8.133V18.4433C78.0797 18.5714 78.9765 18.6995 79.9373 18.6995C81.9869 18.6995 83.0758 18.5074 83.8445 18.1872H84.0366L83.5882 22.0936ZM28.119 3.71429C22.5464 3.71429 18.7033 7.17241 18.7033 12.0394C18.7033 19.1478 26.2614 20.1724 28.8876 17.867L28.4392 16.9704C26.1333 17.4187 24.0837 15.6897 24.0837 11.7833C24.0837 8.64532 25.749 6.6601 28.0549 6.6601C30.7451 6.6601 32.4105 9.34975 32.4105 13.2562C32.4105 17.6749 29.8484 21.0049 25.1085 21.0049C19.6641 21.0049 15.5647 16.7143 13.0026 12.4236C15.8209 11.335 17.4863 9.22167 17.4863 6.3399C17.4863 2.62561 14.668 0 9.60784 0H0V0.0640394C0.384314 0.896552 0.576471 2.4335 0.576471 4.5468V18.1872C0.576471 19.9163 0.512418 20.8768 0 22.0296V22.0936H7.1098V22.0296C6.66144 20.9409 6.53333 19.468 6.53333 18.1872C6.53333 16.0739 6.53333 14.4089 6.53333 14.4089C6.59739 14.4089 7.30196 14.4089 7.43007 14.4089C12.3621 21.6453 17.9987 24.6552 24.0196 24.6552C32.7307 24.6552 37.8549 19.1478 37.8549 13.064C37.8549 7.87685 33.9477 3.71429 28.119 3.71429ZM6.59739 11.5271V3.39409H8.58301C10.8889 3.39409 11.8497 4.73892 11.8497 6.91626C11.8497 9.54187 10.3124 11.5911 7.81438 11.5911C7.43007 11.5271 6.72549 11.5271 6.59739 11.5271ZM126.055 4.2266C125.671 5.05911 125.478 5.95566 125.478 8.00493V19.1478C125.542 20.3005 125.607 21.069 126.055 21.9655V22.0296H125.478H124.326H121.892C120.995 21.6453 120.034 20.5566 118.753 19.2118C117.728 18.1231 112.924 12.5517 112.924 12.5517H112.86C112.86 12.5517 112.86 17.803 112.86 17.867C111.451 17.9951 109.786 18.3793 108.505 18.6995V17.5468V7.94089C108.505 5.82759 108.312 4.99507 107.928 4.16256V4.09852H111.515H112.988L121.123 13.9606V8.06896C121.123 5.95566 120.931 5.12315 120.546 4.29064V4.2266H124.326H126.055ZM117.664 22.0936C110.554 22.1576 108.889 26 99.8575 26C95.502 26 91.6588 24.8473 91.6588 24.8473V24.7832C92.1712 23.6305 92.2353 22.734 92.2353 21.0049V4.5468C92.2353 2.4335 92.0431 0.896552 91.6588 0.0640394V0H106.199L106.647 4.03448C105.558 3.58621 104.213 3.45813 102.292 3.45813H98.4484V10.4384H100.306C103.188 10.4384 104.854 10.2463 105.302 10.1182H105.43V14.3448H105.366C104.79 14.1527 102.804 13.9606 100.434 13.9606H98.5124V20.9409C98.5124 20.9409 100.754 21.4532 102.804 21.4532C108.184 21.4532 110.49 19.532 115.807 19.532C115.999 19.532 116.127 19.532 116.255 19.532C117.28 20.7488 118.176 21.7094 118.561 22.0936C118.176 22.0936 118.176 22.0936 117.664 22.0936ZM148.601 8.06896V18.2512C148.601 19.9803 148.665 20.9409 149.178 22.0936V22.1576H142.26V22.0936C142.773 20.9409 142.837 19.9803 142.837 18.2512V8.06896C142.837 5.95566 142.644 5.12315 142.26 4.29064V4.2266H149.178V4.29064C148.793 5.12315 148.601 5.95566 148.601 8.06896ZM134.702 11.9754H135.214C137.776 11.9754 138.609 11.7833 138.993 11.7192H139.122V15.4335H138.993C138.481 15.2414 137.392 15.0493 135.278 15.0493H134.702V17.2266V18.1232C134.702 19.9163 134.766 21.133 135.342 22.0296V22.0936H128.361V22.0296C128.873 20.8768 128.937 19.9163 128.937 18.1872V8.06896C128.937 5.95566 128.745 5.12315 128.361 4.29064V4.2266H140.275L140.723 7.87685H140.659C139.826 7.49261 138.737 7.30049 137.008 7.30049H134.702V10.2463V11.9754ZM164.294 18.3793L163.846 22.0936H155.583H151.548V22.0296C152.06 20.8768 152.124 19.9163 152.124 18.1872V8.06896C152.124 5.95566 151.932 5.12315 151.548 4.29064V4.2266H163.461L163.91 7.87685H163.846C163.013 7.49261 161.924 7.30049 160.195 7.30049H157.889V11.399H158.337C160.899 11.399 161.732 11.2069 162.116 11.1429H162.244V14.8571H162.116C161.604 14.665 160.515 14.4729 158.401 14.4729H157.825V18.6995C158.658 18.8276 159.234 18.8916 160.195 18.8916C162.373 18.8916 163.141 18.7635 164.038 18.3793H164.294ZM196 13.7044C196 19.8522 191.516 24.6552 183.958 24.6552C178.129 24.6552 176.272 22.0936 169.034 22.0936H166.024V22.0296C166.536 20.8768 166.6 19.9163 166.6 18.1872V8.00493C166.6 5.89163 166.408 5.05911 166.024 4.2266V4.16256H172.941V4.2266C172.557 5.05911 172.365 6.40394 172.365 8.06896V18.9557C176.656 18.9557 178.578 20.2365 182.357 20.2365C187.609 20.2365 190.171 17.3547 190.171 13.2562C190.171 9.73399 188.378 7.10837 185.239 7.10837C184.663 7.10837 183.83 7.10837 183.19 7.10837V18.1872C181.268 18.2512 179.026 17.9951 177.425 17.4187V8.00493C177.425 5.89163 177.233 5.05911 176.848 4.2266V4.16256H184.983C191.709 4.16256 196 8.32512 196 13.7044Z" fill="#BCBCBC"/>
</svg>
