<?xml version="1.0" encoding="utf-8"?>
<!-- Generator: Adobe Illustrator 22.0.1, SVG Export Plug-In . SVG Version: 6.00 Build 0)  -->
<svg version="1.1" id="GT_Logo" xmlns="http://www.w3.org/2000/svg" xmlns:xlink="http://www.w3.org/1999/xlink" x="0px" y="0px"
	 viewBox="0 0 190 190" style="enable-background:new 0 0 190 190;" xml:space="preserve">
<style type="text/css">
	.st0{fill:#A5A8A9;}
	.st1{fill:#AD9752;}
</style>
<g>
	<path d="M94.7,10.2c-1.9,0-3.8,0.2-5.6,0.3c-0.9,0.1-1.9,0.2-2.8,0.2c-0.5,0-0.9,0.2-1.4,0c-0.5-0.2-0.7-0.5-0.7-1.1
		c0-0.1,0-0.3,0-0.4c-0.1-1.4-1-3.1-2.5-3.4c-1-0.2-3.6,0.4-4.5,0.6c-3,0.7-5.9,1.3-8.7,2.4c-0.1,0-0.2,0.1-0.3,0.1
		c-0.9,0.4-1.9-0.4-1.7-1.4c0-0.2,0.1-0.3,0.1-0.4c0.3-1-0.4-2-1.5-1.9c-0.2,0-0.4,0.1-0.5,0.2c-0.7,0.3-1.4,0.6-2,1
		c-1.7,0.9-3.3,1.8-4.9,2.8c-3.2,2-6.4,3.9-9.3,6.5c-0.1,0.1-0.2,0.2-0.3,0.3c-0.6,0.7-1.9,0.4-2-0.6c-0.1-0.8-0.2-1.6-0.2-2.5
		c-0.1-1.1-1.6-1.6-2.3-0.7c-2.4,2.7-4.8,5.3-7.1,8c-1.9,2.1-3.6,4.3-5,6.8c-0.1,0.2-0.3,0.5-0.4,0.7c-0.4,0.7-1.5,0.8-1.9,0.1
		c-0.1-0.1-0.2-0.2-0.3-0.3c-1.6-2-4.4-1.4-5.2,1c-0.8,2.1-1.5,4.1-2.2,6.2c-1.4,3.7-2.7,7.4-3.1,11.5c-0.1,0.9-1,1.3-1.8,0.9
		c-1.3-0.7-3.1-0.6-4.3,0.3c-1.5,1.1-1.7,2.3-1.7,4c-0.1,2.2-0.3,4.3-0.4,6.5c-0.2,2.9-0.2,5.8,0.2,8.7c0.1,0.9-0.7,1.6-1.6,1.3
		c-3.4-1.1-6.3,2.2-5,5.5c0.4,1.5,0.7,3,0.9,4.5c0.6,3.2,1.3,6.3,2.6,9.3c0.5,1.1-0.7,2.1-1.7,1.5c-0.1,0-0.2-0.1-0.3-0.1
		c-3.1-1.7-5.9,1.1-4.3,4.2c1.1,2.1,2.9,5.9,4.1,8c1.7,3,3.9,6.8,5.1,8.5c0.4,0.6,0.8,1.1,1.3,1.6c0.6,0.7,0.3,1.7-0.6,2
		c-1.2,0.3-2.2,1.2-2.5,1.7c-0.4,0.7-1,3.2,0.5,5.2c1.6,2.2,4.6,5.8,6.7,7.6c2,1.7,3.9,3.2,5.8,4.5c0.7,0.5,0.7,1.6-0.1,2
		c-0.1,0-0.1,0.1-0.2,0.1c-1.1,0.7-1.7,1.1-1.8,3.2c-0.1,2.2,1.2,3.1,2.7,4.2c1.4,1,2.9,2,4.4,2.9c2.9,1.9,5.9,3.7,9.2,5
		c1,0.4,1.1,1.7,0.2,2.2c-2.7,1.5-2.2,5.3,0.8,6.1c1.7,0.4,3.4,0.9,5,1.3c1.4,0.4,2.3,0.8,2.3,2.5c0,6.5,0,14.7,0,21.2
		c0,1.3,1.1,2.4,2.4,2.4c14.6,0,29.2,0,43.8,0c1.6,0,3.3,0,4.9,0c16.3-0.1,32.6,0.1,48.9,0c1.3,0,2.4-1.1,2.4-2.4
		c0-6.5-0.1-14.9-0.1-21.4c0-1.1,0.7-2.1,1.8-2.3c0.2,0,0.3-0.1,0.5-0.1c1.7-0.4,3.4-0.9,5-1.3c3.3-0.9,3.2-4.8,0.8-6.1
		c-0.9-0.5-0.8-1.8,0.1-2.2c3.1-1.2,5.2-2.4,9.2-5c3.7-2.4,6.1-4,7.2-4.6c1.4-0.9,1.8-3.5-0.7-4.9c-0.4-0.2-0.8-0.5-1.3-0.7
		c-0.1,0-0.1-0.1-0.2-0.1c-0.8-0.4-0.8-1.5-0.1-2c2.8-2,5.9-4.7,7.7-7c0,0,0.1-0.1,0.1-0.1c1.1-1.4,2.7-3.2,3.4-4
		c1.1-1.1,3-3,1.9-5.6c-0.5-1.2-1.5-2.1-2.7-2.4c-0.9-0.2-1.2-1.3-0.6-2c0.5-0.5,0.9-1.1,1.3-1.6c1.2-1.7,3.4-5.6,5-8.6
		c1.4-2.7,2.8-5.4,4.2-8c1.7-3.3-1.4-5.8-4.3-4.2c-0.1,0-0.2,0.1-0.3,0.1c-1,0.6-2.1-0.5-1.7-1.5c1.1-2.6,2-5.6,2.6-9.3
		c0.4-2.2,0.8-4,0.9-4.5c0.7-1.8,0.1-3.2-0.3-3.9c-0.7-1.2-2-1.9-3.4-1.8c-0.5,0-0.9,0.1-1.3,0.2c-0.9,0.3-1.7-0.4-1.6-1.3
		c0.5-3,0.4-6.1,0.2-8.7c-0.2-2.6-0.4-5.5-0.4-6.5c-0.1-4.5-3.4-4.7-4.1-4.7c-0.8,0-1.4,0.2-1.9,0.5c-0.8,0.4-1.7-0.1-1.8-0.9
		c-0.3-3.1-1.4-6.7-3.2-11.4c0,0-1-2.7-2.3-6.3c-0.9-2.5-3.8-2.6-5.2-0.8c-0.1,0.1-0.2,0.2-0.3,0.3c-0.2,0.3-0.5,0.4-0.9,0.4
		c-0.5,0-0.8-0.2-1-0.6c0,0-0.3-0.5-0.4-0.7c-1-1.8-3.3-4.8-5-6.8c-2.4-2.7-4.8-5.3-7.2-8c-0.2-0.3-0.6-0.5-1-0.5
		c-0.7,0-1.2,0.5-1.3,1.2c-0.1,0.8-0.2,1.6-0.2,2.5c-0.1,0.6-0.6,1-1.2,1c-0.4,0-0.6-0.1-0.8-0.4c-0.1-0.1-0.2-0.2-0.3-0.2
		c-3.8-3.5-12.9-8.8-16.5-10.3c-0.8-0.3-2.3,0.3-1.8,1.8c0,0.2,0.1,0.4,0.1,0.4c0,0.1,0,0.2,0,0.3c0,0.7-0.5,1.2-1.2,1.2
		c-0.2,0-0.4,0-0.5-0.1c-0.1,0-0.2-0.1-0.3-0.1c-1.6-0.7-3.6-1.2-5.8-1.7c-3.6-0.8-5.3-1.2-6.2-1.3c-1.8-0.2-2.9,0.8-3.4,2.4
		c-0.1,0.3-0.2,0.7-0.2,1.1c0,0.1,0,0.3,0,0.4c0,0.6-0.5,1.1-1.1,1.2c-0.6,0.1-6.5-0.5-9.5-0.5"/>
	<path class="st0" d="M144.6,87.4c0,27.3-22.2,49.5-49.5,49.5c-27.3,0-49.5-22.2-49.5-49.5c0-27.3,22.2-49.5,49.5-49.5
		C122.4,37.9,144.6,60.1,144.6,87.4z M146.5,87.4c0-28.4-23.1-51.4-51.4-51.4c-28.4,0-51.4,23.1-51.4,51.4
		c0,28.4,23.1,51.4,51.4,51.4C123.4,138.9,146.5,115.8,146.5,87.4z"/>
	<path class="st1" d="M183.9,72.8c0.3-1.1,0.1-1.5,0-1.6c0-0.1-0.2-0.1-0.3-0.1c-1,0-8.7,7.6-10.2,9.6c-0.5,0.6-0.8,1.2-1.2,1.9
		c0,0.4,0.1,0.7,0.1,1.1c0.1,1.5,0.1,3,0.1,4.5c0,2.1-0.1,4.1-0.3,6.1c0.5-0.2,1-0.5,1.6-0.9c4.1-3.1,7-8.2,8.9-15.5
		C183.1,76.1,183.5,74.4,183.9,72.8z"/>
	<path class="st1" d="M167.9,114.2c0,0,0.1,0,0.1,0c7.8-0.9,17.2-19.7,16.8-20.5c0-0.1-0.1-0.1-0.1-0.2c-0.1,0-0.1,0-0.2,0
		c-0.5,0-8.2,4.6-10.7,6.2c-1,0.6-1.9,1.3-2.6,1.9c0,0.3-0.1,0.6-0.1,0.8C170.3,106.4,169.2,110.4,167.9,114.2z"/>
	<path class="st1" d="M144,148c0,0,0.1,0,0.1,0c3,0,6.1-0.7,9.2-1.8c3.1-1.2,13.5-7.3,14.2-8.3c0.1-0.1,0.1-0.3,0-0.4
		c-0.1-0.2-0.5-0.3-1.5-0.3c-1.4,0-4.1,0.2-9.6,0.6c-0.8,0.1-1.6,0.1-2.3,0.2c-0.2,0.2-0.3,0.4-0.5,0.6
		C150.7,142,147.5,145.1,144,148z"/>
	<path class="st1" d="M158.3,132.7c4.3-0.3,10.1-4.1,17.3-11.5c0.7-0.7,1.6-1.8,2.7-3.3c0.7-0.9,0.1-1.5-1-1.3
		c-3.7,0.9-8,2.2-12.1,4c-0.1,0.3-0.2,0.5-0.3,0.8C163,125.3,160.8,129.1,158.3,132.7z"/>
	<path class="st1" d="M176.7,50.4c0-0.3-0.4-0.4-0.5-0.2c-0.7,1.1-1.5,2.1-2.2,3.2c-1.3,1.8-2.9,4.6-3.8,6.2c-1.1,2-1.4,2.9-1.6,4.7
		c0.2,0.6,0.4,1.2,0.6,1.9c0.8,2.8,1.5,5.6,2,8.5c1.3-0.6,3.2-2.3,4-3.5c2.2-3.7,2.7-8.3,2-16.3C177,53.5,176.9,51.9,176.7,50.4z"/>
	<path class="st1" d="M148.3,18.8c-0.3-0.3-0.5-0.2-0.5,0.2c0.1,2,0.1,4,0.2,6.1c0.1,4.6,0.3,6,1.1,7.9c0.6,0.6,1.1,1.1,1.7,1.7
		c1.4,1.4,2.7,2.9,4,4.5c0.5,0.6,1,1.2,1.4,1.8c0,0,0,0,0.1,0c0,0,0,0,0,0c0.2,0,0.3-0.1,0.5-0.2c0.8-0.9,1.3-4.4,1-7
		c-0.5-4.3-2-7-7.5-12.9C149.6,20.1,149,19.4,148.3,18.8z"/>
	<rect x="51.3" y="157.6" class="st1" width="87.9" height="20.6"/>
	<path class="st1" d="M75.2,10.5c-7,1.7-9.8,3.4-11.2,6.9c4.4-1.9,9-3.5,13.7-4.6c0.3-0.1,0.6-0.1,0.9-0.2c1.1-1.3,2.1-2.6,1.8-3.1
		c0-0.1-0.3-0.5-1-0.2C79.1,9.6,77.2,10.1,75.2,10.5z"/>
	<path class="st1" d="M110.2,9.5c0,0,0,0.1,0,0.1c0,0.4,1.1,1.8,2.4,3.3c0.3,0.1,0.6,0.1,0.9,0.2c4.7,1.2,9.3,2.8,13.7,4.8
		c-1-2.8-4.3-5.5-8.5-6.6c-1-0.3-2.3-0.6-3.5-1c-0.8-0.2-1.5-0.4-2-0.6c-0.9-0.3-2.1-0.6-2.6-0.6c-0.1,0-0.2,0-0.3,0.1
		C110.3,9.4,110.3,9.4,110.2,9.5z"/>
	<path class="st1" d="M24.8,35.9c-3.9,10.6-4,14-0.7,19.3c0.2,0.3,0.4,0.6,0.6,1c1.4-3,2.9-5.9,4.6-8.6c0.2-0.4,0.5-0.8,0.7-1.2
		c0-0.4,0-0.8,0-1.2c0-3-0.4-4.8-1.7-8.5c0,0-1.6-4.5-1.7-4.8c-0.1-0.3-0.5-0.3-0.6,0C26.1,32.3,24.8,35.9,24.8,35.9z"/>
	<path class="st0" d="M141.8,181H48.7v-25.7h93.1V181z M47.6,182.1h95.3v-28H47.6V182.1z"/>
	<polygon class="st0" points="149.7,97.3 150.4,87.5 160.3,88.1 160.1,91.2 152.7,90.7 152.3,97.5 	"/>
	<path class="st0" d="M151.7,71.5l4.1,0.9l-3.1,2.8L151.7,71.5z M149.4,70.9l1.5,6l-1.5,1.4l0.8,3.3l8.3-7.8l-1-3.8l-11-2.7l0.8,3.3
		L149.4,70.9z"/>
	<polygon class="st0" points="147.1,53.3 144.8,49.6 146.9,48.3 153.1,58.1 151,59.4 148.7,55.8 142.4,59.8 140.8,57.3 	"/>
	<polygon class="st0" points="126.3,42.5 123.9,40.7 130,32.9 133.7,35.8 133.8,45 133.8,45 138.3,39.3 140.7,41.2 134.5,49 
		130.8,46.1 130.8,36.9 130.7,36.9 	"/>
	<polygon class="st0" points="118,37.7 107.5,34.2 110.6,24.7 121,28.2 120.2,30.4 112.8,27.9 112.3,29.4 119.3,31.8 118.7,33.7 
		111.6,31.4 111.1,32.9 118.7,35.4 	"/>
	<polygon class="st0" points="90.3,33.1 87.3,33.2 87.1,23.2 91.8,23.1 97.7,30.3 97.7,30.3 97.6,23 100.6,23 100.8,32.9 96.1,33 
		90.2,25.9 90.2,25.9 	"/>
	<rect x="75.9" y="25.7" transform="matrix(0.9563 -0.2924 0.2924 0.9563 -5.588 23.9898)" class="st0" width="3" height="9.9"/>
	<polygon class="st0" points="61.2,35.4 57.6,37.7 56.3,35.6 66.2,29.5 67.5,31.6 63.8,33.9 67.7,40.2 65.1,41.8 	"/>
	<polygon class="st0" points="50.1,56 48.2,58.4 40.5,52.1 43.5,48.4 52.7,48.6 52.7,48.6 47.1,44 49.1,41.6 56.7,48 53.7,51.6 
		44.5,51.4 44.5,51.5 	"/>
	<path class="st0" d="M36.2,66.5c0.2-0.7,0.6-1.1,0.9-1.3c0.4-0.1,0.9-0.1,1.5,0.1c0.3,0.1,0.7,0.2,1,0.3c0.7,0.2,1.2,0.5,1.4,0.8
		c0.2,0.3,0.2,0.8,0,1.5c-0.4,1.2-0.8,2.5-1.2,3.7c-0.2,0.7-0.5,1.1-0.9,1.2c-0.3,0.1-0.9,0.1-1.6-0.2c-0.3-0.1-0.7-0.2-1-0.3
		c-0.6-0.2-1.1-0.5-1.3-0.8c-0.2-0.4-0.2-0.9,0-1.6C35.5,68.8,35.9,67.7,36.2,66.5z M43.7,68.3c0.2-0.7,0.4-1.3,0.4-1.8
		c0.1-0.5,0-1-0.1-1.5c-0.1-0.4-0.4-0.8-0.8-1.2c-0.4-0.3-0.9-0.6-1.6-0.8c-0.9-0.3-1.9-0.6-2.8-0.9c-0.7-0.2-1.3-0.3-1.8-0.3
		c-0.5,0-0.9,0.2-1.3,0.5c-0.4,0.3-0.7,0.6-1,1.1c-0.3,0.5-0.5,1-0.8,1.7c-0.5,1.5-1,3.1-1.6,4.6c-0.2,0.7-0.4,1.3-0.4,1.8
		c-0.1,0.5,0,1,0.1,1.5c0.1,0.4,0.4,0.8,0.8,1.2c0.4,0.3,0.9,0.6,1.6,0.8c0.9,0.3,1.9,0.6,2.8,0.9c0.7,0.2,1.3,0.3,1.8,0.3
		c0.5,0,0.9-0.2,1.3-0.5c0.4-0.3,0.7-0.6,1-1.1c0.3-0.5,0.5-1,0.8-1.7C42.6,71.4,43.1,69.9,43.7,68.3z"/>
	<path class="st0" d="M40.1,92c0,0.7,0,1.4-0.1,1.9c-0.1,0.5-0.3,1-0.5,1.4c-0.3,0.4-0.6,0.7-1.1,0.9c-0.5,0.2-1.1,0.3-1.8,0.4
		c-1,0-2,0.1-3,0.1c-0.7,0-1.3-0.1-1.8-0.2c-0.5-0.2-0.9-0.5-1.1-0.8c-0.3-0.4-0.5-0.8-0.6-1.3C30.1,93.7,30,93,30,92.3
		c0-1.2-0.1-2.4-0.1-3.6c0-1.1,0-1.9,0.1-2.6c0.1-0.6,0.3-1.1,0.6-1.5c0.3-0.3,0.6-0.6,1.1-0.7c0.5-0.1,1.1-0.2,1.8-0.2
		c0,1,0.1,2,0.1,3c-0.1,0-0.2,0-0.3,0c-0.3,0-0.6,0.1-0.7,0.4c-0.1,0.2-0.2,0.6-0.2,1.1c0,1.1,0.1,2.2,0.1,3.3
		c0,0.8,0.2,1.3,0.5,1.5c0.3,0.3,0.8,0.4,1.5,0.3c0.4,0,0.7,0,1.1,0c0.8,0,1.3-0.2,1.5-0.4c0.3-0.2,0.4-0.7,0.4-1.4
		c0-1.1-0.1-2.2-0.1-3.3c0-0.4,0-0.7-0.1-0.9c0-0.2-0.1-0.4-0.2-0.5c-0.1-0.1-0.2-0.2-0.4-0.3c-0.2-0.1-0.4-0.1-0.7-0.1
		c0-1-0.1-2-0.1-3c0.3,0,0.6,0,0.9,0c0.5,0,0.9,0,1.2,0.1c0.4,0.1,0.7,0.3,0.9,0.5c0.3,0.3,0.5,0.6,0.7,1.1c0.2,0.5,0.3,1.1,0.3,1.8
		C40,88.7,40.1,90.3,40.1,92z"/>
	<path class="st1" d="M23,137.2c0,0.1,0,0.1,0,0.2c0,0.2,0,0.4,5.5,4c5.4,3.5,7,4.2,12.8,6c1.3,0.4,3,0.6,4.7,0.7
		c-3.5-2.9-6.7-6-9.7-9.5c-0.2-0.2-0.3-0.4-0.5-0.6c-4.5-0.5-9.6-1-11.7-1c-0.8,0-1,0.1-1.1,0.1C23.1,137.1,23,137.1,23,137.2z"/>
	<path class="st1" d="M164.7,32.8c-0.2,0-0.6,0-2,3.3c-1.4,3.4-1.6,4.4-1.6,9c0,1.3,0,2.3,0,3.1c1.6,2.7,3.1,5.5,4.4,8.4
		c0.3-0.1,0.5-0.4,0.9-0.7c1.3-1.5,3-6,3-8.1c0-2.3-2.2-9.5-4.3-14.7C165,32.9,164.9,32.8,164.7,32.8z"/>
	<path class="st1" d="M129.7,11.2C129.7,11.2,129.7,11.3,129.7,11.2c-0.7,0.6,1.6,7.2,2.1,8.3c0.2,0.4,0.4,0.8,0.7,1.2
		c0.5,0.3,0.9,0.5,1.4,0.8c3.2,1.9,6.3,4,9.2,6.3c0.4-1.2,0.3-3.5-0.1-4.9c-0.8-2.6-5.2-7.1-9.3-9.6c0,0-3.4-2.1-3.9-2.1
		C129.8,11.2,129.8,11.2,129.7,11.2z"/>
	<path class="st1" d="M90.3,115.4H67.9c-3.5,0-6.8-0.5-9.8-1.3c6.7,9.3,16.8,16,28.6,18.1C87.9,126.6,89.1,121,90.3,115.4z"/>
	<path class="st0" d="M123.6,79.5l16.2,0c-0.4-2.5-1.1-4.9-1.9-7.2c-6.7,0-13.4,0-20.2,0c-4,18.4-8,36.9-12,55.3c-2.7,0-5.4,0-8.1,0
		c4-18.4,8-36.9,12-55.3c-2.6,0-5.1,0-7.7,0c0.5-2.3,1-4.7,1.5-7c10.4,0,20.8,0,31.3-0.1c-1.4-2.6-3.1-5-5-7.2
		C111,58,92.3,58,73.6,58c-6.7,0-12.3,2-16.9,5c-4,6.3-6.5,13.6-7,21.5c1.7-7.1,9.2-19.2,23.9-19.2c9,0,18.1-0.1,27.1-0.1
		c-0.5,2.3-1,4.7-1.5,7c-8.5,0-17,0.1-25.6,0.1c-11.2,0-17.1,11.3-17.1,15.3c0,6.9,5.1,11,13.6,11c3.1,0,6.1-0.1,9.2-0.1
		c0.7-3.2,1.4-6.3,2.1-9.5c-5.8,0-11.6,0-17.4,0.1c0.5-2.3,1-4.7,1.5-7c8.5,0,17,0,25.5-0.1c-1.7,7.9-3.4,15.8-5.2,23.7
		c-1.4,0-2.7,0-4.1,0c-4.6,0-9.1,0-13.7,0h0c-10,0-16.3-4.6-18.1-13c0.7,6.5,2.8,12.6,6,18c3.5,1.5,7.5,2.3,12.1,2.3
		c7.9,0,15.7,0,23.6,0c2.4-11.1,4.8-22.2,7.2-33.3c0.7,0,1.3,0,2,0c-3.8,17.7-7.6,35.3-11.5,53c1.9,0.2,3.9,0.4,5.8,0.4
		c6.3,0,12.3-1.3,17.8-3.6C116.4,112.7,120,96.1,123.6,79.5z"/>
	<path class="st1" d="M73.6,55.5l53.8-0.1c-8.2-8.3-19.7-13.5-32.3-13.5c-14,0-26.5,6.3-34.9,16.3C64,56.6,68.4,55.5,73.6,55.5z"/>
	<path class="st1" d="M115.7,128c14.7-7.5,24.8-22.8,24.8-40.5c0-1.8-0.1-3.6-0.3-5.4c-4.8,0-9.7,0-14.5,0
		C122.4,97.3,119.1,112.7,115.7,128z"/>
	<path class="st1" d="M42.2,19.1c-1,1.2-2.1,2.3-3.1,3.5c-1.8,2.1-3.8,4.8-4.5,6.1c-1.5,2.8-1.9,6.8-1.1,10.1
		c0.1,0.4,0.4,1.3,0.8,1.9c0,0,0.1-0.1,0.1-0.1c2.1-2.7,4.4-5.2,6.8-7.5c0.4-0.4,0.7-0.7,1.1-1c1.1-2.9,1.5-6.1,1-9.7
		c-0.1-1-0.2-2-0.3-2.9C42.8,18.9,42.5,18.8,42.2,19.1z"/>
	<path class="st1" d="M61.2,11.1c-0.3,0.2-0.6,0.3-0.9,0.5c-0.6,0.3-2.4,1.4-4.1,2.4c-6.3,4-9.6,9.1-8.6,13.3
		c3.2-2.5,6.6-4.8,10.2-6.7c0.3-0.2,0.7-0.4,1-0.5c0.8-1.5,1.5-3.2,2.1-5.4c0.3-1,0.5-2.1,0.8-3.1C61.8,11.1,61.5,10.9,61.2,11.1z"
		/>
	<path class="st1" d="M12.7,118.5c1,1.1,2.6,3,3.6,4.1c2.7,2.9,7.8,7,10.7,8.5c1,0.5,3.2,1.1,4.8,1.5c-2.6-3.7-4.9-7.7-6.8-11.8
		c-0.1-0.2-0.2-0.5-0.3-0.7c-1.9-0.8-5.8-2.2-8.8-3.1c-0.8-0.2-2.3-0.5-3.2-0.7c-0.5-0.1-0.7,0-0.9,0c-0.1,0.1-0.2,0.2-0.2,0.2
		C11.4,117.1,11.7,117.5,12.7,118.5z"/>
	<path class="st1" d="M18.2,54.4c-0.3-0.6-1-1.6-1.4-2.1c-1.3-2-1.6-2.4-2.2-2.3c-0.6,0.1-0.6,0.8-0.6,1.5c0,0.9-0.2,3.9-0.4,6.7
		c-0.6,8.5,1,13.6,5.1,15.9c0.1,0.1,0.2,0.1,0.2,0.1c0.7-3.6,1.6-7.1,2.7-10.5c0.1-0.3,0.2-0.6,0.3-0.9
		C21.1,60.1,19.6,56.8,18.2,54.4z"/>
	<path class="st1" d="M11.9,74.5c-0.6-0.6-1.8-1.6-2.6-2.1c-1.6-1.2-2.3-0.9-2.2,0.1C7.2,73.8,7.7,76,8,77.3c1.7,8.4,4.3,13.2,9,16
		c0.2,0.1,0.6,0.4,1,0.6c-0.1-1.9-0.2-3.8-0.2-5.7c0-1.9,0.1-3.7,0.2-5.6c0-0.3,0.1-0.6,0.1-0.9C16.7,79.7,14.6,77.3,11.9,74.5z"/>
	<path class="st1" d="M8.5,99.1c1.6,3.1,3.8,6.7,4.7,8.1c2.1,2.9,5.5,5.4,8.9,6.7c-1.4-4-2.5-8.2-3.3-12.5c0-0.2-0.1-0.5-0.1-0.7
		c-0.2-0.1-0.4-0.2-0.5-0.4c-1-0.6-3.1-1.8-4.7-2.9c-1.7-1.1-4-2.5-5.3-3.1C7.5,93.9,6.7,93.5,6,93c-0.3-0.2-0.6,0.1-0.4,0.4
		C6.5,95.3,7.5,97.2,8.5,99.1z"/>
	<path class="st1" d="M149.1,155.3c-0.9,0.2-1.8,0.5-3.7,1c0-1,0-2.1,0-3.1c1.2,0.2,1.4,0.2,2.2,0.4c1.2,0.2,2.4,0.4,3.6,0.6
		c0.3,0,0.3,0.5,0,0.6C150.5,155,149.8,155.1,149.1,155.3z"/>
	<path class="st1" d="M41.1,155.3c0.9,0.2,1.8,0.5,3.7,1c0-1,0-2.1,0-3.1c-1.2,0.2-1.4,0.2-2.2,0.4c-1.2,0.2-2.4,0.4-3.6,0.6
		c-0.3,0-0.3,0.5,0,0.6C39.6,155,40.4,155.1,41.1,155.3z"/>
	<g>
		<path d="M59.1,160.9h16.7v3.6h-6.2v10.7h-4.4v-10.7h-6.2V160.9z"/>
		<path d="M76.4,160.9h4.3l3,10.5h0l3.6-10.5h4.1l3.6,10.5h0l3-10.5h4.3l-4.6,14.3h-5l-3.3-9.4h0l-3.3,9.4h-5L76.4,160.9z"/>
		<path d="M104.3,160.9h4.4v14.3h-4.4V160.9z"/>
		<path d="M111.9,160.9h6.8l8.2,10.4h0v-10.4h4.4v14.3h-6.8l-8.2-10.4h0v10.4h-4.4V160.9z"/>
	</g>
	<g>
		<path class="st0" d="M62.4,135.9c0.4-0.7,0.7-1.2,1.1-1.5c0.4-0.4,0.8-0.6,1.2-0.7c0.4-0.1,0.9-0.1,1.5,0.1
			c0.5,0.2,1.2,0.4,1.9,0.8l2.7,1.5c0.6,0.3,1.1,0.7,1.5,1c0.4,0.3,0.6,0.6,0.8,0.9c0.1,0.3,0.2,0.6,0.2,0.9c0,0.3-0.1,0.6-0.3,0.8
			l-0.4,0.7l-2.3-1.2c0.2-0.3,0.2-0.6,0-0.8c-0.1-0.2-0.4-0.5-0.9-0.7l-2.3-1.2c-0.5-0.2-0.8-0.3-1.1-0.3c-0.3,0.1-0.5,0.3-0.7,0.6
			l-0.6,1c0.3-0.1,0.7-0.1,1-0.1c0.3,0,0.8,0.2,1.3,0.5l2.5,1.3c0.6,0.3,1.1,0.7,1.5,1c0.3,0.3,0.6,0.6,0.7,0.9c0.1,0.3,0.1,0.6,0,1
			c-0.1,0.3-0.2,0.7-0.4,1.1l-0.4,0.7c-0.3,0.5-0.6,0.9-0.9,1.2c-0.3,0.2-0.6,0.4-1,0.4c-0.3,0-0.7,0-1.1-0.2
			c-0.4-0.2-0.9-0.4-1.4-0.6l-3.8-2c-0.5-0.3-0.9-0.6-1.3-0.9c-0.3-0.3-0.6-0.7-0.7-1c-0.1-0.4-0.2-0.8-0.1-1.2
			c0.1-0.5,0.3-1,0.6-1.5L62.4,135.9z M66.6,142.8c0.3,0.1,0.5,0.2,0.7,0.3c0.2,0.1,0.3,0.1,0.5,0.1c0.1,0,0.3-0.1,0.4-0.2
			c0.1-0.1,0.2-0.2,0.3-0.4c0.1-0.2,0.2-0.3,0.2-0.5c0-0.1,0-0.3-0.1-0.4c-0.1-0.1-0.2-0.3-0.3-0.4c-0.2-0.1-0.4-0.3-0.6-0.4
			l-2.3-1.2c-0.3-0.1-0.5-0.2-0.7-0.3c-0.2-0.1-0.4-0.1-0.5-0.1c-0.1,0-0.3,0.1-0.4,0.2c-0.1,0.1-0.2,0.2-0.3,0.4
			c-0.1,0.2-0.2,0.3-0.2,0.5c0,0.1,0,0.3,0,0.4c0.1,0.1,0.2,0.3,0.3,0.4c0.1,0.1,0.4,0.3,0.6,0.4L66.6,142.8z"/>
		<path class="st0" d="M88.9,141.8l10.7,0l0,2.1l-8.1,0l0,1.7c0.1-0.1,0.2-0.2,0.3-0.2c0.1-0.1,0.2-0.1,0.4-0.2
			c0.1-0.1,0.3-0.1,0.5-0.1c0.2,0,0.4,0,0.7,0l3.4,0c0.5,0,1,0,1.4,0.1c0.4,0.1,0.7,0.2,1,0.5c0.3,0.2,0.5,0.5,0.6,0.9
			c0.1,0.4,0.2,0.8,0.2,1.4v0.6c0,0.7-0.1,1.3-0.3,1.8c-0.2,0.4-0.5,0.8-0.9,1c-0.4,0.2-0.9,0.4-1.5,0.4c-0.6,0.1-1.3,0.1-2.1,0.1
			l-2.4,0c-0.7,0-1.4,0-1.9-0.1s-1-0.2-1.4-0.3c-0.4-0.2-0.6-0.4-0.8-0.8c-0.2-0.3-0.3-0.8-0.3-1.4v-0.6l2.8,0c0,0.2,0,0.4,0.1,0.5
			c0,0.1,0.1,0.2,0.2,0.3c0.1,0.1,0.3,0.1,0.5,0.2c0.2,0,0.5,0,0.8,0l2.8,0c0.3,0,0.6,0,0.8-0.1c0.2,0,0.4-0.1,0.5-0.2
			c0.1-0.1,0.2-0.2,0.2-0.4c0-0.2,0-0.4,0-0.6c0-0.3,0-0.5-0.1-0.7c-0.1-0.2-0.1-0.3-0.3-0.4c-0.1-0.1-0.3-0.1-0.5-0.2
			c-0.2,0-0.5,0-0.9,0l-3.2,0c-0.2,0-0.4,0.1-0.6,0.2c-0.2,0.1-0.3,0.3-0.3,0.5l-2.6,0L88.9,141.8z"/>
		<path class="st0" d="M116,142c-0.3-0.7-0.5-1.2-0.6-1.7c-0.1-0.5-0.1-1,0.1-1.4c0.2-0.4,0.5-0.8,0.9-1.2c0.4-0.4,1-0.7,1.7-1.1
			l3.1-1.6c0.7-0.4,1.3-0.6,1.9-0.8c0.5-0.1,1-0.2,1.5,0c0.4,0.1,0.8,0.4,1.2,0.7c0.4,0.4,0.7,0.9,1,1.6l1.2,2.4
			c0.3,0.6,0.5,1.1,0.5,1.5c0.1,0.5,0,0.9-0.1,1.2c-0.1,0.4-0.4,0.7-0.7,1c-0.3,0.3-0.8,0.6-1.3,0.9l-4.5,2.3
			c-0.5,0.3-1,0.4-1.4,0.5c-0.4,0.1-0.9,0.1-1.2,0c-0.4-0.1-0.7-0.3-1.1-0.6c-0.3-0.3-0.6-0.8-0.9-1.3L116,142z M119.6,142.6
			c0.1,0.2,0.2,0.4,0.4,0.6c0.1,0.1,0.3,0.2,0.4,0.3c0.2,0.1,0.4,0.1,0.6,0c0.2,0,0.5-0.1,0.8-0.3l2.5-1.3c0.3-0.2,0.6-0.3,0.7-0.5
			c0.2-0.2,0.3-0.3,0.3-0.5c0.1-0.2,0.1-0.4,0-0.5c0-0.2-0.1-0.4-0.2-0.6l-1-1.9c-0.1-0.2-0.2-0.4-0.4-0.6c-0.1-0.1-0.3-0.2-0.4-0.3
			c-0.2-0.1-0.4-0.1-0.6,0c-0.2,0-0.5,0.1-0.8,0.3l-2.5,1.3c-0.3,0.2-0.6,0.3-0.7,0.5c-0.2,0.2-0.3,0.3-0.3,0.5
			c-0.1,0.2-0.1,0.4,0,0.5c0,0.2,0.1,0.4,0.2,0.6L119.6,142.6z"/>
	</g>
	<path class="st0" d="M95,13.3c-41.2,0-74.5,33.4-74.5,74.5c0,27.3,14.7,51.3,36.7,64.2h11.5c-25.2-10.4-43.1-35.3-43.1-64.2
		c0-38.3,31.1-69.4,69.4-69.4c38.3,0,69.4,31.1,69.4,69.4c0,29-17.8,53.8-43.1,64.2h11.5c22-13,36.7-36.9,36.7-64.2
		C169.5,46.7,136.2,13.3,95,13.3z"/>
</g>
</svg>
