<svg width="196" height="58" viewBox="0 0 196 58" fill="none" xmlns="http://www.w3.org/2000/svg">
<path d="M1.287 54V44.9H2.314V48.943H7.566V44.9H8.593V54H7.566V49.905H2.314V54H1.287ZM12.191 45.81V44.705H13.335V45.81H12.191ZM12.256 54V47.279H13.257V54H12.256ZM18.973 54.13C18.4877 54.13 17.9937 54.0433 17.491 53.87C16.997 53.688 16.5637 53.4453 16.191 53.142L16.698 52.427C17.4607 52.999 18.2363 53.285 19.025 53.285C19.4323 53.285 19.766 53.1853 20.026 52.986C20.286 52.7867 20.416 52.5223 20.416 52.193C20.416 51.8897 20.273 51.6557 19.987 51.491C19.7097 51.3263 19.2937 51.166 18.739 51.01C18.401 50.9147 18.1323 50.828 17.933 50.75C17.7337 50.672 17.5083 50.5637 17.257 50.425C17.0057 50.2777 16.8193 50.0957 16.698 49.879C16.5767 49.6537 16.516 49.3893 16.516 49.086C16.516 48.514 16.7283 48.0503 17.153 47.695C17.5863 47.3397 18.1367 47.162 18.804 47.162C19.6707 47.162 20.4767 47.409 21.222 47.903L20.767 48.657C20.0997 48.2237 19.4367 48.007 18.778 48.007C18.388 48.007 18.0717 48.1023 17.829 48.293C17.595 48.475 17.478 48.7133 17.478 49.008C17.478 49.1293 17.5127 49.242 17.582 49.346C17.6513 49.45 17.7293 49.5367 17.816 49.606C17.9027 49.6753 18.037 49.749 18.219 49.827C18.4097 49.905 18.5613 49.9613 18.674 49.996C18.7867 50.0307 18.9643 50.087 19.207 50.165C19.5277 50.2603 19.792 50.3513 20 50.438C20.208 50.5247 20.429 50.6417 20.663 50.789C20.897 50.9363 21.0703 51.1227 21.183 51.348C21.3043 51.5647 21.365 51.8203 21.365 52.115C21.365 52.739 21.1397 53.233 20.689 53.597C20.2383 53.9523 19.6663 54.13 18.973 54.13ZM26.5166 54.117C25.936 54.117 25.4723 53.9653 25.1256 53.662C24.7876 53.35 24.6186 52.869 24.6186 52.219V48.163H23.6826V47.279H24.6186V45.251H25.6196V47.279H27.7516V48.163H25.6196V52.089C25.6196 52.8343 25.9966 53.207 26.7506 53.207C27.08 53.207 27.405 53.129 27.7256 52.973V53.831C27.3616 54.0217 26.9586 54.117 26.5166 54.117ZM36.0801 53.129C35.4041 53.8137 34.5677 54.156 33.5711 54.156C32.5744 54.156 31.7424 53.8137 31.0751 53.129C30.4164 52.4443 30.0871 51.6167 30.0871 50.646C30.0871 49.684 30.4207 48.8607 31.0881 48.176C31.7641 47.4827 32.6004 47.136 33.5971 47.136C34.5937 47.136 35.4257 47.4783 36.0931 48.163C36.7604 48.8477 37.0941 49.6753 37.0941 50.646C37.0941 51.608 36.7561 52.4357 36.0801 53.129ZM33.5971 53.259C34.3164 53.259 34.9057 53.0077 35.3651 52.505C35.8331 52.0023 36.0671 51.3827 36.0671 50.646C36.0671 49.918 35.8244 49.2983 35.3391 48.787C34.8624 48.2757 34.2731 48.02 33.5711 48.02C32.8517 48.02 32.2624 48.2757 31.8031 48.787C31.3437 49.2897 31.1141 49.9093 31.1141 50.646C31.1141 51.374 31.3524 51.9937 31.8291 52.505C32.3057 53.0077 32.8951 53.259 33.5971 53.259ZM40.0774 54V47.279H41.0784V49.034C41.3384 48.4533 41.7067 47.9897 42.1834 47.643C42.66 47.2963 43.206 47.136 43.8214 47.162V48.241H43.7434C42.972 48.241 42.335 48.5097 41.8324 49.047C41.3297 49.5843 41.0784 50.3427 41.0784 51.322V54H40.0774ZM47.5559 56.119C47.0706 56.119 46.5939 56.0063 46.1259 55.781L46.4639 54.988C46.7846 55.1527 47.1356 55.235 47.5169 55.235C47.8203 55.235 48.0759 55.1397 48.2839 54.949C48.4919 54.767 48.6956 54.442 48.8949 53.974L45.8399 47.279H46.9449L49.3889 52.882L51.5469 47.279H52.6129L49.7919 54.221C49.5059 54.9057 49.1896 55.391 48.8429 55.677C48.4963 55.9717 48.0673 56.119 47.5559 56.119ZM66.0111 53.129C65.3351 53.8137 64.4987 54.156 63.5021 54.156C62.5054 54.156 61.6734 53.8137 61.0061 53.129C60.3474 52.4443 60.0181 51.6167 60.0181 50.646C60.0181 49.684 60.3517 48.8607 61.0191 48.176C61.6951 47.4827 62.5314 47.136 63.5281 47.136C64.5247 47.136 65.3567 47.4783 66.0241 48.163C66.6914 48.8477 67.0251 49.6753 67.0251 50.646C67.0251 51.608 66.6871 52.4357 66.0111 53.129ZM63.5281 53.259C64.2474 53.259 64.8367 53.0077 65.2961 52.505C65.7641 52.0023 65.9981 51.3827 65.9981 50.646C65.9981 49.918 65.7554 49.2983 65.2701 48.787C64.7934 48.2757 64.2041 48.02 63.5021 48.02C62.7827 48.02 62.1934 48.2757 61.7341 48.787C61.2747 49.2897 61.0451 49.9093 61.0451 50.646C61.0451 51.374 61.2834 51.9937 61.7601 52.505C62.2367 53.0077 62.8261 53.259 63.5281 53.259ZM70.3854 54V48.163H69.4624V47.292H70.3854V46.707C70.3854 45.9443 70.5804 45.368 70.9704 44.978C71.317 44.6313 71.798 44.458 72.4134 44.458C72.838 44.458 73.2064 44.5143 73.5184 44.627V45.498C73.1284 45.3853 72.8034 45.329 72.5434 45.329C71.7634 45.329 71.3734 45.8057 71.3734 46.759V47.305H73.5054V48.163H71.3864V54H70.3854ZM83.2683 54.117C82.6876 54.117 82.2239 53.9653 81.8773 53.662C81.5393 53.35 81.3703 52.869 81.3703 52.219V48.163H80.4343V47.279H81.3703V45.251H82.3713V47.279H84.5033V48.163H82.3713V52.089C82.3713 52.8343 82.7483 53.207 83.5023 53.207C83.8316 53.207 84.1566 53.129 84.4773 52.973V53.831C84.1133 54.0217 83.7103 54.117 83.2683 54.117ZM87.4451 54V44.51H88.4461V48.449C88.9748 47.5737 89.7418 47.136 90.7471 47.136C91.5444 47.136 92.1728 47.383 92.6321 47.877C93.0914 48.3623 93.3211 49.0123 93.3211 49.827V54H92.3201V50.074C92.3201 49.4413 92.1554 48.9473 91.8261 48.592C91.5054 48.228 91.0504 48.046 90.4611 48.046C89.8804 48.046 89.3994 48.241 89.0181 48.631C88.6368 49.021 88.4461 49.528 88.4461 50.152V54H87.4451ZM97.2239 51.049C97.2932 51.7337 97.5489 52.2797 97.9909 52.687C98.4415 53.0857 98.9745 53.285 99.5899 53.285C100.396 53.285 101.102 52.9687 101.709 52.336L102.333 52.895C101.579 53.7357 100.656 54.156 99.5639 54.156C98.6192 54.156 97.8219 53.831 97.1719 53.181C96.5305 52.5223 96.2099 51.6773 96.2099 50.646C96.2099 49.6667 96.5175 48.839 97.1329 48.163C97.7482 47.4783 98.5152 47.136 99.4339 47.136C100.396 47.136 101.159 47.474 101.722 48.15C102.285 48.826 102.567 49.6753 102.567 50.698C102.567 50.828 102.563 50.945 102.554 51.049H97.2239ZM97.2239 50.243H101.553C101.492 49.593 101.276 49.0557 100.903 48.631C100.539 48.1977 100.041 47.981 99.4079 47.981C98.8359 47.981 98.3462 48.1933 97.9389 48.618C97.5315 49.0427 97.2932 49.5843 97.2239 50.243ZM110.648 54V44.51H111.649V54H110.648ZM115.74 51.049C115.809 51.7337 116.065 52.2797 116.507 52.687C116.957 53.0857 117.49 53.285 118.106 53.285C118.912 53.285 119.618 52.9687 120.225 52.336L120.849 52.895C120.095 53.7357 119.172 54.156 118.08 54.156C117.135 54.156 116.338 53.831 115.688 53.181C115.046 52.5223 114.726 51.6773 114.726 50.646C114.726 49.6667 115.033 48.839 115.649 48.163C116.264 47.4783 117.031 47.136 117.95 47.136C118.912 47.136 119.674 47.474 120.238 48.15C120.801 48.826 121.083 49.6753 121.083 50.698C121.083 50.828 121.078 50.945 121.07 51.049H115.74ZM115.74 50.243H120.069C120.008 49.593 119.791 49.0557 119.419 48.631C119.055 48.1977 118.556 47.981 117.924 47.981C117.352 47.981 116.862 48.1933 116.455 48.618C116.047 49.0427 115.809 49.5843 115.74 50.243ZM126.982 56.106C125.847 56.106 124.828 55.794 123.927 55.17L124.382 54.39C125.171 54.962 126.033 55.248 126.969 55.248C127.723 55.248 128.317 55.04 128.75 54.624C129.192 54.2167 129.413 53.6273 129.413 52.856V52.063C128.702 53.0077 127.823 53.48 126.774 53.48C125.925 53.48 125.184 53.1897 124.551 52.609C123.927 52.0197 123.615 51.2527 123.615 50.308C123.615 49.3633 123.931 48.6007 124.564 48.02C125.197 47.4307 125.933 47.136 126.774 47.136C127.849 47.136 128.724 47.5867 129.4 48.488V47.279H130.401V52.83C130.401 53.844 130.115 54.637 129.543 55.209C128.945 55.807 128.091 56.106 126.982 56.106ZM126.969 52.596C127.628 52.596 128.204 52.3793 128.698 51.946C129.192 51.5127 129.439 50.9623 129.439 50.295C129.439 49.6277 129.192 49.0817 128.698 48.657C128.213 48.2323 127.636 48.02 126.969 48.02C126.31 48.02 125.756 48.2323 125.305 48.657C124.863 49.073 124.642 49.6233 124.642 50.308C124.642 50.9667 124.867 51.5127 125.318 51.946C125.777 52.3793 126.328 52.596 126.969 52.596ZM134.406 51.049C134.475 51.7337 134.731 52.2797 135.173 52.687C135.624 53.0857 136.157 53.285 136.772 53.285C137.578 53.285 138.284 52.9687 138.891 52.336L139.515 52.895C138.761 53.7357 137.838 54.156 136.746 54.156C135.801 54.156 135.004 53.831 134.354 53.181C133.713 52.5223 133.392 51.6773 133.392 50.646C133.392 49.6667 133.7 48.839 134.315 48.163C134.93 47.4783 135.697 47.136 136.616 47.136C137.578 47.136 138.341 47.474 138.904 48.15C139.467 48.826 139.749 49.6753 139.749 50.698C139.749 50.828 139.745 50.945 139.736 51.049H134.406ZM134.406 50.243H138.735C138.674 49.593 138.458 49.0557 138.085 48.631C137.721 48.1977 137.223 47.981 136.59 47.981C136.018 47.981 135.528 48.1933 135.121 48.618C134.714 49.0427 134.475 49.5843 134.406 50.243ZM142.671 54V47.279H143.672V48.449C144.201 47.5737 144.968 47.136 145.973 47.136C146.771 47.136 147.399 47.383 147.858 47.877C148.318 48.3623 148.547 49.0123 148.547 49.827V54H147.546V50.074C147.546 49.4413 147.382 48.9473 147.052 48.592C146.732 48.228 146.277 48.046 145.687 48.046C145.107 48.046 144.626 48.241 144.244 48.631C143.863 49.021 143.672 49.528 143.672 50.152V54H142.671ZM154.673 54.143C153.815 54.143 153.065 53.8267 152.424 53.194C151.783 52.5527 151.462 51.699 151.462 50.633C151.462 49.5843 151.783 48.7393 152.424 48.098C153.065 47.4567 153.815 47.136 154.673 47.136C155.73 47.136 156.588 47.6127 157.247 48.566V44.51H158.248V54H157.247V52.648C156.571 53.6447 155.713 54.143 154.673 54.143ZM154.855 53.246C155.505 53.246 156.073 52.999 156.558 52.505C157.043 52.011 157.286 51.3827 157.286 50.62C157.286 49.8747 157.043 49.2593 156.558 48.774C156.073 48.28 155.505 48.033 154.855 48.033C154.179 48.033 153.616 48.2713 153.165 48.748C152.714 49.216 152.489 49.8487 152.489 50.646C152.489 51.4173 152.719 52.0457 153.178 52.531C153.637 53.0077 154.196 53.246 154.855 53.246Z" fill="white"/>
<path d="M62.7072 4.16256H56.7503V4.2266C56.9425 4.5468 57.0706 4.99507 57.0706 5.44335C57.0706 6.14778 56.6222 7.42857 56.4941 8.00493L52.715 18.8916C52.2026 20.3005 52.1386 20.6847 51.2418 22.0296V22.0936H56.1739V22.0296C55.9176 21.5813 55.7895 21.197 55.7895 20.7488C55.7895 20.0443 56.1098 19.0837 56.302 18.5714L56.5582 17.803H61.9386C61.9386 17.803 62.2588 18.7635 62.515 19.3399C62.7072 19.8522 62.7712 20.3645 62.7712 20.6847C62.7712 21.069 62.7072 21.3892 62.515 22.0296V22.0936H69.6889V22.0296C68.9203 21.069 68.5359 19.9803 67.8954 18.1872L62.7072 4.16256ZM57.519 14.8571L59.1843 9.86207L60.9137 14.8571H57.519ZM48.1673 18.1232C48.1673 19.7241 48.2954 21.197 48.8078 22.0296V22.0936H41.7621V22.0296C42.4667 20.8128 42.3386 19.5961 42.3386 18.1872V15.2414V14.5369L41.3778 12.6798L37.983 6.3399C37.5346 5.44335 37.1503 4.86699 36.4458 4.2266V4.16256H42.5948V4.2266L46.2458 11.6552C46.2458 11.6552 47.0784 9.99015 47.2706 9.60591C47.6549 8.83744 48.1033 7.94089 48.2954 7.55665C48.6157 6.9803 48.936 6.14778 48.936 5.50739C48.936 4.86699 48.7438 4.5468 48.5516 4.29064V4.16256H53.4196V4.2266L48.4876 13.9606L48.1033 14.665L48.1673 18.1232ZM83.5882 22.0936H70.9699V22.0296C71.4824 20.8768 71.5464 19.9163 71.5464 18.1872V8.06896C71.5464 5.95566 71.3542 5.12315 70.9699 4.29064V4.2266H77.8235V4.29064C77.3752 5.50739 77.3111 6.21182 77.3111 8.133V18.4433C78.0797 18.5714 78.9765 18.6995 79.9373 18.6995C81.9869 18.6995 83.0758 18.5074 83.8445 18.1872H84.0366L83.5882 22.0936ZM28.119 3.71429C22.5464 3.71429 18.7033 7.17241 18.7033 12.0394C18.7033 19.1478 26.2614 20.1724 28.8876 17.867L28.4392 16.9704C26.1333 17.4187 24.0837 15.6897 24.0837 11.7833C24.0837 8.64532 25.749 6.6601 28.0549 6.6601C30.7451 6.6601 32.4105 9.34975 32.4105 13.2562C32.4105 17.6749 29.8484 21.0049 25.1085 21.0049C19.6641 21.0049 15.5647 16.7143 13.0026 12.4236C15.8209 11.335 17.4863 9.22167 17.4863 6.3399C17.4863 2.62561 14.668 0 9.60784 0H0V0.0640394C0.384314 0.896552 0.576471 2.4335 0.576471 4.5468V18.1872C0.576471 19.9163 0.512418 20.8768 0 22.0296V22.0936H7.1098V22.0296C6.66144 20.9409 6.53333 19.468 6.53333 18.1872C6.53333 16.0739 6.53333 14.4089 6.53333 14.4089C6.59739 14.4089 7.30196 14.4089 7.43007 14.4089C12.3621 21.6453 17.9987 24.6552 24.0196 24.6552C32.7307 24.6552 37.8549 19.1478 37.8549 13.064C37.8549 7.87685 33.9477 3.71429 28.119 3.71429ZM6.59739 11.5271V3.39409H8.58301C10.8889 3.39409 11.8497 4.73892 11.8497 6.91626C11.8497 9.54187 10.3124 11.5911 7.81438 11.5911C7.43007 11.5271 6.72549 11.5271 6.59739 11.5271ZM126.055 4.2266C125.671 5.05911 125.478 5.95566 125.478 8.00493V19.1478C125.542 20.3005 125.607 21.069 126.055 21.9655V22.0296H125.478H124.326H121.892C120.995 21.6453 120.034 20.5566 118.753 19.2118C117.728 18.1231 112.924 12.5517 112.924 12.5517H112.86C112.86 12.5517 112.86 17.803 112.86 17.867C111.451 17.9951 109.786 18.3793 108.505 18.6995V17.5468V7.94089C108.505 5.82759 108.312 4.99507 107.928 4.16256V4.09852H111.515H112.988L121.123 13.9606V8.06896C121.123 5.95566 120.931 5.12315 120.546 4.29064V4.2266H124.326H126.055ZM117.664 22.0936C110.554 22.1576 108.889 26 99.8575 26C95.502 26 91.6588 24.8473 91.6588 24.8473V24.7832C92.1712 23.6305 92.2353 22.734 92.2353 21.0049V4.5468C92.2353 2.4335 92.0431 0.896552 91.6588 0.0640394V0H106.199L106.647 4.03448C105.558 3.58621 104.213 3.45813 102.292 3.45813H98.4484V10.4384H100.306C103.188 10.4384 104.854 10.2463 105.302 10.1182H105.43V14.3448H105.366C104.79 14.1527 102.804 13.9606 100.434 13.9606H98.5124V20.9409C98.5124 20.9409 100.754 21.4532 102.804 21.4532C108.184 21.4532 110.49 19.532 115.807 19.532C115.999 19.532 116.127 19.532 116.255 19.532C117.28 20.7488 118.176 21.7094 118.561 22.0936C118.176 22.0936 118.176 22.0936 117.664 22.0936ZM148.601 8.06896V18.2512C148.601 19.9803 148.665 20.9409 149.178 22.0936V22.1576H142.26V22.0936C142.773 20.9409 142.837 19.9803 142.837 18.2512V8.06896C142.837 5.95566 142.644 5.12315 142.26 4.29064V4.2266H149.178V4.29064C148.793 5.12315 148.601 5.95566 148.601 8.06896ZM134.702 11.9754H135.214C137.776 11.9754 138.609 11.7833 138.993 11.7192H139.122V15.4335H138.993C138.481 15.2414 137.392 15.0493 135.278 15.0493H134.702V17.2266V18.1232C134.702 19.9163 134.766 21.133 135.342 22.0296V22.0936H128.361V22.0296C128.873 20.8768 128.937 19.9163 128.937 18.1872V8.06896C128.937 5.95566 128.745 5.12315 128.361 4.29064V4.2266H140.275L140.723 7.87685H140.659C139.826 7.49261 138.737 7.30049 137.008 7.30049H134.702V10.2463V11.9754ZM164.294 18.3793L163.846 22.0936H155.583H151.548V22.0296C152.06 20.8768 152.124 19.9163 152.124 18.1872V8.06896C152.124 5.95566 151.932 5.12315 151.548 4.29064V4.2266H163.461L163.91 7.87685H163.846C163.013 7.49261 161.924 7.30049 160.195 7.30049H157.889V11.399H158.337C160.899 11.399 161.732 11.2069 162.116 11.1429H162.244V14.8571H162.116C161.604 14.665 160.515 14.4729 158.401 14.4729H157.825V18.6995C158.658 18.8276 159.234 18.8916 160.195 18.8916C162.373 18.8916 163.141 18.7635 164.038 18.3793H164.294ZM196 13.7044C196 19.8522 191.516 24.6552 183.958 24.6552C178.129 24.6552 176.272 22.0936 169.034 22.0936H166.024V22.0296C166.536 20.8768 166.6 19.9163 166.6 18.1872V8.00493C166.6 5.89163 166.408 5.05911 166.024 4.2266V4.16256H172.941V4.2266C172.557 5.05911 172.365 6.40394 172.365 8.06896V18.9557C176.656 18.9557 178.578 20.2365 182.357 20.2365C187.609 20.2365 190.171 17.3547 190.171 13.2562C190.171 9.73399 188.378 7.10837 185.239 7.10837C184.663 7.10837 183.83 7.10837 183.19 7.10837V18.1872C181.268 18.2512 179.026 17.9951 177.425 17.4187V8.00493C177.425 5.89163 177.233 5.05911 176.848 4.2266V4.16256H184.983C191.709 4.16256 196 8.32512 196 13.7044Z" fill="#BCBCBC"/>
</svg>
