<svg xmlns="http://www.w3.org/2000/svg" viewBox="0 0 553.58 508.27"><defs><style>.cls-1{fill:#77797b;}.cls-2,.cls-7,.cls-8{fill:none;}.cls-2{stroke:#77797b;stroke-linejoin:round;stroke-width:0.91px;}.cls-3{fill:#828282;}.cls-4,.cls-9{fill:#ed1c24;}.cls-5{fill:#fff;}.cls-6{fill:#9e9e9e;}.cls-7{stroke:#7d7d7d;stroke-width:1.13px;}.cls-7,.cls-8,.cls-9{stroke-miterlimit:10;}.cls-8{stroke:#f26649;stroke-width:3px;}.cls-9{stroke:#ed1c24;stroke-width:0.57px;}</style></defs><title>Ресурс 1</title><g id="Слой_2" data-name="Слой 2"><g id="other-2" data-name="other"><path class="cls-1" d="M302.39,506.15c-1.66,1-6.33,3-6.33.33s1-5.33-2-5.67-8,0-8-2,1.69-7-1.33-7c-2.67,0-9.67-4.66-11.34-5.33s-1.66,0-3.33-.33a13.43,13.43,0,0,1-6.33-4c-1.67-2-2.34-.67-5.34-1s-4-5-4.33-6.67-3.67-.33-6-.67-1.67-2.66-2.33-4a16.28,16.28,0,0,0-5.34-5.66c-2.66-1.67-1.33-5.34-1.33-7s.67-2.34,2-4.34.67-4.66.33-7a3.92,3.92,0,0,0-3.66-3.66c-2-.34-2.34,3.66-4.34,5s-3-2-3-4.34-1-3.33-3-3.66-4-3-5.33-5,3-8,5-9.67-1-2.67-4-3.67,0-3.66.33-6-6.33.67-7.33,1.34-1.67,3.33-3,5.33-2.67.33-5-.33-4.33-.34-6.33-.34-4.34-2.33-5.34-4.33-8.33-5-10-5-2,2.67-3,4.33-2.33-2-3-3.66-2.66-2.67-4-3-3.33-3-5-3.34-1-2-.66-4.33-6-1.33-8-1.67-3.67-2.33-5.34-3.66-3.33,1.33-4.66,2.33-3.34,0-5-.67-2.34.67-4,2.67-4.34-2.33-5.67-4-5.67,1.67-7,1.67-6.67-1.67-9.67-3-5,3-7,3.33-3.66-.67-5.66-1.33-3,1-4.67,1-7.33-3.67-7.33-3.67c1.66-1.33-5.67-11-6.67-13s-4.33-14.33-4.33-17-4-7.33-5.34-8.67a24.07,24.07,0,0,1-4.66-6.33c-1-2.33-2-4-3-6s-.67-6,0-8-.34-8-.67-12.67-1-2.66-3-3.33-4.67,2-7.67,2.33-10.66-1.33-12.66-2.33a8.49,8.49,0,0,1-4-5c-.67-2-5.67-8.67-7.34-11.67s-.66-8.33-.33-10a17.48,17.48,0,0,1,3.33-6c1-1,1.67-5.33,1.67-7.33s1-19,1-21-4-3.33-6-4-5.67.33-8,1-10-2.33-12-4-7.67-4.67-13.33-7.67-2.34-13.33-2-17.33,4-11.67,5.33-14.33,14.67-14.67,16-16.34,4.33-4,5.67-5.66a63,63,0,0,1,7-6.34c1.66-1.33,6.33-14.33,7.33-17.33s5.33-6.33,7-7.33,5.67-5.67,10-8.34,13,1,14.67,3.67,2,7.67,2.66,9.67a37.67,37.67,0,0,0,3.67,7.66c2,3.34,8.33,2.67,10.67,2.34s12.66-5.34,15-6.67,11.33-2.67,16.66-4,17-.33,17-.33l14.34-5.34s2.66-13.66,4-15.66,9.33-9.67,13.33-13.34,8-19.33,9.67-23.66,6.33-7.34,7.66-8,27.67-14,31-15.34,5.34-9.66,6-10.66,3.34-3.34,4.34-4.67a111.52,111.52,0,0,0,6.66-12.67,71.11,71.11,0,0,1,6-11c1.34-1.66,9.34-30.33,9.34-30.33l26-8.33s2-1.61,4.33-3.52a45,45,0,0,1-.33,5.18c-.34,2.34-.34,8-.34,8l47.34,4.67a7.56,7.56,0,0,1-2.67,4c-2,1.33-7,4-7,5.67s0,4.33,2,4.33,4.67-.67,4.67,1.33,0,9.34.33,11.34,1.67,3-.33,4.33-3.67,2.33-3,3.67,1.33,7,3.33,6.66a22.56,22.56,0,0,1,6.67,0c1.66.34,4,2,5.33.34s1.67-2.67,3.33-2.34,5.67,1.34,5.67,3,0,5,1.67,5.34a18.46,18.46,0,0,1,5.66,3,7.31,7.31,0,0,0,6,.66,52.26,52.26,0,0,1,7-1.33c2-.33,11-1.33,11,1.67s-3,11.33-.66,12.66,7.33,3,6.33,6.34-2,5-1,8,4,9.33,4,11.66-.67,7,.67,7.67,3.66,6.67,5.66,8,5,7,7.34,7.67,9.33,3.33,10,6,4.66,10.33,5.66,11.33,3,4.33,2.67,5.33-6,10.67-6,10.67a2.71,2.71,0,0,0-2.33,2.67c0,2.33-.67,7.33,2,7s6.66-2,7.33-1,5,5.66,6,4,2.67-5,1.67-5.67-3.67-3-3.67-5-1.67-10,1.33-9.33,10,3.66,10.67,2.33-2.33-5.33-2.33-6.67-1-3,2-2,8,.67,8,2.67-.67,3.67.33,5.33,4.67,4,6,4,3,.34,3.67-1.66.66-6,2.66-6,5.67-1,6-2.67-.66-4,1.34-4.67,2.66-1.33,4.33.34,6.67,6.33,5.67,8a20.15,20.15,0,0,0-2,8c0,2.33.33,9.66-.67,10.66a7.85,7.85,0,0,0-2.33,5c0,2-1,4.34,0,6.67s2,3,3.66,1.33,3-10.33,4.67-10.33h8.67c1.33,0,6.33,0,7.66,1.67s.67,3.33,1.67,5,1,3,1.33,4.66-.66,6.67,1,8.67,4.34,3.33,4.34,5-.67,3,1,4.33,9,2.34,9.66,6,2.34,8,1,10-2.66,4.67-2.66,5.67-.67,3.67,1.66,4.33,6.34,3.67,4.34,4.67-13,4.67-13.34,6-3.33,9.33-1,9.33,5.34-4.66,7.67-5.66,6-1.34,7-2.34,2-3,4-3.33,8.33.33,9.67.33,7,2.34,8.33,2,4-3.33,6.33-3.66,7.34-.67,6.67,1.66-2,6-3,7.34-3.33,2.66-3.67,3.66-4.66,6.67-7.33,7-8.33,2.67-10,4.34-4.33,5.33-7.33,5.33a7.49,7.49,0,0,0-6.34,2.67c-2,2-3.66,5.33-5.66,5.33s-5.67-1.33-5.67.33,1,4.34-1,4.34-6-1-7,.33-3.33,5.33-5.33,6.33-6,2-7.67,3-12,7.67-13.67,9.34-3,3.33-4,4.33-2.33,1.33-2.66,3.67-.34,5.33-4.67,5.66-10,2.34-11,4.34c0,0-2.67,4.66-2.67,6s-3,10.33-1.33,12.33,3.33,2.33,3.33,5.33,0,7.34,2,8.34,8.34,3,9.67,4.33,7,1.67,9.33,2.67,5.34,1.66,6.34,1,1.66-2,5-2,5.66,1.66,7-.34,2-5.33,5-6,5,0,5.66,1.67,1.34,3.33.67,5.33-2.33,4.34,0,5,4.67,1,4,2.67-1.67,10-5,10-9-3.67-11.33-2.67-2,3-5.34,3-7,0-9,.67-5.66,2-5,3.67,6.34,11,2.67,11-9,1.66-7.67,3.33a21.5,21.5,0,0,0,9,5.33c3,.67,5.34,1.67,6.34,3s4,10.67,2,11.34-4,.33-5.34,2-2.66,5.33-4,2.66-4.66-5.66-4.66-3.33,1,7,.66,9-3.66,2.67-1,5.67,6,6.33,5.34,8-3.34,6.33-5.34,5.66a60.32,60.32,0,0,1-6.33-2.66c-1.33-.67-6.33.33-4.33-3.34s3.66-7.66,1-6.33-6,1-7,3.33-2,6.67-4.34,5.34-12.33-5.67-14-4.67-5,3.33-6,1-3.66-4.67-4-1.33a42.25,42.25,0,0,1-1.66,8c-.67,2.33-1,5-2.67,5.33s-5,0-5.33,2.33-.34,4.67-2,6.34-2,3.33-5,3.33-9.34-.33-10.34,1,2,7.33-1.33,6.67-8.33-.34-9-2.67-1.33-4.33-3.33-6-4-3.33-3.34-5.67,1.67-5.33,3.34-4.66a17.86,17.86,0,0,0,7,2c4,.33,6.66,2.33,8,.66s1-2.66,3-4,4.33-1.66,2-3.33-5.34-3.33-3.67-5.33,2.33-2.67,2.33-5,2.67-3.34,0-4.34-4.66-2.33-4.33-4,1.33-7.66,3-7,5.67,1.67,6.67,1,1-4,2-5.33,2.66-3.67,1.33-4.67-5-2-5-3.66,0-5.67-1-7-3.67-3.67-5-3a33.35,33.35,0,0,0-5.33,3.33c-1.67,1.33-5,4.33-6.34,4.33s-6.33-.66-8.33-1.66-6.67-4.34-9-4.34-8.33-.66-7-2.33,3-3.67,4.33-3.67,4.67,0,6-1,1.34-5.33-.33-4.66a41.61,41.61,0,0,1-7.33,2c-1,0-2-2.67-1-3.67s4.66-3.33,6-4.67,4.33-2.66,1.66-3.66-7-2.67-8.66-1a48,48,0,0,0-5.34,7c-1,1.66-3.66,5.33-5.33,5.33a9.44,9.44,0,0,1-5.67-1.33c-2-1.34-6.66-5-7-1.67s-.66,6.33,1.34,7,11.33,4.33,11,5.67-3.34,3.33-5.34,4-5.33,2.66-6.33.66-5-5.33-5-3.33a11.4,11.4,0,0,1-1,5.67c-1,2-3.67,7-2.33,8.33s8,3.67,6.66,6-7.33,11.67-4.66,12.67,9-5,8.66,3.33,1,9.67,2,11.33a7.57,7.57,0,0,1,1,6c-.66,2-4,6-2.66,8.34s2,9,.33,10-3.67,2.33-5.67,2.66-7.33,3.34-9,3.67a23.73,23.73,0,0,0-6,2.67c-1.66,1-7.33,8.66-5.33,10.33s9.33,4.67,7,7.33-6,4.67-7.33,6.34-2.67,3.66-4.67,3.33S304.06,505.15,302.39,506.15Z"/><path class="cls-2" d="M283.41.35c-2.46,2-4.68,3.8-4.68,3.8l-26,8.33s-8,28.67-9.33,30.34a69,69,0,0,0-6,11,113,113,0,0,1-6.67,12.66c-1,1.34-3.67,3.67-4.33,4.67s-2.67,9.33-6,10.67-29.67,14.66-31,15.33-6,3.67-7.67,8-5.67,20-9.67,23.67-12,11.33-13.33,13.33-4,15.67-4,15.67l-14.33,5.33s-11.67-1-17,.33-14.34,2.67-16.67,4-12.67,6.34-15,6.67-8.67,1-10.67-2.33a37.25,37.25,0,0,1-3.66-7.67c-.67-2-1-7-2.67-9.67s-10.33-6.33-14.67-3.66-8.33,7.33-10,8.33-6,4.33-7,7.33-5.66,16-7.33,17.34a61.91,61.91,0,0,0-7,6.33c-1.33,1.67-4.33,4-5.67,5.67s-14.66,13.66-16,16.33-5,10.33-5.33,14.33-3.67,14.34,2,17.34,11.33,6,13.33,7.66,9.67,4.67,12,4,6-1.66,8-1,6,2,6,4-1,19-1,21-.66,6.34-1.66,7.34a17.57,17.57,0,0,0-3.34,6c-.33,1.66-1.33,7,.34,10s6.66,9.66,7.33,11.66a8.53,8.53,0,0,0,4,5c2,1,9.67,2.67,12.67,2.34s5.66-3,7.66-2.34,2.67-1.33,3,3.34,1.34,10.66.67,12.66-1,6,0,8,2,3.67,3,6a23.93,23.93,0,0,0,4.67,6.34c1.33,1.33,5.33,6,5.33,8.66s3.33,15,4.33,17,8.34,11.67,6.67,13h0s5.67,3.67,7.33,3.67,2.67-1.67,4.67-1,3.67,1.67,5.67,1.33,4-4.66,7-3.33,8.33,3,9.66,3,5.67-3.33,7-1.67,4,6,5.67,4,2.33-3.33,4-2.66,3.67,1.66,5,.66,3-3.66,4.67-2.33,3.33,3.33,5.33,3.67,8.33-.67,8,1.66-1,4,.67,4.34,3.66,3,5,3.33,3.33,1.33,4,3,2,5.33,3,3.67,1.33-4.34,3-4.34,9,3,10,5,3.33,4.34,5.33,4.34,4-.34,6.33.33,3.67,2.33,5,.33,2-4.66,3-5.33,7.67-3.67,7.34-1.33-3.34,5-.34,6,6,2,4,3.66-6.33,7.67-5,9.67,3.34,4.67,5.34,5,3,1.33,3,3.67,1,5.66,3,4.33,2.33-5.33,4.33-5a3.94,3.94,0,0,1,3.67,3.67c.33,2.33,1,5-.34,7s-2,2.66-2,4.33-1.33,5.33,1.34,7a16.34,16.34,0,0,1,5.33,5.67c.67,1.33,0,3.66,2.33,4s5.67-1,6,.66,1.34,6.34,4.34,6.67,3.66-1,5.33,1a13.45,13.45,0,0,0,6.33,4c1.67.33,1.67-.33,3.34.33s8.66,5.34,11.33,5.34c3,0,1.33,5,1.33,7s5,1.66,8,2,2,3,2,5.66,4.67.67,6.34-.33,3.66,1,5.66,1.33,3.34-1.66,4.67-3.33,5-3.67,7.33-6.33-5-5.67-7-7.34,3.67-9.33,5.34-10.33a23.78,23.78,0,0,1,6-2.67c1.66-.33,7-3.33,9-3.66s4-1.67,5.66-2.67,1-7.67-.33-10,2-6.33,2.67-8.33a7.6,7.6,0,0,0-1-6c-1-1.67-2.34-3-2-11.34s-6-2.33-8.67-3.33,3.33-10.33,4.67-12.67-5.34-4.66-6.67-6,1.33-6.33,2.33-8.33a11.4,11.4,0,0,0,1-5.67c0-2,4,1.34,5,3.34s4.34,0,6.34-.67,5-2.67,5.33-4-9-5-11-5.67-1.67-3.66-1.33-7,5,.34,7,1.67a9.43,9.43,0,0,0,5.66,1.33c1.67,0,4.34-3.66,5.34-5.33a48.45,48.45,0,0,1,5.33-7c1.67-1.67,6,0,8.67,1s-.34,2.33-1.67,3.67-5,3.66-6,4.66,0,3.67,1,3.67a40.54,40.54,0,0,0,7.33-2c1.67-.67,1.67,3.67.34,4.67s-4.67,1-6,1-3,2-4.34,3.66,4.67,2.34,7,2.34,7,3.33,9,4.33,7,1.67,8.34,1.67,4.66-3,6.33-4.34a34.56,34.56,0,0,1,5.33-3.33c1.34-.67,4,1.67,5,3s1,5.33,1,7,3.67,2.67,5,3.67-.33,3.33-1.33,4.66-1,4.67-2,5.34-5-.34-6.67-1-2.66,5.33-3,7,1.67,3,4.34,4,0,2,0,4.33-.67,3-2.34,5,1.34,3.67,3.67,5.33,0,2-2,3.34-1.67,2.33-3,4-4-.34-8-.67a17.58,17.58,0,0,1-7-2c-1.67-.67-2.67,2.33-3.33,4.67s1.33,4,3.33,5.66,2.67,3.67,3.33,6,5.67,2,9,2.67.34-5.33,1.34-6.67,7.33-1,10.33-1,3.33-1.66,5-3.33,1.67-4,2-6.33,3.67-2,5.33-2.34,2-3,2.67-5.33a42,42,0,0,0,1.67-8c.33-3.33,3-1,4,1.33s4.33,0,6-1,11.66,3.34,14,4.67,3.33-3,4.33-5.33,4.33-2,7-3.34,1,2.67-1,6.34,3,2.66,4.33,3.33a61.36,61.36,0,0,0,6.34,2.67c2,.66,4.66-4,5.33-5.67s-2.67-5-5.33-8,.66-3.67,1-5.67-.67-6.66-.67-9,3.33.67,4.67,3.34,2.66-1,4-2.67,3.33-1.33,5.33-2-1-10-2-11.33-3.33-2.34-6.33-3a21.55,21.55,0,0,1-9-5.34c-1.34-1.66,4-3.33,7.66-3.33s-2-9.33-2.66-11,3-3,5-3.67,5.66-.66,9-.66,3-2,5.33-3,8,2.66,11.33,2.66,4.34-8.33,5-10-1.66-2-4-2.66-.66-3,0-5,0-3.67-.66-5.34-2.67-2.33-5.67-1.66-3.67,4-5,6-3.67.33-7,.33-4,1.33-5,2-4,0-6.33-1-8-1.33-9.34-2.67-7.66-3.33-9.66-4.33-2-5.33-2-8.33-1.67-3.34-3.34-5.34,1.34-11,1.34-12.33,2.66-6,2.66-6c1-2,6.67-4,11-4.33s4.34-3.34,4.67-5.67,1.67-2.67,2.67-3.67,2.33-2.66,4-4.33,12-8.33,13.66-9.33,5.67-2,7.67-3,4.33-5,5.33-6.34,5-.33,7-.33,1-2.67,1-4.33,3.67-.34,5.67-.34,3.67-3.33,5.67-5.33a7.47,7.47,0,0,1,6.33-2.67c3,0,5.67-3.66,7.33-5.33s7.34-4,10-4.33,7-6,7.34-7,2.66-2.34,3.66-3.67,2.34-5,3-7.33-4.33-2-6.66-1.67-5,3.33-6.34,3.67-7-2-8.33-2-7.67-.67-9.67-.34-3,2.34-4,3.34-4.66,1.33-7,2.33-5.33,5.67-7.66,5.67.66-8,1-9.34,11.33-5,13.33-6-2-4-4.33-4.66-1.67-3.34-1.67-4.34,1.33-3.66,2.67-5.66-.34-6.34-1-10-8-4.67-9.67-6-1-2.67-1-4.34-2.67-3-4.33-5-.67-7-1-8.66-.34-3-1.34-4.67-.33-3.33-1.66-5-6.34-1.67-7.67-1.67h-8.67c-1.66,0-3,8.67-4.66,10.34s-2.67,1-3.67-1.34,0-4.66,0-6.66a7.85,7.85,0,0,1,2.33-5c1-1,.67-8.34.67-10.67a20.24,20.24,0,0,1,2-8c1-1.67-4-6.33-5.67-8s-2.33-1-4.33-.33-1,3-1.33,4.66-4,2.67-6,2.67-2,4-2.67,6-2.33,1.67-3.67,1.67-5-2.34-6-4-.33-3.34-.33-5.34-5-1.66-8-2.66-2,.66-2,2,3,5.33,2.33,6.66-7.66-1.66-10.66-2.33-1.34,7.33-1.34,9.33,2.67,4.34,3.67,5-.67,4-1.67,5.67-5.33-3-6-4-4.66.67-7.33,1-2-4.67-2-7a2.72,2.72,0,0,1,2.33-2.67s5.67-9.66,6-10.66-1.66-4.34-2.66-5.34-5-8.66-5.67-11.33-7.67-5.33-10-6-5.33-6.33-7.33-7.67-4.34-7.33-5.67-8-.67-5.33-.67-7.66-3-8.67-4-11.67,0-4.67,1-8-4-5-6.33-6.33.67-9.67.67-12.67-9-2-11-1.67a52.3,52.3,0,0,0-7,1.34,7.35,7.35,0,0,1-6-.67,18.51,18.51,0,0,0-5.67-3c-1.67-.33-1.67-3.67-1.67-5.33s-4-2.67-5.66-3-2,.66-3.34,2.33-3.66,0-5.33-.33a21.91,21.91,0,0,0-6.67,0c-2,.33-2.66-5.34-3.33-6.67s1-2.33,3-3.67.67-2.33.33-4.33-.33-9.33-.33-11.33-2.67-1.34-4.67-1.34-2-2.66-2-4.33,5-4.33,7-5.67a7.56,7.56,0,0,0,2.67-4L282.4,13.82s0-5.67.33-8a46,46,0,0,0,.33-5.34"/><path class="cls-3" d="M325.39,268a2.55,2.55,0,1,1-2.55-2.55A2.55,2.55,0,0,1,325.39,268Z"/><path class="cls-3" d="M268.61,215a2.55,2.55,0,1,1-2.55-2.55A2.55,2.55,0,0,1,268.61,215Z"/><path class="cls-3" d="M225.11,278.48a2.55,2.55,0,1,1-2.55-2.55A2.55,2.55,0,0,1,225.11,278.48Z"/><path class="cls-3" d="M243.61,155.48a2.55,2.55,0,1,1-2.55-2.55A2.55,2.55,0,0,1,243.61,155.48Z"/><circle class="cls-3" cx="345.56" cy="137.98" r="2.55"/><circle class="cls-3" cx="372.06" cy="148.48" r="2.55"/><path class="cls-3" d="M358.58,185.94a2.55,2.55,0,1,1-2.55-2.55A2.56,2.56,0,0,1,358.58,185.94Z"/><circle class="cls-3" cx="303.56" cy="42.98" r="2.55"/><circle class="cls-3" cx="281.06" cy="16.98" r="2.55"/><path class="cls-3" d="M324.58,347.94a2.55,2.55,0,1,1-2.55-2.55A2.56,2.56,0,0,1,324.58,347.94Z"/><circle class="cls-3" cx="243.56" cy="319.98" r="2.55"/><circle class="cls-3" cx="321.56" cy="383.48" r="2.55"/><circle class="cls-3" cx="259.56" cy="403.48" r="2.55"/><circle class="cls-3" cx="277.06" cy="366.48" r="2.55"/><circle class="cls-3" cx="324.06" cy="432.98" r="2.55"/><circle class="cls-3" cx="389.06" cy="341.98" r="2.55"/><circle class="cls-3" cx="402.56" cy="361.98" r="2.55"/><circle class="cls-3" cx="444.06" cy="370.98" r="2.55"/><circle class="cls-3" cx="421.06" cy="408.48" r="2.55"/><circle class="cls-3" cx="309.06" cy="481.48" r="2.55"/><circle class="cls-3" cx="258.56" cy="458.98" r="2.55"/><circle class="cls-3" cx="115.56" cy="317.48" r="2.55"/><circle class="cls-3" cx="195.06" cy="347.98" r="2.55"/><circle class="cls-3" cx="213.06" cy="382.98" r="2.55"/><path class="cls-3" d="M88.61,231a2.55,2.55,0,1,1-2.55-2.55A2.55,2.55,0,0,1,88.61,231Z"/><circle class="cls-3" cx="451.56" cy="186.48" r="2.55"/><circle class="cls-3" cx="506.56" cy="226.48" r="2.55"/><circle class="cls-3" cx="434.56" cy="236.48" r="2.55"/><circle class="cls-3" cx="531.06" cy="246.98" r="2.55"/><circle class="cls-3" cx="478.56" cy="263.98" r="2.55"/><circle class="cls-3" cx="443.56" cy="288.98" r="2.55"/><circle class="cls-3" cx="399.06" cy="292.48" r="2.55"/><rect class="cls-4" x="396.56" y="238.26" width="6.99" height="6.99"/><path class="cls-4" d="M449.76,349.92a15.36,15.36,0,0,1,3-.28,5.24,5.24,0,0,1,3.52.93,2.72,2.72,0,0,1,1.08,2.27,3,3,0,0,1-2.17,2.81v.05a3.28,3.28,0,0,1,2.64,3.22,3.36,3.36,0,0,1-1.09,2.55c-.89.83-2.33,1.21-4.43,1.21a20.46,20.46,0,0,1-2.57-.15Zm1.65,5.25h1.52c1.73,0,2.76-.92,2.76-2.17,0-1.48-1.13-2.09-2.8-2.09a6.9,6.9,0,0,0-1.48.12Zm0,6.13a7.46,7.46,0,0,0,1.4.09c1.72,0,3.3-.63,3.3-2.5s-1.51-2.47-3.32-2.48h-1.38Z"/><path class="cls-4" d="M398,228l-1.32,4H395l4.36-12.82h2L405.71,232h-1.77l-1.37-4Zm4.21-1.29L401,223c-.27-.84-.47-1.61-.66-2.34h0c-.19.74-.39,1.53-.64,2.31l-1.26,3.72Z"/><path class="cls-5" d="M360.87,232.89h1.35v4.81c0,2.05-1,2.73-2.46,2.73a3.57,3.57,0,0,1-1.13-.18l.16-1.09a2.85,2.85,0,0,0,.84.13c.77,0,1.24-.35,1.24-1.63Z"/><path class="cls-5" d="M365.19,238.21l-.64,2.1h-1.39l2.37-7.42h1.73l2.41,7.42h-1.45l-.67-2.1Zm2.13-1-.59-1.82c-.14-.46-.26-1-.37-1.39h0c-.11.43-.22.95-.36,1.39l-.57,1.82Z"/><path class="cls-5" d="M372.06,232.89v7.42H370.7v-7.42Z"/><path class="cls-5" d="M373.61,233a11.55,11.55,0,0,1,2.07-.15,3.41,3.41,0,0,1,2.19.6,2.09,2.09,0,0,1,.72,1.64,2.21,2.21,0,0,1-.64,1.68,3.26,3.26,0,0,1-2.34.8,3.22,3.22,0,0,1-.66-.05v2.8h-1.34Zm1.34,3.46a3,3,0,0,0,.66.05c1,0,1.63-.5,1.63-1.36s-.57-1.27-1.51-1.27a3.24,3.24,0,0,0-.78.07Z"/><path class="cls-5" d="M381.1,232.89v4.33c0,1.45.6,2.12,1.52,2.12s1.56-.67,1.56-2.12v-4.33h1.35v4.24c0,2.29-1.18,3.3-3,3.3s-2.82-1-2.82-3.29v-4.25Z"/><path class="cls-5" d="M387.08,233a12.77,12.77,0,0,1,2.05-.15,3.43,3.43,0,0,1,2.29.59,1.9,1.9,0,0,1,.64,1.49,2,2,0,0,1-1.35,1.86v0a1.89,1.89,0,0,1,1,1.43,15.8,15.8,0,0,0,.58,2.07h-1.4a10.93,10.93,0,0,1-.49-1.75c-.21-1-.56-1.28-1.33-1.3h-.69v3.05h-1.34Zm1.34,3.28h.81c.91,0,1.48-.48,1.48-1.22s-.57-1.19-1.45-1.19a3.48,3.48,0,0,0-.84.07Z"/><path class="cls-6" d="M125.72,243.21a18.56,18.56,0,0,1,3-.22,5,5,0,0,1,3.33.86A2.75,2.75,0,0,1,133,246a2.88,2.88,0,0,1-2,2.71v.05a2.73,2.73,0,0,1,1.51,2.08,20.22,20.22,0,0,0,.85,3h-2a15.83,15.83,0,0,1-.72-2.55c-.3-1.41-.81-1.86-1.93-1.89h-1v4.44h-2Zm2,4.77h1.17c1.33,0,2.16-.7,2.16-1.77s-.83-1.73-2.11-1.73a5.79,5.79,0,0,0-1.22.09Z"/><path class="cls-6" d="M137.1,250.8l-.93,3.06h-2l3.45-10.79h2.52l3.5,10.79H141.5l-1-3.06Zm3.09-1.49-.85-2.66c-.21-.65-.39-1.39-.55-2h0c-.16.62-.32,1.37-.51,2l-.83,2.66Z"/><path class="cls-6" d="M147.53,243.07h2v7c0,3-1.44,4-3.59,4a5.29,5.29,0,0,1-1.65-.25l.24-1.59a4.22,4.22,0,0,0,1.22.19c1.12,0,1.81-.51,1.81-2.38Z"/><path class="cls-6" d="M153.82,250.8l-.93,3.06h-2l3.45-10.79h2.52l3.5,10.79h-2.11l-1-3.06Zm3.09-1.49-.85-2.66c-.21-.65-.39-1.39-.55-2h0c-.16.62-.32,1.37-.51,2l-.83,2.66Z"/><path class="cls-6" d="M161.78,251.71a5.46,5.46,0,0,0,2.61.69c1.27,0,2-.59,2-1.47s-.54-1.3-1.92-1.8c-1.78-.64-2.91-1.58-2.91-3.13,0-1.76,1.47-3.11,3.81-3.11a5.64,5.64,0,0,1,2.59.55l-.48,1.58a4.54,4.54,0,0,0-2.14-.51c-1.25,0-1.8.67-1.8,1.29,0,.84.63,1.22,2.07,1.78,1.87.71,2.78,1.65,2.78,3.2,0,1.73-1.31,3.24-4.09,3.24a6.31,6.31,0,0,1-2.92-.68Z"/><path class="cls-6" d="M172.2,244.72h-3.07v-1.65h8.15v1.65h-3.11v9.14h-2Z"/><path class="cls-6" d="M180.51,243.07v4.32h4.56v-4.32h2v10.79h-2V249.1h-4.56v4.76h-2V243.07Z"/><path class="cls-6" d="M191.45,250.8l-.93,3.06h-2L192,243.07h2.51l3.5,10.79h-2.11l-1-3.06Zm3.09-1.49-.85-2.66c-.21-.65-.38-1.39-.54-2h0c-.16.62-.32,1.37-.51,2l-.83,2.66Z"/><path class="cls-6" d="M199.46,253.86V243.07h2.25l2.78,4.62a30.13,30.13,0,0,1,1.84,3.62h0c-.12-1.44-.17-2.83-.17-4.48v-3.76H208v10.79h-2l-2.82-4.74a37.85,37.85,0,0,1-1.94-3.73h0c.08,1.4.09,2.82.09,4.6v3.86Z"/><path class="cls-7" d="M323.36,268.44c-4.83,0-5.33-2.83-5.33-4.66s-4.67-2.84-6.33-3.5-1.67-1.5-3.17-2.5-3.33.66-4.83,2-10.34-2.67-11.5-3-5.67-.5-7.67-1-7-5.5-7.67-6.5-2.66-2.17-4.83-4.34-.83-3-.33-4.16a30,30,0,0,0,2-6.17c.16-1.67.16-7,.16-10s-4.16-6-6.5-8-6.66-8.33-7.83-10-3.33-9-3.67-10.17-1.66-2.5-3.5-4.16-1.83-4.67-1.83-6.17-3.17-4.67-4-5.67-.33-7-.33-8.33-3.84-4.5-5.67-6.5.17-13.17.33-16.33,4.84-10,5.84-10.84a46.56,46.56,0,0,0,5.33-4.83c1-1.33,8.67-9.5,10-10.83s4-1.67,5.5-2.34,5.17-11.16,6-13.66,1.33-13.67,1.5-15.67.83-9,1-10.5,2.67-13,3.17-14.5,1.5-6.83,1.66-8,.5-9,.5-11.33-.66-10.34-.33-12-.17-7.5-.17-10.34a24.28,24.28,0,0,1,.84-8.16,13.81,13.81,0,0,1,.68-1.85"/><path class="cls-7" d="M388.36,98.78s-3.66,7.83-4.33,8.83a26.27,26.27,0,0,1-5.83,5.33c-1.67.84-9,3.84-10,5a102.65,102.65,0,0,1-8.5,8.34c-1.84,1.33-8.67,4.83-9.5,5.66s-2.84,1.17-4.5,5.5-5.67,17-7.17,18-8,3.84-9.67,6-9.5,13.84-12.83,15.67-10.5,3.5-14.17,2.83-17.33-.66-18.83.84-7.33,12.33-8.5,14.66-6.33,16.5-8.17,19-5.83,7.5-10,9.67-13.83,5.67-14.5,9.83-1,10.5-3,12.84-6.5,5.5-7.66,7.66-4.67,10.34-6.5,11.34-6.84,3.33-6.5,7.16,2.33,11.17,2.33,13.67,3.17,14.17,4.17,16.17,10.16,10,10.33,11.83,1.67,6.17,1,9.83-4.33,11.67-5,14.34-2.17,10.5-3.5,12.16-11.17,12-12.33,13-7.84,9.17-8.84,11.67-.66,5.33,2.17,6,7.67,5.5,8.5,6.33,8.5,8.5,10.33,7.84,10.67-6.34,11.84-6.67,3.66.17,5.83,1,8.83,4.33,9.67,6,2,6.83,4.16,7,6.17.83,8.17-1,4.5-11,10.17-12.5,13.5-3.17,16.16-4.33,11-5,12.34-5,13.83,2.33,15.33,1.83,3.83-4.17,5.33-4.5a18.68,18.68,0,0,0,4.84-2.5c1-.67,8-6.67,10-6.17a81.25,81.25,0,0,1,10.16,4.17c1.5.83,6.84,2.33,13,3.17s14.17-.5,15.5,1,4.67,4.83,5.5,2,2.5-11.67,8-12.5,22,0,25,0a51.88,51.88,0,0,1,11.17,1.83c2,.67,11,2.83,14.67,2.83.5,0,4.83-1.33,6.33-1.66s4.67-.67,5.83,0,5.67,2.16,7.67,2,8.33-.67,10.17-1,5.83-1.5,7-2.5,2-5,4.66-5.17a20.82,20.82,0,0,1,6.67.83c2.17.5,4.5,2.17,7.83-2.16"/><path class="cls-7" d="M241.55,465c3.22-4.36,6.61-10.42,9.48-14.85,4-6.17,5.83-8.17,7.17-11.17s-1.84-14.66-2-19.5,4-22.66,5.33-28.5,5-12.33,6.33-15.66.34-12.34.34-15.5-.67-16.84-1-22,10.66-10.67,14-13.17a18.28,18.28,0,0,0,6-9,13.85,13.85,0,0,1,4.66-6.17c1.67-1.33,6.5-7.83,8.17-10.16s14.33-18.84,20-26.17,10.17-9.5,12.33-10,14.54-1.77,16.34-2.17c3.95-.86,11.33-6.66,13.83-8.33s15-4.17,16.83-4.67,9.5-3.33,11.5-3.66,8.67-1.67,8.67-1.67,22,.33,24.33-.17,12.34-2.66,14.34-3.16,21-2.34,25.16-4A69.26,69.26,0,0,0,474,229.44c1.5-1,19.33-10.83,24.17-10.33s8.16,1.33,11.16,3.17a18.78,18.78,0,0,0,4.78,1.93"/><path class="cls-7" d="M216,386.94s-3.83,5.67-4.5,6.84-6,6.16-7.33,8.16c-1,1.54-4.88,8.75-9,12.93"/><path class="cls-7" d="M302,296.61s-7.5-1.17-9-1.17-10.67,1.5-12,2.34-9.17,4.66-10.33,5.5-9.67,5-11.17,5.66-8.5,3.67-10,4.34-10.17,5.33-13.83,4.83"/><path class="cls-7" d="M334.2,262.61s-2.5,6.33-3.5,7.17S324,275.94,324,279.94s.67,10.17-.17,12.5-4.5,13.34-4.83,15.17-2.33,24.5-2.33,27.33,1.83,9.34,2,11.34a98.68,98.68,0,0,1,0,15.83c-.67,5.83-.5,8.5,0,10.67s1.66,6.33,1.66,9.83-.16,14.67,2,17.33,8.34,5.67,10.5,8.34"/><path class="cls-7" d="M438.5,439.3a10.18,10.18,0,0,1,.7-1.19c.83-1.17,1-3.33,1.33-4.67s1.67-1.5,2.83-4-2.66-3.16-4.16-3.5-4.84-2.66-5.67-3.5-1.5-3.16-2.33-4.5-3-1-5-2.33-3.17-4.83-4-6.33a2.53,2.53,0,0,0-2-1.5s-10.17-6.5-11.67-8.17,0-7.17.5-8.83-1.67-7-2.5-8.84-3.67-6.66-4.83-8.66-.84-5-1.34-7.67-3.66-5-4.66-5.67-4-6-4.67-7.5-14.67-14.33-15.5-15.83a28.59,28.59,0,0,1-2.67-7.5c-.33-2.33-1.66-2.83-3.33-4.33s2.33-3.5,3.5-4.34,9.5-4.16,13-5.66,7-12.17,7.83-13.84,4.67-7.16,5.5-8.66a68.71,68.71,0,0,0,4.34-8.67c1-2.83,5-11.83,5-15s-3.5-10.5-4.17-11.5-4.17-5.5-4.67-7.17.5-7.5.5-7.5c0-1.83-5.16-16.66-7.16-21s-9.34-11.83-13.17-15-19.5-13.16-24-15.83-6-10.17-6.17-12-2.5-6.67-3-8-4-7.33-5-9.33a5.56,5.56,0,0,1-.49-3.75c-.18-.9-.69-1.84-2.84-2.09-9.44-1.05-15.5.17-19.5-2.16a24.26,24.26,0,0,0-12.67-3c-3.66.16-17.66.83-23.33.16s-7.83-1.83-13-1-13.17,1.67-15.17,2.34-10,2.83-12.66,2.66-9.84-3.33-14.84.5-16.16,10.84-18.66,12.5-7.67,7.17-11.34,10.5-9.83,7.84-11.5,9.5-9,4.84-8.16,9.84,4.16,10,3.33,12.66-1.67,4.5-3.67,5.34-3.5,1.66-4.16,3.16-3.34,3.5-4.84,4-9.83,1.67-12.5,2.84-8,3.83-11,3.83-6.5-3.83-13.33-4.83-17.17.33-23.5,1.16-21.33,3.5-20.83,5.17,4.33,4,8,6.67,11.33,6.5,10.33,10.5-2,8-1.5,10.33,2.33,4.67.67,8-4,10.5-2.5,13.83,11.66,16.34,11.33,19.67-.67,12.17,0,15.33,1.33,5.5.83,8.5-2.5,11.67-2.16,15.34,2.66,16.33,3.5,18.5,3.66,6,9.16,9.83,9.34,8.17,10.5,12.17c1,3.29,1.25,11.1.2,17"/><path class="cls-7" d="M444.91,159.53c-2.75,1.77-5.52,3.55-5.88,3.91-.67.67-5.17,4.17-6,6s-1.5,3.84-2.83,6.84-2,4.83-3.67,6.33-8.83,7-9.83,8.5-8.84,13.67-8.84,18,.5,14.67.34,16.17,0,5.33-1.67,6.66-5.67,4.67-6.5,8.5"/><path class="cls-7" d="M407.7,214.11a33.28,33.28,0,0,1,4.5,1.67,4.11,4.11,0,0,0,3.5.66c1.66-.33,3.66-1.83,4.83-1s2,1.84,3.17,2.17,4.5,1,4.5,4.5-2,10-.84,12.83,3.67,6.84,3.5,11.67-.5,13.83-1.33,16.67a7.59,7.59,0,0,1-7.17,5c-3-.17-12.66-.17-13.66.33"/><path class="cls-8" d="M454.35,369.18a31,31,0,0,1-14.22,1c-2.56-.42-5.05-1.16-7.58-1.76a68.61,68.61,0,0,0-24.36-1.29c-2.05.26-4.2.6-6.12-.17-2.51-1-2.81-4.16-4.79-5.76-3-2.44-4.06-6.5-6.22-9.74-4-5-9-8-13-12-3-3-5-8-6-12l-3-3c0-1,1-2,2-3,2-1,3-2,5-3,7-2,14-6,17-14,5-13,17-25,14-40,0-5-5-9-7-14-1-3,0-7-.36-10.89"/><circle class="cls-9" cx="453.78" cy="369.36" r="2.55"/><path class="cls-6" d="M294.75,271.43l-.7,2.12h-.9l2.29-6.74h1.05l2.3,6.74h-.93l-.72-2.12Zm2.21-.68-.66-1.94c-.15-.44-.25-.84-.35-1.23h0c-.1.4-.21.81-.34,1.22l-.66,1.95Z"/><path class="cls-6" d="M298.53,275a1.42,1.42,0,0,0,1-.37c.24-.28.33-.66.33-1.82v-4.05h.88v4.39a2.65,2.65,0,0,1-.58,2,2.23,2.23,0,0,1-1.5.55Zm2.27-7.59a.51.51,0,0,1-.55.53.52.52,0,0,1-.54-.53.54.54,0,0,1,.56-.56A.52.52,0,0,1,300.8,267.36Z"/><path class="cls-6" d="M302.14,270c0-.5,0-.91,0-1.31h.77l0,.78h0a1.67,1.67,0,0,1,1.52-.89,1.43,1.43,0,0,1,1.37,1h0a2,2,0,0,1,.54-.63,1.65,1.65,0,0,1,1.07-.34c.64,0,1.59.42,1.59,2.1v2.85h-.86v-2.74c0-.93-.34-1.49-1.05-1.49a1.14,1.14,0,0,0-1,.8,1.45,1.45,0,0,0-.07.44v3h-.86v-2.9c0-.77-.34-1.33-1-1.33a1.31,1.31,0,0,0-1.16,1.31v2.92h-.86Z"/><path class="cls-6" d="M311,271.29a1.55,1.55,0,0,0,1.66,1.68,3.18,3.18,0,0,0,1.34-.25l.15.63a3.92,3.92,0,0,1-1.61.3,2.25,2.25,0,0,1-2.38-2.44,2.35,2.35,0,0,1,2.27-2.61,2.05,2.05,0,0,1,2,2.28,3.32,3.32,0,0,1,0,.41Zm2.58-.63a1.25,1.25,0,0,0-1.22-1.43,1.46,1.46,0,0,0-1.35,1.43Z"/><path class="cls-6" d="M315.49,270.22c0-.57,0-1.06,0-1.51h.77l0,1h0a1.45,1.45,0,0,1,1.34-1.06,1,1,0,0,1,.25,0v.83a1.32,1.32,0,0,0-.3,0,1.23,1.23,0,0,0-1.18,1.13,2.48,2.48,0,0,0,0,.41v2.58h-.87Z"/><path class="cls-6" d="M281.32,469.34a8.43,8.43,0,0,1,1.59-.14,2.79,2.79,0,0,1,1.85.49,1.41,1.41,0,0,1,.56,1.19,1.6,1.6,0,0,1-1.14,1.48h0a1.75,1.75,0,0,1,1.39,1.69,1.82,1.82,0,0,1-.57,1.35,3.39,3.39,0,0,1-2.33.63,10.17,10.17,0,0,1-1.35-.08Zm.87,2.76H283c.92,0,1.46-.48,1.46-1.13s-.6-1.1-1.48-1.1a3.73,3.73,0,0,0-.77.06Zm0,3.22a4.65,4.65,0,0,0,.73,0c.9,0,1.73-.33,1.73-1.31s-.79-1.3-1.74-1.3h-.72Z"/><path class="cls-6" d="M289.39,476l-.07-.61h0a1.8,1.8,0,0,1-1.48.72,1.38,1.38,0,0,1-1.48-1.39c0-1.17,1-1.8,2.91-1.8v-.1a1,1,0,0,0-1.1-1.11,2.32,2.32,0,0,0-1.26.36l-.2-.58a3,3,0,0,1,1.59-.43c1.48,0,1.84,1,1.84,2v1.81a6.81,6.81,0,0,0,.08,1.16Zm-.13-2.47c-1,0-2.05.15-2.05,1.09a.78.78,0,0,0,.83.84,1.2,1.2,0,0,0,1.17-.81.92.92,0,0,0,.05-.28Z"/><path class="cls-6" d="M291.53,472.45c0-.49,0-.9,0-1.3h.78l.05.79h0a1.79,1.79,0,0,1,1.6-.9c.67,0,1.71.4,1.71,2V476h-.88v-2.79c0-.78-.29-1.42-1.12-1.42a1.25,1.25,0,0,0-1.18.89,1.31,1.31,0,0,0-.06.41V476h-.88Z"/><path class="cls-6" d="M297,475.08a2.31,2.31,0,0,0,1.16.35c.64,0,.94-.32.94-.72s-.25-.65-.9-.89c-.87-.31-1.28-.79-1.28-1.37a1.49,1.49,0,0,1,1.67-1.41,2.42,2.42,0,0,1,1.19.3l-.22.64a1.88,1.88,0,0,0-1-.29c-.52,0-.81.3-.81.67s.29.58.92.81c.84.32,1.27.74,1.27,1.46s-.66,1.45-1.81,1.45a2.76,2.76,0,0,1-1.36-.33Z"/><path class="cls-6" d="M301.39,471.15l.64,2.45c.14.54.27,1,.36,1.54h0c.11-.49.27-1,.43-1.53l.79-2.46h.74l.75,2.41c.18.58.32,1.09.43,1.58h0a14.55,14.55,0,0,1,.37-1.57l.69-2.42h.87L306,476h-.8l-.74-2.31c-.17-.54-.31-1-.43-1.58h0a14.75,14.75,0,0,1-.44,1.59l-.78,2.3H302l-1.46-4.83Z"/><path class="cls-6" d="M311,476l-.07-.61h0a1.8,1.8,0,0,1-1.48.72A1.38,1.38,0,0,1,308,474.7c0-1.17,1-1.8,2.91-1.8v-.1a1,1,0,0,0-1.1-1.11,2.32,2.32,0,0,0-1.26.36l-.2-.58a3,3,0,0,1,1.59-.43c1.48,0,1.84,1,1.84,2v1.81a6.81,6.81,0,0,0,.08,1.16Zm-.13-2.47c-1,0-2.05.15-2.05,1.09a.78.78,0,0,0,.83.84,1.2,1.2,0,0,0,1.17-.81.92.92,0,0,0,.05-.28Z"/><path class="cls-6" d="M313.18,472.65c0-.56,0-1,0-1.5h.77l0,1h0a1.45,1.45,0,0,1,1.34-1.06,1,1,0,0,1,.25,0v.83a1.28,1.28,0,0,0-.3,0,1.23,1.23,0,0,0-1.18,1.13,2.48,2.48,0,0,0,0,.41V476h-.87Z"/><path class="cls-6" d="M319.08,476l-.07-.61h0a1.8,1.8,0,0,1-1.48.72A1.38,1.38,0,0,1,316,474.7c0-1.17,1-1.8,2.91-1.8v-.1a1,1,0,0,0-1.1-1.11,2.32,2.32,0,0,0-1.26.36l-.2-.58A3,3,0,0,1,318,471c1.48,0,1.84,1,1.84,2v1.81a6.81,6.81,0,0,0,.08,1.16Zm-.13-2.47c-1,0-2.05.15-2.05,1.09a.78.78,0,0,0,.83.84,1.2,1.2,0,0,0,1.17-.81.92.92,0,0,0,.05-.28Z"/><path class="cls-6" d="M120.82,313.84a8.43,8.43,0,0,1,1.59-.14,2.79,2.79,0,0,1,1.85.49,1.41,1.41,0,0,1,.56,1.19,1.6,1.6,0,0,1-1.14,1.48h0a1.75,1.75,0,0,1,1.39,1.69,1.82,1.82,0,0,1-.57,1.35,3.39,3.39,0,0,1-2.33.63,10.17,10.17,0,0,1-1.35-.08Zm.87,2.76h.79c.92,0,1.46-.48,1.46-1.13s-.6-1.1-1.48-1.1a3.73,3.73,0,0,0-.77.06Zm0,3.22a4.65,4.65,0,0,0,.73,0c.9,0,1.73-.33,1.73-1.31s-.79-1.3-1.74-1.3h-.72Z"/><path class="cls-6" d="M128.89,320.48l-.07-.61h0a1.8,1.8,0,0,1-1.48.72,1.38,1.38,0,0,1-1.48-1.39c0-1.17,1-1.8,2.91-1.8v-.1a1,1,0,0,0-1.1-1.11,2.32,2.32,0,0,0-1.26.36l-.2-.58a3,3,0,0,1,1.59-.43c1.48,0,1.84,1,1.84,2v1.81a6.81,6.81,0,0,0,.08,1.16Zm-.13-2.47c-1,0-2,.15-2,1.09a.78.78,0,0,0,.83.84,1.2,1.2,0,0,0,1.17-.81.92.92,0,0,0,0-.28Z"/><path class="cls-6" d="M131,317.15c0-.56,0-1,0-1.5h.77l0,1h0a1.45,1.45,0,0,1,1.34-1.06,1,1,0,0,1,.25,0v.83a1.28,1.28,0,0,0-.3,0,1.23,1.23,0,0,0-1.18,1.13,2.48,2.48,0,0,0,0,.41v2.58H131Z"/><path class="cls-6" d="M134.34,317c0-.49,0-.9,0-1.3h.77l0,.78h0a1.67,1.67,0,0,1,1.52-.89,1.43,1.43,0,0,1,1.37,1h0a1.89,1.89,0,0,1,.54-.63,1.65,1.65,0,0,1,1.07-.34c.64,0,1.59.42,1.59,2.09v2.85h-.86v-2.74c0-.92-.34-1.48-1-1.48a1.14,1.14,0,0,0-1,.8,1.33,1.33,0,0,0-.07.43v3h-.86v-2.9c0-.76-.34-1.32-1-1.32a1.19,1.19,0,0,0-1.09.87,1.27,1.27,0,0,0-.07.44v2.91h-.86Z"/><path class="cls-6" d="M143.17,318.22a1.55,1.55,0,0,0,1.66,1.68,3.18,3.18,0,0,0,1.34-.25l.15.63a3.92,3.92,0,0,1-1.61.3,2.25,2.25,0,0,1-2.38-2.44,2.35,2.35,0,0,1,2.27-2.6,2,2,0,0,1,2,2.27,3.32,3.32,0,0,1,0,.41Zm2.58-.63a1.24,1.24,0,0,0-1.22-1.42,1.45,1.45,0,0,0-1.35,1.42Z"/><path class="cls-6" d="M147.69,317.15c0-.56,0-1,0-1.5h.77l0,1h0a1.45,1.45,0,0,1,1.34-1.06,1,1,0,0,1,.25,0v.83a1.28,1.28,0,0,0-.3,0,1.23,1.23,0,0,0-1.18,1.13,2.48,2.48,0,0,0,0,.41v2.58h-.87Z"/><path class="cls-6" d="M327.32,343.84a8.43,8.43,0,0,1,1.59-.14,2.79,2.79,0,0,1,1.85.49,1.41,1.41,0,0,1,.56,1.19,1.6,1.6,0,0,1-1.14,1.48h0a1.75,1.75,0,0,1,1.39,1.69,1.82,1.82,0,0,1-.57,1.35,3.39,3.39,0,0,1-2.33.63,10.17,10.17,0,0,1-1.35-.08Zm.87,2.76H329c.92,0,1.46-.48,1.46-1.13s-.6-1.1-1.48-1.1a3.73,3.73,0,0,0-.77.06Zm0,3.22a4.65,4.65,0,0,0,.73,0c.9,0,1.73-.33,1.73-1.31s-.79-1.3-1.74-1.3h-.72Z"/><path class="cls-6" d="M332.71,343.39h.88v3h0a1.68,1.68,0,0,1,.63-.61,1.81,1.81,0,0,1,.9-.25c.65,0,1.69.4,1.69,2.06v2.88H336V347.7c0-.77-.29-1.43-1.12-1.43a1.25,1.25,0,0,0-1.18.88,1.07,1.07,0,0,0-.06.42v2.91h-.88Z"/><path class="cls-6" d="M339.24,344.29a.55.55,0,0,1-1.09,0,.54.54,0,0,1,.55-.55A.52.52,0,0,1,339.24,344.29Zm-1,6.19v-4.83h.88v4.83Z"/><path class="cls-6" d="M340.6,343.39h.88v7.09h-.88Z"/><path class="cls-6" d="M343.31,345.65l.64,2.45c.14.54.27,1,.36,1.54h0c.11-.49.27-1,.43-1.53l.79-2.46h.74l.75,2.41c.18.58.32,1.09.43,1.58h0a14.55,14.55,0,0,1,.37-1.57l.69-2.42h.87l-1.56,4.83h-.8l-.74-2.31c-.17-.54-.31-1-.43-1.58h0a14.75,14.75,0,0,1-.44,1.59l-.78,2.3h-.8l-1.46-4.83Z"/><path class="cls-6" d="M353,350.48l-.07-.61h0a1.8,1.8,0,0,1-1.48.72,1.38,1.38,0,0,1-1.48-1.39c0-1.17,1-1.8,2.91-1.8v-.1a1,1,0,0,0-1.1-1.11,2.32,2.32,0,0,0-1.26.36l-.2-.58a3,3,0,0,1,1.59-.43c1.48,0,1.84,1,1.84,2v1.81a6.81,6.81,0,0,0,.08,1.16Zm-.13-2.47c-1,0-2.05.15-2.05,1.09a.78.78,0,0,0,.83.84,1.2,1.2,0,0,0,1.17-.81.92.92,0,0,0,.05-.28Z"/><path class="cls-6" d="M355.1,347.15c0-.56,0-1,0-1.5h.77l0,1h0a1.45,1.45,0,0,1,1.34-1.06,1,1,0,0,1,.25,0v.83a1.28,1.28,0,0,0-.3,0,1.23,1.23,0,0,0-1.18,1.13,2.48,2.48,0,0,0,0,.41v2.58h-.87Z"/><path class="cls-6" d="M361,350.48l-.07-.61h0a1.8,1.8,0,0,1-1.48.72,1.38,1.38,0,0,1-1.48-1.39c0-1.17,1-1.8,2.91-1.8v-.1a1,1,0,0,0-1.1-1.11,2.32,2.32,0,0,0-1.26.36l-.2-.58a3,3,0,0,1,1.59-.43c1.48,0,1.84,1,1.84,2v1.81a6.81,6.81,0,0,0,.08,1.16Zm-.13-2.47c-1,0-2.05.15-2.05,1.09a.78.78,0,0,0,.83.84,1.2,1.2,0,0,0,1.17-.81.92.92,0,0,0,.05-.28Z"/><path class="cls-6" d="M208.32,143.84a8.43,8.43,0,0,1,1.59-.14,2.79,2.79,0,0,1,1.85.49,1.41,1.41,0,0,1,.56,1.19,1.6,1.6,0,0,1-1.14,1.48v0a1.72,1.72,0,0,1,1.39,1.68,1.82,1.82,0,0,1-.57,1.35,3.39,3.39,0,0,1-2.33.63,10.17,10.17,0,0,1-1.35-.08Zm.87,2.76H210c.92,0,1.46-.48,1.46-1.13s-.6-1.1-1.48-1.1a3.73,3.73,0,0,0-.77.06Zm0,3.22a4.65,4.65,0,0,0,.73,0c.9,0,1.73-.33,1.73-1.31s-.79-1.3-1.74-1.3h-.72Z"/><path class="cls-6" d="M214.69,144.29a.55.55,0,0,1-1.09,0,.54.54,0,0,1,.55-.55A.52.52,0,0,1,214.69,144.29Zm-1,6.19v-4.83h.88v4.83Z"/><path class="cls-6" d="M216.92,147.86h0c.12-.17.29-.38.43-.55l1.42-1.66h1.06l-1.87,2,2.13,2.85H219l-1.67-2.32-.45.5v1.82h-.87v-7.09h.87Z"/><path class="cls-6" d="M223.6,150.48l-.07-.61h0a1.8,1.8,0,0,1-1.48.72,1.38,1.38,0,0,1-1.48-1.39c0-1.17,1-1.81,2.91-1.8v-.1a1,1,0,0,0-1.1-1.11,2.41,2.41,0,0,0-1.26.36l-.2-.58a3,3,0,0,1,1.59-.43c1.48,0,1.84,1,1.84,2v1.81a6.81,6.81,0,0,0,.08,1.16Zm-.13-2.47c-1,0-2.05.15-2.05,1.09a.78.78,0,0,0,.83.84,1.2,1.2,0,0,0,1.17-.81.92.92,0,0,0,.05-.28Z"/><path class="cls-6" d="M225.74,147c0-.5,0-.91,0-1.31h.78l.05.8h0a1.78,1.78,0,0,1,1.6-.91c.67,0,1.71.4,1.71,2.05v2.89H229v-2.79c0-.77-.29-1.42-1.12-1.42a1.24,1.24,0,0,0-1.18.89,1.31,1.31,0,0,0-.06.41v2.91h-.88Z"/><path class="cls-6" d="M231.78,148.22a1.55,1.55,0,0,0,1.66,1.68,3.18,3.18,0,0,0,1.34-.25l.15.63a3.92,3.92,0,0,1-1.61.3,2.25,2.25,0,0,1-2.38-2.44,2.35,2.35,0,0,1,2.27-2.6,2,2,0,0,1,2,2.27,3.32,3.32,0,0,1,0,.41Zm2.58-.63a1.24,1.24,0,0,0-1.22-1.42,1.45,1.45,0,0,0-1.35,1.42Z"/><path class="cls-6" d="M236.3,147.15c0-.56,0-1.05,0-1.5H237l0,.95h0a1.45,1.45,0,0,1,1.34-1.06,1,1,0,0,1,.25,0v.83a1.32,1.32,0,0,0-.3,0,1.23,1.23,0,0,0-1.18,1.12,2.48,2.48,0,0,0,0,.41v2.58h-.87Z"/><path class="cls-6" d="M394.82,338.34a8.43,8.43,0,0,1,1.59-.14,2.79,2.79,0,0,1,1.85.49,1.41,1.41,0,0,1,.56,1.19,1.6,1.6,0,0,1-1.14,1.48h0a1.75,1.75,0,0,1,1.39,1.69,1.82,1.82,0,0,1-.57,1.35,3.39,3.39,0,0,1-2.33.63,10.17,10.17,0,0,1-1.35-.08Zm.87,2.76h.79c.92,0,1.46-.48,1.46-1.13s-.6-1.1-1.48-1.1a3.73,3.73,0,0,0-.77.06Zm0,3.22a4.65,4.65,0,0,0,.73,0c.9,0,1.73-.33,1.73-1.31s-.79-1.3-1.74-1.3h-.72Z"/><path class="cls-6" d="M404.26,343.66c0,.5,0,.94,0,1.32h-.78l0-.79h0a1.82,1.82,0,0,1-1.6.9c-.76,0-1.67-.42-1.67-2.12v-2.82h.88v2.67c0,.92.28,1.54,1.08,1.54a1.27,1.27,0,0,0,1.16-.8,1.29,1.29,0,0,0,.08-.45v-3h.88Z"/><path class="cls-6" d="M405.72,341.45c0-.49,0-.9,0-1.3h.78l.05.79h0a1.79,1.79,0,0,1,1.6-.9c.67,0,1.71.4,1.71,2V345H409v-2.79c0-.78-.29-1.42-1.12-1.42a1.25,1.25,0,0,0-1.18.89,1.31,1.31,0,0,0-.06.41V345h-.88Z"/><path class="cls-6" d="M415.45,337.89v5.84c0,.43,0,.92,0,1.25h-.79l0-.84h0a1.79,1.79,0,0,1-1.65.95,2.21,2.21,0,0,1-2.07-2.46,2.31,2.31,0,0,1,2.17-2.59,1.62,1.62,0,0,1,1.46.74h0v-2.89Zm-.88,4.22a1.61,1.61,0,0,0,0-.37,1.3,1.3,0,0,0-1.27-1c-.91,0-1.45.8-1.45,1.86s.48,1.79,1.43,1.79a1.32,1.32,0,0,0,1.29-1.05,1.53,1.53,0,0,0,0-.38Z"/><path class="cls-6" d="M417.89,338.79a.55.55,0,0,1-1.09,0,.54.54,0,0,1,.55-.55A.52.52,0,0,1,417.89,338.79Zm-1,6.19v-4.83h.88V345Z"/><path class="cls-6" d="M331.53,387.76a4.32,4.32,0,0,1-1.78.32,3.15,3.15,0,0,1-3.33-3.41,3.35,3.35,0,0,1,3.52-3.53,3.61,3.61,0,0,1,1.6.3l-.21.71a3.17,3.17,0,0,0-1.36-.28,2.51,2.51,0,0,0-2.63,2.78,2.45,2.45,0,0,0,2.59,2.7,3.48,3.48,0,0,0,1.42-.28Z"/><path class="cls-6" d="M332.59,380.89h.88v3h0a1.68,1.68,0,0,1,.63-.61,1.81,1.81,0,0,1,.9-.25c.65,0,1.69.4,1.69,2.06V388h-.88V385.2c0-.77-.29-1.43-1.12-1.43a1.25,1.25,0,0,0-1.18.88,1.07,1.07,0,0,0-.06.42V388h-.88Z"/><path class="cls-6" d="M339.12,381.79a.55.55,0,0,1-1.09,0,.54.54,0,0,1,.55-.55A.52.52,0,0,1,339.12,381.79Zm-1,6.19v-4.83H339V388Z"/><path class="cls-6" d="M341.54,381.76v1.39h1.26v.67h-1.26v2.6c0,.6.17.94.66.94a2,2,0,0,0,.51-.06l0,.66a2.15,2.15,0,0,1-.78.12,1.22,1.22,0,0,1-1-.37,1.79,1.79,0,0,1-.34-1.26v-2.63h-.75v-.67h.75V382Z"/><path class="cls-6" d="M344.85,381.76v1.39h1.26v.67h-1.26v2.6c0,.6.17.94.66.94a2,2,0,0,0,.51-.06l0,.66a2.15,2.15,0,0,1-.78.12,1.22,1.22,0,0,1-.95-.37,1.79,1.79,0,0,1-.34-1.26v-2.63h-.75v-.67H344V382Z"/><path class="cls-6" d="M351.42,385.52a2.37,2.37,0,0,1-2.41,2.57,2.3,2.3,0,0,1-2.32-2.49,2.35,2.35,0,0,1,2.4-2.56A2.29,2.29,0,0,1,351.42,385.52Zm-3.84.05c0,1.06.61,1.86,1.47,1.86s1.47-.79,1.47-1.88c0-.82-.41-1.86-1.45-1.86S347.58,384.65,347.58,385.57Z"/><path class="cls-6" d="M352.53,384.65c0-.56,0-1,0-1.5h.77l0,1h0a1.45,1.45,0,0,1,1.34-1.06,1,1,0,0,1,.25,0v.83a1.28,1.28,0,0,0-.3,0,1.23,1.23,0,0,0-1.18,1.13,2.48,2.48,0,0,0,0,.41V388h-.87Z"/><path class="cls-6" d="M359.89,383.15c0,.35,0,.74,0,1.33v2.8a2.78,2.78,0,0,1-.69,2.21,2.57,2.57,0,0,1-1.76.58,3.12,3.12,0,0,1-1.61-.4L356,389a2.73,2.73,0,0,0,1.42.38c.9,0,1.56-.47,1.56-1.69v-.54h0a1.73,1.73,0,0,1-1.54.81,2.16,2.16,0,0,1-2.06-2.36,2.32,2.32,0,0,1,2.18-2.56,1.61,1.61,0,0,1,1.51.84h0l0-.73Zm-.91,1.9a1.29,1.29,0,0,0-.05-.4,1.27,1.27,0,0,0-1.23-.92c-.84,0-1.44.71-1.44,1.82,0,.95.48,1.74,1.43,1.74a1.29,1.29,0,0,0,1.22-.9,1.53,1.53,0,0,0,.07-.47Z"/><path class="cls-6" d="M364,388l-.07-.61h0a1.8,1.8,0,0,1-1.48.72,1.38,1.38,0,0,1-1.48-1.39c0-1.17,1-1.8,2.91-1.8v-.1a1,1,0,0,0-1.1-1.11,2.32,2.32,0,0,0-1.26.36l-.2-.58a3,3,0,0,1,1.59-.43c1.48,0,1.84,1,1.84,2v1.81a6.81,6.81,0,0,0,.08,1.16Zm-.13-2.47c-1,0-2.05.15-2.05,1.09a.78.78,0,0,0,.83.84,1.2,1.2,0,0,0,1.17-.81.92.92,0,0,0,.05-.28Z"/><path class="cls-6" d="M366.13,384.65c0-.56,0-1,0-1.5h.77l0,1h0a1.45,1.45,0,0,1,1.34-1.06,1,1,0,0,1,.25,0v.83a1.28,1.28,0,0,0-.3,0A1.23,1.23,0,0,0,367,385a2.48,2.48,0,0,0,0,.41V388h-.87Z"/><path class="cls-6" d="M369.44,380.89h.88v3h0a1.68,1.68,0,0,1,.63-.61,1.81,1.81,0,0,1,.9-.25c.65,0,1.69.4,1.69,2.06V388h-.88V385.2c0-.77-.29-1.43-1.12-1.43a1.25,1.25,0,0,0-1.18.88,1.07,1.07,0,0,0-.06.42V388h-.88Z"/><path class="cls-6" d="M321.53,139.26a4.32,4.32,0,0,1-1.78.32,3.15,3.15,0,0,1-3.33-3.41,3.35,3.35,0,0,1,3.52-3.53,3.61,3.61,0,0,1,1.6.3l-.21.71a3.17,3.17,0,0,0-1.36-.28,2.5,2.5,0,0,0-2.63,2.77,2.45,2.45,0,0,0,2.59,2.71,3.48,3.48,0,0,0,1.42-.28Z"/><path class="cls-6" d="M322.59,132.39h.88v3h0a1.63,1.63,0,0,1,.63-.62,1.81,1.81,0,0,1,.9-.25c.65,0,1.69.4,1.69,2.06v2.88h-.88V136.7c0-.78-.29-1.43-1.12-1.43a1.27,1.27,0,0,0-1.18.87,1.07,1.07,0,0,0-.06.42v2.92h-.88Z"/><path class="cls-6" d="M332.19,138.16c0,.5,0,.94,0,1.32h-.78l-.05-.79h0a1.82,1.82,0,0,1-1.6.9c-.76,0-1.67-.42-1.67-2.12v-2.82H329v2.67c0,.92.28,1.54,1.08,1.54a1.27,1.27,0,0,0,1.16-.8,1.29,1.29,0,0,0,.08-.45v-3h.88Z"/><path class="cls-6" d="M333.65,136.15c0-.56,0-1.05,0-1.5h.77l0,.95h0a1.45,1.45,0,0,1,1.34-1.06,1,1,0,0,1,.25,0v.83a1.32,1.32,0,0,0-.3,0,1.23,1.23,0,0,0-1.18,1.12,2.48,2.48,0,0,0,0,.41v2.58h-.87Z"/><path class="cls-6" d="M341,138.16c0,.5,0,.94,0,1.32h-.78l-.05-.79h0a1.82,1.82,0,0,1-1.6.9c-.76,0-1.67-.42-1.67-2.12v-2.82h.88v2.67c0,.92.28,1.54,1.08,1.54a1.27,1.27,0,0,0,1.16-.8,1.29,1.29,0,0,0,.08-.45v-3H341Z"/><path class="cls-6" d="M263.82,453.84a12.46,12.46,0,0,1,1.85-.14,3.86,3.86,0,0,1,2.73.84,3.1,3.1,0,0,1,1,2.41,3.56,3.56,0,0,1-1,2.62,4.15,4.15,0,0,1-3,1,14,14,0,0,1-1.58-.08Zm.87,6a5.49,5.49,0,0,0,.88,0,2.59,2.59,0,0,0,2.87-2.86,2.4,2.4,0,0,0-2.73-2.59,4.94,4.94,0,0,0-1,.09Z"/><path class="cls-6" d="M274.53,459.16c0,.5,0,.94,0,1.32h-.78l-.05-.79h0a1.82,1.82,0,0,1-1.6.9c-.76,0-1.67-.42-1.67-2.12v-2.82h.88v2.67c0,.92.28,1.54,1.08,1.54a1.27,1.27,0,0,0,1.16-.8,1.29,1.29,0,0,0,.08-.45v-3h.88Z"/><path class="cls-6" d="M276,457c0-.49,0-.9,0-1.3h.78l0,.79h0a1.79,1.79,0,0,1,1.6-.9c.67,0,1.71.4,1.71,2v2.89h-.88v-2.79c0-.78-.29-1.42-1.12-1.42a1.25,1.25,0,0,0-1.18.89,1.31,1.31,0,0,0-.06.41v2.91H276Z"/><path class="cls-6" d="M285.71,455.65c0,.35,0,.74,0,1.33v2.8A2.78,2.78,0,0,1,285,462a2.57,2.57,0,0,1-1.76.58,3.12,3.12,0,0,1-1.61-.4l.22-.67a2.73,2.73,0,0,0,1.42.38c.9,0,1.56-.47,1.56-1.69v-.54h0a1.73,1.73,0,0,1-1.54.81,2.16,2.16,0,0,1-2.06-2.36,2.32,2.32,0,0,1,2.18-2.56,1.61,1.61,0,0,1,1.51.84h0l0-.73Zm-.91,1.9a1.29,1.29,0,0,0-.05-.4,1.27,1.27,0,0,0-1.23-.92c-.84,0-1.44.71-1.44,1.82,0,.95.48,1.74,1.43,1.74a1.29,1.29,0,0,0,1.22-.9,1.53,1.53,0,0,0,.07-.47Z"/><path class="cls-6" d="M289.81,460.48l-.07-.61h0a1.8,1.8,0,0,1-1.48.72,1.38,1.38,0,0,1-1.48-1.39c0-1.17,1-1.8,2.91-1.8v-.1a1,1,0,0,0-1.1-1.11,2.32,2.32,0,0,0-1.26.36l-.2-.58a3,3,0,0,1,1.59-.43c1.48,0,1.84,1,1.84,2v1.81a6.81,6.81,0,0,0,.08,1.16Zm-.13-2.47c-1,0-2.05.15-2.05,1.09a.78.78,0,0,0,.83.84,1.2,1.2,0,0,0,1.17-.81.92.92,0,0,0,.05-.28Z"/><path class="cls-6" d="M292,457.15c0-.56,0-1,0-1.5h.77l0,1h0a1.45,1.45,0,0,1,1.34-1.06,1,1,0,0,1,.25,0v.83a1.28,1.28,0,0,0-.3,0,1.23,1.23,0,0,0-1.18,1.13,2.48,2.48,0,0,0,0,.41v2.58H292Z"/><path class="cls-6" d="M295.26,457.23c0-.62,0-1.12,0-1.58H296l0,.83h0a1.9,1.9,0,0,1,1.72-.94,2.19,2.19,0,0,1,2,2.45c0,1.74-1.06,2.6-2.2,2.6a1.7,1.7,0,0,1-1.49-.76h0v2.63h-.87Zm.87,1.28a2,2,0,0,0,0,.36,1.36,1.36,0,0,0,1.32,1c.93,0,1.47-.76,1.47-1.87,0-1-.51-1.8-1.44-1.8a1.4,1.4,0,0,0-1.33,1.09,1.59,1.59,0,0,0-.06.36Z"/><path class="cls-6" d="M305,459.16c0,.5,0,.94,0,1.32h-.78l-.05-.79h0a1.82,1.82,0,0,1-1.6.9c-.76,0-1.67-.42-1.67-2.12v-2.82h.88v2.67c0,.92.28,1.54,1.08,1.54a1.27,1.27,0,0,0,1.16-.8,1.29,1.29,0,0,0,.08-.45v-3H305Z"/><path class="cls-6" d="M306.46,457.15c0-.56,0-1,0-1.5h.77l0,1h0a1.45,1.45,0,0,1,1.34-1.06,1,1,0,0,1,.25,0v.83a1.28,1.28,0,0,0-.3,0,1.23,1.23,0,0,0-1.18,1.13,2.48,2.48,0,0,0,0,.41v2.58h-.87Z"/><path class="cls-6" d="M259.45,26.68a6.28,6.28,0,0,1-2.07.37,3.17,3.17,0,0,1-3.46-3.4,3.38,3.38,0,0,1,3.65-3.47,4.17,4.17,0,0,1,1.68.31l-.21.71a3.49,3.49,0,0,0-1.49-.29,2.52,2.52,0,0,0-2.71,2.7,2.47,2.47,0,0,0,2.6,2.72,2.84,2.84,0,0,0,1.16-.18v-2h-1.37v-.7h2.22Z"/><path class="cls-6" d="M263.51,27l-.07-.61h0a1.8,1.8,0,0,1-1.48.72,1.38,1.38,0,0,1-1.48-1.39c0-1.17,1-1.81,2.91-1.8v-.1a1,1,0,0,0-1.1-1.11,2.41,2.41,0,0,0-1.26.36l-.2-.58a3,3,0,0,1,1.59-.43c1.48,0,1.84,1,1.84,2v1.81a6.81,6.81,0,0,0,.08,1.16Zm-.13-2.47c-1,0-2.05.15-2.05,1.09a.78.78,0,0,0,.83.84,1.2,1.2,0,0,0,1.17-.81.92.92,0,0,0,.05-.28Z"/><path class="cls-6" d="M265.65,23.46c0-.5,0-.91,0-1.31h.78l.05.8h0a1.78,1.78,0,0,1,1.6-.91c.67,0,1.71.4,1.71,2.05V27h-.88V24.19c0-.77-.29-1.42-1.12-1.42a1.24,1.24,0,0,0-1.18.89,1.31,1.31,0,0,0-.06.41V27h-.88Z"/><path class="cls-6" d="M275.37,22.15c0,.35,0,.74,0,1.32v2.81a2.78,2.78,0,0,1-.69,2.21,2.57,2.57,0,0,1-1.76.58,3.12,3.12,0,0,1-1.61-.4l.22-.67a2.73,2.73,0,0,0,1.42.38c.9,0,1.56-.47,1.56-1.69v-.54h0a1.73,1.73,0,0,1-1.54.81,2.16,2.16,0,0,1-2.06-2.36A2.32,2.32,0,0,1,273,22a1.61,1.61,0,0,1,1.51.84h0l0-.73Zm-.91,1.9a1.29,1.29,0,0,0,0-.4,1.27,1.27,0,0,0-1.23-.92c-.84,0-1.44.71-1.44,1.82,0,.95.48,1.74,1.43,1.74a1.29,1.29,0,0,0,1.22-.9,1.53,1.53,0,0,0,.07-.47Z"/><path class="cls-6" d="M279.47,27l-.07-.61h0a1.8,1.8,0,0,1-1.48.72,1.38,1.38,0,0,1-1.48-1.39c0-1.17,1-1.81,2.91-1.8v-.1a1,1,0,0,0-1.1-1.11,2.41,2.41,0,0,0-1.26.36l-.2-.58a3,3,0,0,1,1.59-.43c1.48,0,1.84,1,1.84,2v1.81a6.81,6.81,0,0,0,.08,1.16Zm-.13-2.47c-1,0-2,.15-2,1.09a.78.78,0,0,0,.83.84,1.2,1.2,0,0,0,1.17-.81.92.92,0,0,0,0-.28Z"/><path class="cls-6" d="M281.61,23.46c0-.5,0-.91,0-1.31h.78l0,.8h0A1.78,1.78,0,0,1,284,22c.67,0,1.71.4,1.71,2.05V27h-.88V24.19c0-.77-.29-1.42-1.12-1.42a1.24,1.24,0,0,0-1.18.89,1.31,1.31,0,0,0-.06.41V27h-.88Z"/><path class="cls-6" d="M289.84,27l-.07-.61h0a1.8,1.8,0,0,1-1.48.72,1.38,1.38,0,0,1-1.48-1.39c0-1.17,1-1.81,2.91-1.8v-.1a1,1,0,0,0-1.1-1.11,2.41,2.41,0,0,0-1.26.36l-.2-.58a3,3,0,0,1,1.59-.43c1.48,0,1.84,1,1.84,2v1.81a6.81,6.81,0,0,0,.08,1.16Zm-.13-2.47c-1,0-2,.15-2,1.09a.78.78,0,0,0,.83.84,1.2,1.2,0,0,0,1.17-.81.92.92,0,0,0,0-.28Z"/><path class="cls-6" d="M296.15,22.15c0,.35,0,.74,0,1.32v2.81a2.78,2.78,0,0,1-.69,2.21,2.57,2.57,0,0,1-1.76.58,3.12,3.12,0,0,1-1.61-.4l.22-.67a2.73,2.73,0,0,0,1.42.38c.9,0,1.56-.47,1.56-1.69v-.54h0a1.73,1.73,0,0,1-1.54.81,2.16,2.16,0,0,1-2.06-2.36A2.32,2.32,0,0,1,293.81,22a1.61,1.61,0,0,1,1.51.84h0l0-.73Zm-.91,1.9a1.29,1.29,0,0,0-.05-.4,1.27,1.27,0,0,0-1.23-.92c-.84,0-1.44.71-1.44,1.82,0,.95.48,1.74,1.43,1.74a1.29,1.29,0,0,0,1.22-.9,1.53,1.53,0,0,0,.07-.47Z"/><path class="cls-6" d="M300.25,27l-.07-.61h0a1.8,1.8,0,0,1-1.48.72,1.38,1.38,0,0,1-1.48-1.39c0-1.17,1-1.81,2.91-1.8v-.1a1,1,0,0,0-1.1-1.11,2.41,2.41,0,0,0-1.26.36l-.2-.58a3,3,0,0,1,1.59-.43c1.48,0,1.84,1,1.84,2v1.81a6.81,6.81,0,0,0,.08,1.16Zm-.13-2.47c-1,0-2.05.15-2.05,1.09a.78.78,0,0,0,.83.84,1.2,1.2,0,0,0,1.17-.81.92.92,0,0,0,.05-.28Z"/><path class="cls-6" d="M302.39,23.65c0-.56,0-1,0-1.5h.77l0,1h0A1.45,1.45,0,0,1,304.53,22a1,1,0,0,1,.25,0v.83a1.32,1.32,0,0,0-.3,0A1.23,1.23,0,0,0,303.3,24a2.48,2.48,0,0,0,0,.41V27h-.87Z"/><path class="cls-6" d="M434.32,374.84a8.43,8.43,0,0,1,1.59-.14,2.79,2.79,0,0,1,1.85.49,1.41,1.41,0,0,1,.56,1.19,1.6,1.6,0,0,1-1.14,1.48h0a1.75,1.75,0,0,1,1.39,1.69,1.82,1.82,0,0,1-.57,1.35,3.39,3.39,0,0,1-2.33.63,10.17,10.17,0,0,1-1.35-.08Zm.87,2.76H436c.92,0,1.46-.48,1.46-1.13s-.6-1.1-1.48-1.1a3.73,3.73,0,0,0-.77.06Zm0,3.22a4.65,4.65,0,0,0,.73,0c.9,0,1.73-.33,1.73-1.31s-.79-1.3-1.74-1.3h-.72Z"/><path class="cls-6" d="M442.39,381.48l-.07-.61h0a1.8,1.8,0,0,1-1.48.72,1.38,1.38,0,0,1-1.48-1.39c0-1.17,1-1.8,2.91-1.8v-.1a1,1,0,0,0-1.1-1.11,2.32,2.32,0,0,0-1.26.36l-.2-.58a3,3,0,0,1,1.59-.43c1.48,0,1.84,1,1.84,2v1.81a6.81,6.81,0,0,0,.08,1.16Zm-.13-2.47c-1,0-2.05.15-2.05,1.09a.78.78,0,0,0,.83.84,1.2,1.2,0,0,0,1.17-.81.92.92,0,0,0,.05-.28Z"/><path class="cls-6" d="M444.53,378.15c0-.56,0-1,0-1.5h.77l0,1h0a1.45,1.45,0,0,1,1.34-1.06,1,1,0,0,1,.25,0v.83a1.28,1.28,0,0,0-.3,0,1.23,1.23,0,0,0-1.18,1.13,2.48,2.48,0,0,0,0,.41v2.58h-.87Z"/><path class="cls-6" d="M450.43,381.48l-.07-.61h0a1.8,1.8,0,0,1-1.48.72,1.38,1.38,0,0,1-1.48-1.39c0-1.17,1-1.8,2.91-1.8v-.1a1,1,0,0,0-1.1-1.11,2.32,2.32,0,0,0-1.26.36l-.2-.58a3,3,0,0,1,1.59-.43c1.48,0,1.84,1,1.84,2v1.81a6.81,6.81,0,0,0,.08,1.16ZM450.3,379c-1,0-2.05.15-2.05,1.09a.78.78,0,0,0,.83.84,1.2,1.2,0,0,0,1.17-.81.92.92,0,0,0,.05-.28Z"/><path class="cls-6" d="M452.57,378c0-.49,0-.9,0-1.3h.78l.05.79h0a1.79,1.79,0,0,1,1.6-.9c.67,0,1.71.4,1.71,2v2.89h-.88v-2.79c0-.78-.29-1.42-1.12-1.42a1.25,1.25,0,0,0-1.18.89,1.31,1.31,0,0,0-.06.41v2.91h-.88Z"/><path class="cls-6" d="M263.69,46.25v2.82H267V46.25h.88V53H267V49.82h-3.26V53h-.87V46.25Z"/><path class="cls-6" d="M272,53l-.07-.61h0a1.8,1.8,0,0,1-1.48.72,1.38,1.38,0,0,1-1.48-1.39c0-1.17,1-1.81,2.91-1.8v-.1a1,1,0,0,0-1.1-1.11,2.41,2.41,0,0,0-1.26.36l-.2-.58a3,3,0,0,1,1.59-.43c1.48,0,1.84,1,1.84,2v1.81a6.81,6.81,0,0,0,.08,1.16Zm-.13-2.47c-1,0-2.05.15-2.05,1.09a.78.78,0,0,0,.83.84,1.2,1.2,0,0,0,1.17-.81.92.92,0,0,0,.05-.28Z"/><path class="cls-6" d="M274.13,49.46c0-.5,0-.91,0-1.31h.78l.05.8h0a1.78,1.78,0,0,1,1.6-.91c.67,0,1.71.4,1.71,2.05V53h-.88V50.19c0-.77-.29-1.42-1.12-1.42a1.24,1.24,0,0,0-1.18.89,1.31,1.31,0,0,0-.06.41V53h-.88Z"/><path class="cls-6" d="M283.73,51.66c0,.5,0,.94,0,1.32H283l-.05-.79h0a1.82,1.82,0,0,1-1.6.9c-.76,0-1.67-.42-1.67-2.12V48.15h.88v2.67c0,.92.28,1.54,1.08,1.54a1.27,1.27,0,0,0,1.16-.8,1.29,1.29,0,0,0,.08-.45v-3h.88Z"/><path class="cls-6" d="M285.19,49.46c0-.5,0-.91,0-1.31h.77l0,.78h0a1.67,1.67,0,0,1,1.52-.89,1.44,1.44,0,0,1,1.37,1h0a2.07,2.07,0,0,1,.54-.62,1.65,1.65,0,0,1,1.07-.34c.64,0,1.59.42,1.59,2.09V53h-.86V50.24c0-.92-.34-1.48-1.05-1.48a1.14,1.14,0,0,0-1,.79,1.45,1.45,0,0,0-.07.44v3h-.86v-2.9c0-.76-.34-1.32-1-1.32a1.19,1.19,0,0,0-1.09.87,1.21,1.21,0,0,0-.07.43V53h-.86Z"/><path class="cls-6" d="M296.21,53l-.07-.61h0a1.8,1.8,0,0,1-1.48.72,1.38,1.38,0,0,1-1.48-1.39c0-1.17,1-1.81,2.91-1.8v-.1a1,1,0,0,0-1.1-1.11,2.41,2.41,0,0,0-1.26.36l-.2-.58a3,3,0,0,1,1.59-.43c1.48,0,1.84,1,1.84,2v1.81A6.81,6.81,0,0,0,297,53Zm-.13-2.47c-1,0-2.05.15-2.05,1.09a.78.78,0,0,0,.83.84,1.2,1.2,0,0,0,1.17-.81.92.92,0,0,0,.05-.28Z"/><path class="cls-6" d="M298.35,49.46c0-.5,0-.91,0-1.31h.78l.05.8h0a1.78,1.78,0,0,1,1.6-.91c.67,0,1.71.4,1.71,2.05V53h-.88V50.19c0-.77-.29-1.42-1.12-1.42a1.24,1.24,0,0,0-1.18.89,1.31,1.31,0,0,0-.06.41V53h-.88Z"/><path class="cls-6" d="M308.07,48.15c0,.35,0,.74,0,1.32v2.81a2.78,2.78,0,0,1-.69,2.21,2.57,2.57,0,0,1-1.76.58,3.12,3.12,0,0,1-1.61-.4l.22-.67a2.73,2.73,0,0,0,1.42.38c.9,0,1.56-.47,1.56-1.69v-.54h0a1.73,1.73,0,0,1-1.54.81,2.16,2.16,0,0,1-2.06-2.36A2.32,2.32,0,0,1,305.73,48a1.61,1.61,0,0,1,1.51.84h0l0-.73Zm-.91,1.9a1.29,1.29,0,0,0-.05-.4,1.27,1.27,0,0,0-1.23-.92c-.84,0-1.44.71-1.44,1.82,0,1,.48,1.74,1.43,1.74a1.29,1.29,0,0,0,1.22-.9,1.53,1.53,0,0,0,.07-.47Z"/><path class="cls-6" d="M312.17,53l-.07-.61h0a1.8,1.8,0,0,1-1.48.72,1.38,1.38,0,0,1-1.48-1.39c0-1.17,1-1.81,2.91-1.8v-.1a1,1,0,0,0-1.1-1.11,2.41,2.41,0,0,0-1.26.36l-.2-.58a3,3,0,0,1,1.59-.43c1.48,0,1.84,1,1.84,2v1.81A6.81,6.81,0,0,0,313,53ZM312,50.51c-1,0-2.05.15-2.05,1.09a.78.78,0,0,0,.83.84,1.2,1.2,0,0,0,1.17-.81.92.92,0,0,0,.05-.28Z"/><path class="cls-6" d="M314.31,49.65c0-.56,0-1,0-1.5H315l0,1h0A1.45,1.45,0,0,1,316.45,48a1,1,0,0,1,.25,0v.83a1.32,1.32,0,0,0-.3,0A1.23,1.23,0,0,0,315.22,50a2.48,2.48,0,0,0,0,.41V53h-.87Z"/><path class="cls-6" d="M317.62,45.89h.88v3h0a1.63,1.63,0,0,1,.63-.62,1.81,1.81,0,0,1,.9-.25c.65,0,1.69.4,1.69,2.06V53h-.88V50.2c0-.78-.29-1.43-1.12-1.43a1.27,1.27,0,0,0-1.18.87,1.07,1.07,0,0,0-.06.42V53h-.88Z"/><path class="cls-6" d="M45.2,226.25h.87v4.5c0,1.79-.88,2.34-2,2.34a2.82,2.82,0,0,1-.93-.16l.13-.71a2.08,2.08,0,0,0,.73.13c.78,0,1.24-.35,1.24-1.67Z"/><path class="cls-6" d="M50.17,233l-.07-.61h0a1.8,1.8,0,0,1-1.48.72,1.38,1.38,0,0,1-1.48-1.39c0-1.17,1-1.81,2.91-1.8v-.1a1,1,0,0,0-1.1-1.11,2.41,2.41,0,0,0-1.26.36l-.2-.58a3,3,0,0,1,1.59-.43c1.48,0,1.84,1,1.84,2v1.81A6.81,6.81,0,0,0,51,233ZM50,230.51c-1,0-2,.15-2,1.09a.78.78,0,0,0,.83.84,1.2,1.2,0,0,0,1.17-.81.92.92,0,0,0,0-.28Z"/><path class="cls-6" d="M53.29,226.79a.55.55,0,0,1-1.09,0,.54.54,0,0,1,.55-.55A.52.52,0,0,1,53.29,226.79Zm-1,6.19v-4.83h.88V233Z"/><path class="cls-6" d="M54.53,232.08a2.31,2.31,0,0,0,1.16.35c.64,0,.94-.32.94-.72s-.25-.65-.9-.89c-.87-.31-1.28-.79-1.28-1.36A1.49,1.49,0,0,1,56.12,228a2.42,2.42,0,0,1,1.19.3l-.22.64a1.88,1.88,0,0,0-1-.28c-.52,0-.81.3-.81.66s.29.57.92.81c.84.32,1.27.74,1.27,1.46s-.66,1.45-1.81,1.45a2.76,2.76,0,0,1-1.36-.33Z"/><path class="cls-6" d="M61.29,233l-.07-.61h0a1.8,1.8,0,0,1-1.48.72,1.38,1.38,0,0,1-1.48-1.39c0-1.17,1-1.81,2.91-1.8v-.1a1,1,0,0,0-1.1-1.11,2.41,2.41,0,0,0-1.26.36l-.2-.58a3,3,0,0,1,1.59-.43c1.48,0,1.84,1,1.84,2v1.81a6.81,6.81,0,0,0,.08,1.16Zm-.13-2.47c-1,0-2,.15-2,1.09a.78.78,0,0,0,.83.84,1.2,1.2,0,0,0,1.17-.81.92.92,0,0,0,0-.28Z"/><path class="cls-6" d="M63.43,225.89h.88V233h-.88Z"/><path class="cls-6" d="M65.79,229.46c0-.5,0-.91,0-1.31h.77l0,.78h0a1.67,1.67,0,0,1,1.52-.89,1.44,1.44,0,0,1,1.37,1h0a2.07,2.07,0,0,1,.54-.62,1.65,1.65,0,0,1,1.07-.34c.64,0,1.59.42,1.59,2.09V233h-.86v-2.74c0-.92-.34-1.48-1-1.48a1.14,1.14,0,0,0-1,.79,1.45,1.45,0,0,0-.07.44v3h-.86v-2.9c0-.76-.34-1.32-1-1.32a1.19,1.19,0,0,0-1.09.87,1.21,1.21,0,0,0-.07.43V233h-.86Z"/><path class="cls-6" d="M74.62,230.72a1.55,1.55,0,0,0,1.66,1.68,3.18,3.18,0,0,0,1.34-.25l.15.63a3.92,3.92,0,0,1-1.61.3,2.25,2.25,0,0,1-2.38-2.44,2.35,2.35,0,0,1,2.27-2.6,2,2,0,0,1,2,2.27,3.32,3.32,0,0,1,0,.41Zm2.58-.63A1.24,1.24,0,0,0,76,228.67a1.45,1.45,0,0,0-1.35,1.42Z"/><path class="cls-6" d="M79.14,229.65c0-.56,0-1.05,0-1.5h.77l0,.95h0A1.45,1.45,0,0,1,81.28,228a1,1,0,0,1,.25,0v.83a1.32,1.32,0,0,0-.3,0A1.23,1.23,0,0,0,80.05,230a2.48,2.48,0,0,0,0,.41V233h-.87Z"/><path class="cls-6" d="M201.7,344.25h.87v4.5c0,1.79-.88,2.34-2,2.34a2.82,2.82,0,0,1-.93-.16l.13-.71a2.08,2.08,0,0,0,.73.13c.78,0,1.24-.35,1.24-1.67Z"/><path class="cls-6" d="M206.67,351l-.07-.61h0a1.8,1.8,0,0,1-1.48.72,1.38,1.38,0,0,1-1.48-1.39c0-1.17,1-1.8,2.91-1.8v-.1a1,1,0,0,0-1.1-1.11,2.32,2.32,0,0,0-1.26.36l-.2-.58a3,3,0,0,1,1.59-.43c1.48,0,1.84,1,1.84,2v1.81a6.81,6.81,0,0,0,.08,1.16Zm-.13-2.47c-1,0-2,.15-2,1.09a.78.78,0,0,0,.83.84,1.2,1.2,0,0,0,1.17-.81.92.92,0,0,0,0-.28Z"/><path class="cls-6" d="M208.81,343.89h.88V351h-.88Z"/><path class="cls-6" d="M215.55,348.52a2.37,2.37,0,0,1-2.41,2.57,2.3,2.3,0,0,1-2.32-2.49,2.35,2.35,0,0,1,2.4-2.56A2.29,2.29,0,0,1,215.55,348.52Zm-3.84.05c0,1.06.61,1.86,1.47,1.86s1.47-.79,1.47-1.88c0-.82-.41-1.86-1.45-1.86S211.71,347.65,211.71,348.57Z"/><path class="cls-6" d="M216.66,347.65c0-.56,0-1,0-1.5h.77l0,1h0A1.45,1.45,0,0,1,218.8,346a1,1,0,0,1,.25,0v.83a1.28,1.28,0,0,0-.3,0,1.23,1.23,0,0,0-1.18,1.13,2.48,2.48,0,0,0,0,.41V351h-.87Z"/><path class="cls-6" d="M427.7,404.25h.87v4.5c0,1.79-.88,2.34-2,2.34a2.82,2.82,0,0,1-.93-.16l.13-.71a2.08,2.08,0,0,0,.73.13c.78,0,1.24-.35,1.24-1.67Z"/><path class="cls-6" d="M430,403.89h.88v3h0a1.68,1.68,0,0,1,.63-.61,1.81,1.81,0,0,1,.9-.25c.65,0,1.69.4,1.69,2.06V411h-.88V408.2c0-.77-.29-1.43-1.12-1.43a1.25,1.25,0,0,0-1.18.88,1.07,1.07,0,0,0-.06.42V411H430Z"/><path class="cls-6" d="M438.22,411l-.07-.61h0a1.8,1.8,0,0,1-1.48.72,1.38,1.38,0,0,1-1.48-1.39c0-1.17,1-1.8,2.91-1.8v-.1a1,1,0,0,0-1.1-1.11,2.32,2.32,0,0,0-1.26.36l-.2-.58a3,3,0,0,1,1.59-.43c1.48,0,1.84,1,1.84,2v1.81A6.81,6.81,0,0,0,439,411Zm-.13-2.47c-1,0-2,.15-2,1.09a.78.78,0,0,0,.83.84,1.2,1.2,0,0,0,1.17-.81.92.92,0,0,0,0-.28Z"/><path class="cls-6" d="M440.36,403.89h.88V411h-.88Z"/><path class="cls-6" d="M445.4,411l-.07-.61h0a1.8,1.8,0,0,1-1.48.72,1.38,1.38,0,0,1-1.48-1.39c0-1.17,1-1.8,2.91-1.8v-.1a1,1,0,0,0-1.1-1.11,2.32,2.32,0,0,0-1.26.36l-.2-.58a3,3,0,0,1,1.59-.43c1.48,0,1.84,1,1.84,2v1.81a6.81,6.81,0,0,0,.08,1.16Zm-.13-2.47c-1,0-2,.15-2,1.09a.78.78,0,0,0,.83.84,1.2,1.2,0,0,0,1.17-.81.92.92,0,0,0,0-.28Z"/><path class="cls-6" d="M447.81,406.15l.64,2.45c.14.54.27,1,.36,1.54h0c.11-.49.27-1,.43-1.53l.79-2.46h.74l.75,2.41c.18.58.32,1.09.43,1.58h0a14.55,14.55,0,0,1,.37-1.57l.69-2.42h.87L452.38,411h-.8l-.74-2.31c-.17-.54-.31-1-.43-1.58h0a14.75,14.75,0,0,1-.44,1.59l-.78,2.3h-.8l-1.46-4.83Z"/><path class="cls-6" d="M457.46,411l-.07-.61h0a1.8,1.8,0,0,1-1.48.72,1.38,1.38,0,0,1-1.48-1.39c0-1.17,1-1.8,2.91-1.8v-.1a1,1,0,0,0-1.1-1.11,2.32,2.32,0,0,0-1.26.36l-.2-.58a3,3,0,0,1,1.59-.43c1.48,0,1.84,1,1.84,2v1.81a6.81,6.81,0,0,0,.08,1.16Zm-.13-2.47c-1,0-2.05.15-2.05,1.09a.78.78,0,0,0,.83.84,1.2,1.2,0,0,0,1.17-.81.92.92,0,0,0,.05-.28Z"/><path class="cls-6" d="M459.6,407.65c0-.56,0-1,0-1.5h.77l0,1h0a1.45,1.45,0,0,1,1.34-1.06,1,1,0,0,1,.25,0v.83a1.28,1.28,0,0,0-.3,0,1.23,1.23,0,0,0-1.18,1.13,2.48,2.48,0,0,0,0,.41V411h-.87Z"/><path class="cls-6" d="M364.2,137.25h.87v4.5c0,1.79-.88,2.34-2,2.34a2.82,2.82,0,0,1-.93-.16l.13-.71a2.08,2.08,0,0,0,.73.13c.78,0,1.24-.35,1.24-1.67Z"/><path class="cls-6" d="M366.49,136.89h.88v3h0a1.63,1.63,0,0,1,.63-.62,1.81,1.81,0,0,1,.9-.25c.65,0,1.69.4,1.69,2.06V144h-.88V141.2c0-.78-.29-1.43-1.12-1.43a1.27,1.27,0,0,0-1.18.87,1.07,1.07,0,0,0-.06.42V144h-.88Z"/><path class="cls-6" d="M376.09,142.66c0,.5,0,.94,0,1.32h-.78l-.05-.79h0a1.82,1.82,0,0,1-1.6.9c-.76,0-1.67-.42-1.67-2.12v-2.82h.88v2.67c0,.92.28,1.54,1.08,1.54a1.27,1.27,0,0,0,1.16-.8,1.29,1.29,0,0,0,.08-.45v-3h.88Z"/><path class="cls-6" d="M377.55,140.46c0-.5,0-.91,0-1.31h.78l0,.8h0A1.78,1.78,0,0,1,380,139c.67,0,1.71.4,1.71,2.05V144h-.88v-2.79c0-.77-.29-1.42-1.12-1.42a1.24,1.24,0,0,0-1.18.89,1.31,1.31,0,0,0-.06.41V144h-.88Z"/><path class="cls-6" d="M381.92,145.38a1.42,1.42,0,0,0,1-.37c.24-.28.33-.66.33-1.82v-4h.88v4.38a2.65,2.65,0,0,1-.58,2,2.23,2.23,0,0,1-1.5.55Zm2.27-7.59a.52.52,0,0,1-.55.54.53.53,0,0,1-.54-.54.54.54,0,0,1,.56-.55A.52.52,0,0,1,384.19,137.79Z"/><path class="cls-6" d="M385.53,136.89h.88v3h0a1.63,1.63,0,0,1,.63-.62,1.81,1.81,0,0,1,.9-.25c.65,0,1.69.4,1.69,2.06V144h-.88V141.2c0-.78-.29-1.43-1.12-1.43a1.27,1.27,0,0,0-1.18.87,1.07,1.07,0,0,0-.06.42V144h-.88Z"/><path class="cls-6" d="M395.13,142.66c0,.5,0,.94,0,1.32h-.78l-.05-.79h0a1.82,1.82,0,0,1-1.6.9c-.76,0-1.67-.42-1.67-2.12v-2.82h.88v2.67c0,.92.28,1.54,1.08,1.54a1.27,1.27,0,0,0,1.16-.8,1.29,1.29,0,0,0,.08-.45v-3h.88Z"/><path class="cls-6" d="M396.59,140.46c0-.5,0-.91,0-1.31h.78l.05.8h0A1.78,1.78,0,0,1,399,139c.67,0,1.71.4,1.71,2.05V144h-.88v-2.79c0-.77-.29-1.42-1.12-1.42a1.24,1.24,0,0,0-1.18.89,1.31,1.31,0,0,0-.06.41V144h-.88Z"/><path class="cls-6" d="M406.19,142.66c0,.5,0,.94,0,1.32h-.78l-.05-.79h0a1.82,1.82,0,0,1-1.6.9c-.76,0-1.67-.42-1.67-2.12v-2.82H403v2.67c0,.92.28,1.54,1.08,1.54a1.27,1.27,0,0,0,1.16-.8,1.29,1.29,0,0,0,.08-.45v-3h.88Z"/><path class="cls-6" d="M228.7,275.25h.87v4.5c0,1.79-.88,2.34-2,2.34a2.82,2.82,0,0,1-.93-.16l.13-.71a2.08,2.08,0,0,0,.73.13c.78,0,1.24-.35,1.24-1.67Z"/><path class="cls-6" d="M235.37,279.52a2.37,2.37,0,0,1-2.41,2.57,2.3,2.3,0,0,1-2.32-2.49A2.35,2.35,0,0,1,233,277,2.29,2.29,0,0,1,235.37,279.52Zm-3.84.05c0,1.06.61,1.86,1.47,1.86s1.47-.79,1.47-1.88c0-.82-.41-1.86-1.45-1.86S231.53,278.65,231.53,279.57Z"/><path class="cls-6" d="M240.66,274.89v5.84c0,.43,0,.92,0,1.25h-.79l0-.84h0a1.79,1.79,0,0,1-1.65.95,2.21,2.21,0,0,1-2.07-2.46A2.31,2.31,0,0,1,238.3,277a1.62,1.62,0,0,1,1.46.74h0v-2.89Zm-.88,4.22a1.61,1.61,0,0,0,0-.37,1.3,1.3,0,0,0-1.27-1c-.91,0-1.45.8-1.45,1.86s.48,1.79,1.43,1.79a1.32,1.32,0,0,0,1.29-1.05,1.53,1.53,0,0,0,0-.38Z"/><path class="cls-6" d="M242.12,274.89H243v3h0a1.68,1.68,0,0,1,.63-.61,1.81,1.81,0,0,1,.9-.25c.65,0,1.69.4,1.69,2.06V282h-.88V279.2c0-.77-.29-1.43-1.12-1.43a1.25,1.25,0,0,0-1.18.88,1.07,1.07,0,0,0-.06.42V282h-.88Z"/><path class="cls-6" d="M247.67,278.73c0-.62,0-1.12,0-1.58h.79l0,.83h0a1.9,1.9,0,0,1,1.72-.94,2.19,2.19,0,0,1,2.05,2.45c0,1.74-1.06,2.6-2.2,2.6a1.7,1.7,0,0,1-1.49-.76h0V284h-.87Zm.87,1.28a2,2,0,0,0,0,.36,1.36,1.36,0,0,0,1.32,1c.93,0,1.47-.76,1.47-1.87,0-1-.51-1.8-1.44-1.8a1.4,1.4,0,0,0-1.33,1.09,1.59,1.59,0,0,0-.06.36Z"/><path class="cls-6" d="M257.41,280.66c0,.5,0,.94,0,1.32h-.78l-.05-.79h0a1.82,1.82,0,0,1-1.6.9c-.76,0-1.67-.42-1.67-2.12v-2.82h.88v2.67c0,.92.28,1.54,1.08,1.54a1.27,1.27,0,0,0,1.16-.8,1.29,1.29,0,0,0,.08-.45v-3h.88Z"/><path class="cls-6" d="M258.87,278.65c0-.56,0-1,0-1.5h.77l0,1h0A1.45,1.45,0,0,1,261,277a1,1,0,0,1,.25,0v.83a1.28,1.28,0,0,0-.3,0,1.23,1.23,0,0,0-1.18,1.13,2.48,2.48,0,0,0,0,.41V282h-.87Z"/><path class="cls-6" d="M407.82,358.25h.87v3.24h0c.18-.26.36-.5.53-.71l2.06-2.53h1.08L410,361.11l2.63,3.87h-1l-2.22-3.31-.64.74V365h-.87Z"/><path class="cls-6" d="M417.59,362.52a2.37,2.37,0,0,1-2.41,2.57,2.3,2.3,0,0,1-2.32-2.49,2.35,2.35,0,0,1,2.4-2.56A2.29,2.29,0,0,1,417.59,362.52Zm-3.84.05c0,1.06.61,1.86,1.47,1.86s1.47-.79,1.47-1.88c0-.82-.41-1.86-1.45-1.86S413.75,361.65,413.75,362.57Z"/><path class="cls-6" d="M419.76,358.76v1.39H421v.67h-1.26v2.6c0,.6.17.94.66.94a2,2,0,0,0,.51-.06l0,.66a2.15,2.15,0,0,1-.78.12,1.22,1.22,0,0,1-.95-.37,1.79,1.79,0,0,1-.34-1.26v-2.63h-.75v-.67h.75V359Z"/><path class="cls-6" d="M424.69,365l-.07-.61h0a1.8,1.8,0,0,1-1.48.72,1.38,1.38,0,0,1-1.48-1.39c0-1.17,1-1.8,2.91-1.8v-.1a1,1,0,0,0-1.1-1.11,2.32,2.32,0,0,0-1.26.36l-.2-.58a3,3,0,0,1,1.59-.43c1.48,0,1.84,1,1.84,2v1.81a6.81,6.81,0,0,0,.08,1.16Zm-.13-2.47c-1,0-2.05.15-2.05,1.09a.78.78,0,0,0,.83.84,1.2,1.2,0,0,0,1.17-.81.92.92,0,0,0,.05-.28Z"/><path class="cls-6" d="M271.82,218v-6.73h.95l2.16,3.4a19.08,19.08,0,0,1,1.21,2.19h0c-.08-.9-.1-1.72-.1-2.76v-2.82h.82V218H276l-2.14-3.41a21.39,21.39,0,0,1-1.26-2.25h0c.05.85.07,1.65.07,2.77V218Z"/><path class="cls-6" d="M281.05,218l-.07-.61h0a1.8,1.8,0,0,1-1.48.72A1.38,1.38,0,0,1,278,216.7c0-1.17,1-1.81,2.91-1.8v-.1a1,1,0,0,0-1.1-1.11,2.41,2.41,0,0,0-1.26.36l-.2-.58a3,3,0,0,1,1.59-.43c1.48,0,1.84,1,1.84,2v1.81a6.81,6.81,0,0,0,.08,1.16Zm-.13-2.47c-1,0-2.05.15-2.05,1.09a.78.78,0,0,0,.83.84,1.2,1.2,0,0,0,1.17-.81.92.92,0,0,0,.05-.28Z"/><path class="cls-6" d="M287.36,213.15c0,.35,0,.74,0,1.32v2.81a2.78,2.78,0,0,1-.69,2.21,2.57,2.57,0,0,1-1.76.58,3.12,3.12,0,0,1-1.61-.4l.22-.67a2.73,2.73,0,0,0,1.42.38c.9,0,1.56-.47,1.56-1.69v-.54h0a1.73,1.73,0,0,1-1.54.81,2.16,2.16,0,0,1-2.06-2.36A2.32,2.32,0,0,1,285,213a1.61,1.61,0,0,1,1.51.84h0l0-.73Zm-.91,1.9a1.29,1.29,0,0,0-.05-.4,1.27,1.27,0,0,0-1.23-.92c-.84,0-1.44.71-1.44,1.82,0,.95.48,1.74,1.43,1.74a1.29,1.29,0,0,0,1.22-.9,1.53,1.53,0,0,0,.07-.47Z"/><path class="cls-6" d="M291.46,218l-.07-.61h0a1.8,1.8,0,0,1-1.48.72,1.38,1.38,0,0,1-1.48-1.39c0-1.17,1-1.81,2.91-1.8v-.1a1,1,0,0,0-1.1-1.11,2.41,2.41,0,0,0-1.26.36l-.2-.58a3,3,0,0,1,1.59-.43c1.48,0,1.84,1,1.84,2v1.81a6.81,6.81,0,0,0,.08,1.16Zm-.13-2.47c-1,0-2.05.15-2.05,1.09a.78.78,0,0,0,.83.84,1.2,1.2,0,0,0,1.17-.81.92.92,0,0,0,.05-.28Z"/><path class="cls-6" d="M297.65,216.66c0,.5,0,.94,0,1.32h-.78l-.05-.79h0a1.82,1.82,0,0,1-1.6.9c-.76,0-1.67-.42-1.67-2.12v-2.82h.88v2.67c0,.92.28,1.54,1.08,1.54a1.27,1.27,0,0,0,1.16-.8,1.29,1.29,0,0,0,.08-.45v-3h.88Z"/><path class="cls-6" d="M299.11,214.65c0-.56,0-1.05,0-1.5h.77l0,.95h0a1.45,1.45,0,0,1,1.34-1.06,1,1,0,0,1,.25,0v.83a1.32,1.32,0,0,0-.3,0A1.23,1.23,0,0,0,300,215a2.48,2.48,0,0,0,0,.41V218h-.87Z"/><path class="cls-6" d="M444.91,178.86l-.7,2.12h-.9l2.29-6.73h1L449,181H448l-.72-2.12Zm2.21-.68-.66-1.93c-.15-.44-.25-.84-.35-1.23h0c-.1.4-.21.81-.34,1.22l-.66,1.94Z"/><path class="cls-6" d="M449.88,173.89h.88V181h-.88Z"/><path class="cls-6" d="M452.59,176.15l.64,2.45c.14.54.27,1,.36,1.54h0c.11-.49.27-1,.43-1.53l.79-2.46h.74l.75,2.41c.18.58.32,1.09.43,1.58h0a14.55,14.55,0,0,1,.37-1.57l.69-2.42h.87L457.16,181h-.8l-.74-2.31c-.17-.54-.31-1-.43-1.58h0a14.75,14.75,0,0,1-.44,1.59L454,181h-.8l-1.46-4.83Z"/><path class="cls-6" d="M462.24,181l-.07-.61h0a1.8,1.8,0,0,1-1.48.72,1.38,1.38,0,0,1-1.48-1.39c0-1.17,1-1.81,2.91-1.8v-.1a1,1,0,0,0-1.1-1.11,2.41,2.41,0,0,0-1.26.36l-.2-.58a3,3,0,0,1,1.59-.43c1.48,0,1.84,1,1.84,2v1.81A6.81,6.81,0,0,0,463,181Zm-.13-2.47c-1,0-2.05.15-2.05,1.09a.78.78,0,0,0,.83.84,1.2,1.2,0,0,0,1.17-.81.92.92,0,0,0,.05-.28Z"/><path class="cls-6" d="M464.38,177.65c0-.56,0-1.05,0-1.5h.77l0,.95h0a1.45,1.45,0,0,1,1.34-1.06,1,1,0,0,1,.25,0v.83a1.32,1.32,0,0,0-.3,0,1.23,1.23,0,0,0-1.18,1.12,2.48,2.48,0,0,0,0,.41V181h-.87Z"/><path class="cls-6" d="M482.32,230.34a8.43,8.43,0,0,1,1.59-.14,2.79,2.79,0,0,1,1.85.49,1.41,1.41,0,0,1,.56,1.19,1.6,1.6,0,0,1-1.14,1.48v0a1.72,1.72,0,0,1,1.39,1.68,1.82,1.82,0,0,1-.57,1.35,3.39,3.39,0,0,1-2.33.63,10.17,10.17,0,0,1-1.35-.08Zm.87,2.76H484c.92,0,1.46-.48,1.46-1.13s-.6-1.1-1.48-1.1a3.73,3.73,0,0,0-.77.06Zm0,3.22a4.65,4.65,0,0,0,.73,0c.9,0,1.73-.33,1.73-1.31s-.79-1.3-1.74-1.3h-.72Z"/><path class="cls-6" d="M487.71,229.89h.88v3h0a1.63,1.63,0,0,1,.63-.62,1.81,1.81,0,0,1,.9-.25c.65,0,1.69.4,1.69,2.06V237H491V234.2c0-.78-.29-1.43-1.12-1.43a1.27,1.27,0,0,0-1.18.87,1.07,1.07,0,0,0-.06.42V237h-.88Z"/><path class="cls-6" d="M495.94,237l-.07-.61h0a1.8,1.8,0,0,1-1.48.72,1.38,1.38,0,0,1-1.48-1.39c0-1.17,1-1.81,2.91-1.8v-.1a1,1,0,0,0-1.1-1.11,2.41,2.41,0,0,0-1.26.36l-.2-.58a3,3,0,0,1,1.59-.43c1.48,0,1.84,1,1.84,2v1.81a6.81,6.81,0,0,0,.08,1.16Zm-.13-2.47c-1,0-2.05.15-2.05,1.09a.78.78,0,0,0,.83.84,1.2,1.2,0,0,0,1.17-.81.92.92,0,0,0,.05-.28Z"/><path class="cls-6" d="M498.08,233.65c0-.56,0-1.05,0-1.5h.77l0,.95h0a1.45,1.45,0,0,1,1.34-1.06,1,1,0,0,1,.25,0v.83a1.32,1.32,0,0,0-.3,0A1.23,1.23,0,0,0,499,234a2.48,2.48,0,0,0,0,.41V237h-.87Z"/><path class="cls-6" d="M504,237l-.07-.61h0a1.8,1.8,0,0,1-1.48.72,1.38,1.38,0,0,1-1.48-1.39c0-1.17,1-1.81,2.91-1.8v-.1a1,1,0,0,0-1.1-1.11,2.41,2.41,0,0,0-1.26.36l-.2-.58a3,3,0,0,1,1.59-.43c1.48,0,1.84,1,1.84,2v1.81a6.81,6.81,0,0,0,.08,1.16Zm-.13-2.47c-1,0-2.05.15-2.05,1.09a.78.78,0,0,0,.83.84,1.2,1.2,0,0,0,1.17-.81.92.92,0,0,0,.05-.28Z"/><path class="cls-6" d="M507.14,230.76v1.39h1.26v.67h-1.26v2.6c0,.6.17.94.66.94a2,2,0,0,0,.51-.06l0,.66a2.15,2.15,0,0,1-.78.12,1.22,1.22,0,0,1-.95-.37,1.79,1.79,0,0,1-.34-1.26v-2.63h-.75v-.67h.75V231Z"/><path class="cls-6" d="M509.39,233.72c0-.61,0-1.11,0-1.57h.79l0,.83h0a1.9,1.9,0,0,1,1.72-.94,2.19,2.19,0,0,1,2.05,2.45c0,1.74-1.06,2.6-2.2,2.6a1.7,1.7,0,0,1-1.49-.76h0V239h-.87Zm.87,1.29a2,2,0,0,0,0,.36,1.36,1.36,0,0,0,1.32,1c.93,0,1.47-.76,1.47-1.87s-.51-1.79-1.44-1.79a1.41,1.41,0,0,0-1.33,1.08,1.43,1.43,0,0,0-.06.36Z"/><path class="cls-6" d="M519.13,235.66c0,.5,0,.94,0,1.32h-.78l0-.79h0a1.82,1.82,0,0,1-1.6.9c-.76,0-1.67-.42-1.67-2.12v-2.82h.88v2.67c0,.92.28,1.54,1.08,1.54a1.27,1.27,0,0,0,1.16-.8,1.29,1.29,0,0,0,.08-.45v-3h.88Z"/><path class="cls-6" d="M520.59,233.65c0-.56,0-1.05,0-1.5h.77l0,.95h0a1.45,1.45,0,0,1,1.34-1.06,1,1,0,0,1,.25,0v.83a1.32,1.32,0,0,0-.3,0A1.23,1.23,0,0,0,521.5,234a2.48,2.48,0,0,0,0,.41V237h-.87Z"/><path class="cls-6" d="M435.82,224.84a12.46,12.46,0,0,1,1.85-.14,3.86,3.86,0,0,1,2.73.84,3.1,3.1,0,0,1,1,2.42,3.56,3.56,0,0,1-1,2.61,4.15,4.15,0,0,1-3,1,14,14,0,0,1-1.58-.08Zm.87,5.95a5.49,5.49,0,0,0,.88.05,2.59,2.59,0,0,0,2.87-2.86,2.4,2.4,0,0,0-2.73-2.59,4.94,4.94,0,0,0-1,.09Z"/><path class="cls-6" d="M445.13,231.48l-.07-.61h0a1.8,1.8,0,0,1-1.48.72,1.38,1.38,0,0,1-1.48-1.39c0-1.17,1-1.81,2.91-1.8v-.1a1,1,0,0,0-1.1-1.11,2.41,2.41,0,0,0-1.26.36l-.2-.58a3,3,0,0,1,1.59-.43c1.48,0,1.84,1,1.84,2v1.81a6.81,6.81,0,0,0,.08,1.16ZM445,229c-1,0-2.05.15-2.05,1.09a.78.78,0,0,0,.83.84,1.2,1.2,0,0,0,1.17-.81.92.92,0,0,0,.05-.28Z"/><path class="cls-6" d="M451.32,230.16c0,.5,0,.94,0,1.32h-.78l-.05-.79h0a1.82,1.82,0,0,1-1.6.9c-.76,0-1.67-.42-1.67-2.12v-2.82h.88v2.67c0,.92.28,1.54,1.08,1.54a1.27,1.27,0,0,0,1.16-.8,1.29,1.29,0,0,0,.08-.45v-3h.88Z"/><path class="cls-6" d="M452.66,230.58a2.31,2.31,0,0,0,1.16.35c.64,0,.94-.32.94-.72s-.25-.65-.9-.89c-.87-.31-1.28-.79-1.28-1.36a1.49,1.49,0,0,1,1.67-1.42,2.42,2.42,0,0,1,1.19.3l-.22.64a1.88,1.88,0,0,0-1-.28c-.52,0-.81.3-.81.66s.29.57.92.81c.84.32,1.27.74,1.27,1.46s-.66,1.45-1.81,1.45a2.76,2.76,0,0,1-1.36-.33Z"/><path class="cls-6" d="M459.42,231.48l-.07-.61h0a1.8,1.8,0,0,1-1.48.72,1.38,1.38,0,0,1-1.48-1.39c0-1.17,1-1.81,2.91-1.8v-.1a1,1,0,0,0-1.1-1.11,2.41,2.41,0,0,0-1.26.36l-.2-.58a3,3,0,0,1,1.59-.43c1.48,0,1.84,1,1.84,2v1.81a6.81,6.81,0,0,0,.08,1.16Zm-.13-2.47c-1,0-2.05.15-2.05,1.09a.78.78,0,0,0,.83.84,1.2,1.2,0,0,0,1.17-.81.92.92,0,0,0,.05-.28Z"/><path class="cls-6" d="M508.82,251.34a12.46,12.46,0,0,1,1.85-.14,3.86,3.86,0,0,1,2.73.84,3.1,3.1,0,0,1,1,2.41,3.56,3.56,0,0,1-1,2.62,4.15,4.15,0,0,1-3,1,14,14,0,0,1-1.58-.08Zm.87,6a5.49,5.49,0,0,0,.88,0,2.59,2.59,0,0,0,2.87-2.86,2.4,2.4,0,0,0-2.73-2.59,4.94,4.94,0,0,0-1,.09Z"/><path class="cls-6" d="M515.45,250.89h.88v3h0a1.68,1.68,0,0,1,.63-.61,1.81,1.81,0,0,1,.9-.25c.65,0,1.69.4,1.69,2.06V258h-.88V255.2c0-.77-.29-1.43-1.12-1.43a1.25,1.25,0,0,0-1.18.88,1.07,1.07,0,0,0-.06.42V258h-.88Z"/><path class="cls-6" d="M525.38,255.52a2.37,2.37,0,0,1-2.41,2.57,2.3,2.3,0,0,1-2.32-2.49,2.35,2.35,0,0,1,2.4-2.56A2.29,2.29,0,0,1,525.38,255.52Zm-3.84,0c0,1.06.61,1.86,1.47,1.86s1.47-.79,1.47-1.88c0-.82-.41-1.86-1.45-1.86S521.54,254.65,521.54,255.57Z"/><path class="cls-6" d="M526.49,250.89h.88V258h-.88Z"/><path class="cls-6" d="M528.85,254.73c0-.62,0-1.12,0-1.58h.79l0,.83h0a1.9,1.9,0,0,1,1.72-.94,2.19,2.19,0,0,1,2,2.45c0,1.74-1.06,2.6-2.2,2.6a1.7,1.7,0,0,1-1.49-.76h0V260h-.87Zm.87,1.28a2,2,0,0,0,0,.36,1.36,1.36,0,0,0,1.32,1c.93,0,1.47-.76,1.47-1.87s-.51-1.8-1.44-1.8a1.4,1.4,0,0,0-1.33,1.09,1.59,1.59,0,0,0-.06.36Z"/><path class="cls-6" d="M538.59,256.66c0,.5,0,.94,0,1.32h-.78l-.05-.79h0a1.82,1.82,0,0,1-1.6.9c-.76,0-1.67-.42-1.67-2.12v-2.82h.88v2.67c0,.92.28,1.54,1.08,1.54a1.27,1.27,0,0,0,1.16-.8,1.29,1.29,0,0,0,.08-.45v-3h.88Z"/><path class="cls-6" d="M540.05,254.65c0-.56,0-1.05,0-1.5h.77l0,.95h0a1.45,1.45,0,0,1,1.34-1.06,1,1,0,0,1,.25,0v.83a1.28,1.28,0,0,0-.3,0A1.23,1.23,0,0,0,541,255a2.48,2.48,0,0,0,0,.41V258h-.87Z"/><path class="cls-6" d="M484.32,260.25h.87v3.24h0c.18-.26.36-.5.53-.71l2.06-2.53h1.08l-2.44,2.86,2.63,3.87h-1l-2.22-3.31-.64.74V267h-.87Z"/><path class="cls-6" d="M492.55,267l-.07-.61h0a1.8,1.8,0,0,1-1.48.72,1.38,1.38,0,0,1-1.48-1.39c0-1.17,1-1.8,2.91-1.8v-.1a1,1,0,0,0-1.1-1.11,2.32,2.32,0,0,0-1.26.36l-.2-.58a3,3,0,0,1,1.59-.43c1.48,0,1.84,1,1.84,2v1.81a6.81,6.81,0,0,0,.08,1.16Zm-.13-2.47c-1,0-2.05.15-2.05,1.09a.78.78,0,0,0,.83.84,1.2,1.2,0,0,0,1.17-.81.92.92,0,0,0,.05-.28Z"/><path class="cls-6" d="M494.69,263.65c0-.56,0-1,0-1.5h.77l0,1h0a1.45,1.45,0,0,1,1.34-1.06,1,1,0,0,1,.25,0v.83a1.28,1.28,0,0,0-.3,0A1.23,1.23,0,0,0,495.6,264a2.48,2.48,0,0,0,0,.41V267h-.87Z"/><path class="cls-6" d="M500.59,267l-.07-.61h0a1.8,1.8,0,0,1-1.48.72,1.38,1.38,0,0,1-1.48-1.39c0-1.17,1-1.8,2.91-1.8v-.1a1,1,0,0,0-1.1-1.11,2.32,2.32,0,0,0-1.26.36l-.2-.58a3,3,0,0,1,1.59-.43c1.48,0,1.84,1,1.84,2v1.81a6.81,6.81,0,0,0,.08,1.16Zm-.13-2.47c-1,0-2,.15-2,1.09a.78.78,0,0,0,.83.84,1.2,1.2,0,0,0,1.17-.81.92.92,0,0,0,0-.28Z"/><path class="cls-6" d="M506.78,265.66c0,.5,0,.94,0,1.32H506l-.05-.79h0a1.82,1.82,0,0,1-1.6.9c-.76,0-1.67-.42-1.67-2.12v-2.82h.88v2.67c0,.92.28,1.54,1.08,1.54a1.27,1.27,0,0,0,1.16-.8,1.29,1.29,0,0,0,.08-.45v-3h.88Z"/><path class="cls-6" d="M508.24,259.89h.88V267h-.88Z"/><path class="cls-6" d="M511.58,260.79a.55.55,0,0,1-1.09,0,.54.54,0,0,1,.55-.55A.52.52,0,0,1,511.58,260.79Zm-1,6.19v-4.83h.88V267Z"/><path class="cls-6" d="M249.32,318.33a10.08,10.08,0,0,1,1.67-.13,2.77,2.77,0,0,1,1.89.56,1.81,1.81,0,0,1,.59,1.41,2,2,0,0,1-.52,1.44,2.83,2.83,0,0,1-2.06.73,3,3,0,0,1-.7-.06V325h-.87Zm.87,3.24a2.86,2.86,0,0,0,.72.08c1.05,0,1.69-.51,1.69-1.44s-.63-1.32-1.59-1.32a3.65,3.65,0,0,0-.82.07Z"/><path class="cls-6" d="M257,325l-.07-.61h0a1.8,1.8,0,0,1-1.48.72A1.38,1.38,0,0,1,254,323.7c0-1.17,1-1.8,2.91-1.8v-.1a1,1,0,0,0-1.1-1.11,2.32,2.32,0,0,0-1.26.36l-.2-.58a3,3,0,0,1,1.59-.43c1.48,0,1.84,1,1.84,2v1.81a6.81,6.81,0,0,0,.08,1.16Zm-.13-2.47c-1,0-2,.15-2,1.09a.78.78,0,0,0,.83.84,1.2,1.2,0,0,0,1.17-.81.92.92,0,0,0,0-.28Z"/><path class="cls-6" d="M259.17,317.89h.88V325h-.88Z"/><path class="cls-6" d="M262.51,318.79a.55.55,0,0,1-1.09,0,.54.54,0,0,1,.55-.55A.52.52,0,0,1,262.51,318.79Zm-1,6.19v-4.83h.88V325Z"/><path class="cls-6" d="M274.32,427.83a10.08,10.08,0,0,1,1.67-.13,2.77,2.77,0,0,1,1.89.56,1.81,1.81,0,0,1,.59,1.41,2,2,0,0,1-.52,1.44,2.83,2.83,0,0,1-2.06.73,3,3,0,0,1-.7-.06v2.7h-.87Zm.87,3.24a2.86,2.86,0,0,0,.72.08c1,0,1.69-.51,1.69-1.44s-.63-1.32-1.59-1.32a3.65,3.65,0,0,0-.82.07Z"/><path class="cls-6" d="M279.45,431.15c0-.56,0-1,0-1.5h.77l0,1h0a1.45,1.45,0,0,1,1.34-1.06,1,1,0,0,1,.25,0v.83a1.28,1.28,0,0,0-.3,0,1.23,1.23,0,0,0-1.18,1.13,2.48,2.48,0,0,0,0,.41v2.58h-.87Z"/><path class="cls-6" d="M285.35,434.48l-.07-.61h0a1.8,1.8,0,0,1-1.48.72,1.38,1.38,0,0,1-1.48-1.39c0-1.17,1-1.8,2.91-1.8v-.1a1,1,0,0,0-1.1-1.11,2.32,2.32,0,0,0-1.26.36l-.2-.58a3,3,0,0,1,1.59-.43c1.48,0,1.84,1,1.84,2v1.81a6.81,6.81,0,0,0,.08,1.16Zm-.13-2.47c-1,0-2.05.15-2.05,1.09a.78.78,0,0,0,.83.84,1.2,1.2,0,0,0,1.17-.81.92.92,0,0,0,.05-.28Z"/><path class="cls-6" d="M288.51,428.26v1.39h1.26v.67h-1.26v2.6c0,.6.17.94.66.94a2,2,0,0,0,.51-.06l0,.66a2.15,2.15,0,0,1-.78.12,1.22,1.22,0,0,1-.95-.37,1.79,1.79,0,0,1-.34-1.26v-2.63h-.75v-.67h.75v-1.16Z"/><path class="cls-6" d="M293.44,434.48l-.07-.61h0a1.8,1.8,0,0,1-1.48.72,1.38,1.38,0,0,1-1.48-1.39c0-1.17,1-1.8,2.91-1.8v-.1a1,1,0,0,0-1.1-1.11,2.32,2.32,0,0,0-1.26.36l-.2-.58a3,3,0,0,1,1.59-.43c1.48,0,1.84,1,1.84,2v1.81a6.81,6.81,0,0,0,.08,1.16Zm-.13-2.47c-1,0-2.05.15-2.05,1.09a.78.78,0,0,0,.83.84,1.2,1.2,0,0,0,1.17-.81.92.92,0,0,0,.05-.28Z"/><path class="cls-6" d="M295.58,431.23c0-.62,0-1.12,0-1.58h.79l0,.83h0a1.9,1.9,0,0,1,1.72-.94,2.19,2.19,0,0,1,2.05,2.45c0,1.74-1.06,2.6-2.2,2.6a1.7,1.7,0,0,1-1.49-.76h0v2.63h-.87Zm.87,1.28a2,2,0,0,0,0,.36,1.36,1.36,0,0,0,1.32,1c.93,0,1.47-.76,1.47-1.87,0-1-.51-1.8-1.44-1.8a1.4,1.4,0,0,0-1.33,1.09,1.59,1.59,0,0,0-.06.36Z"/><path class="cls-6" d="M305.44,429.65c0,.35,0,.74,0,1.33v2.8a2.78,2.78,0,0,1-.69,2.21,2.57,2.57,0,0,1-1.76.58,3.12,3.12,0,0,1-1.61-.4l.22-.67a2.73,2.73,0,0,0,1.42.38c.9,0,1.56-.47,1.56-1.69v-.54h0a1.73,1.73,0,0,1-1.54.81,2.16,2.16,0,0,1-2.06-2.36,2.32,2.32,0,0,1,2.18-2.56,1.61,1.61,0,0,1,1.51.84h0l0-.73Zm-.91,1.9a1.29,1.29,0,0,0,0-.4,1.27,1.27,0,0,0-1.23-.92c-.84,0-1.44.71-1.44,1.82,0,.95.48,1.74,1.43,1.74a1.29,1.29,0,0,0,1.22-.9,1.53,1.53,0,0,0,.07-.47Z"/><path class="cls-6" d="M309.54,434.48l-.07-.61h0a1.8,1.8,0,0,1-1.48.72,1.38,1.38,0,0,1-1.48-1.39c0-1.17,1-1.8,2.91-1.8v-.1a1,1,0,0,0-1.1-1.11,2.32,2.32,0,0,0-1.26.36l-.2-.58a3,3,0,0,1,1.59-.43c1.48,0,1.84,1,1.84,2v1.81a6.81,6.81,0,0,0,.08,1.16Zm-.13-2.47c-1,0-2.05.15-2.05,1.09a.78.78,0,0,0,.83.84,1.2,1.2,0,0,0,1.17-.81.92.92,0,0,0,.05-.28Z"/><path class="cls-6" d="M311.68,431.15c0-.56,0-1,0-1.5h.77l0,1h0a1.45,1.45,0,0,1,1.34-1.06,1,1,0,0,1,.25,0v.83a1.28,1.28,0,0,0-.3,0,1.23,1.23,0,0,0-1.18,1.13,2.48,2.48,0,0,0,0,.41v2.58h-.87Z"/><path class="cls-6" d="M315,427.39h.88v3h0a1.68,1.68,0,0,1,.63-.61,1.81,1.81,0,0,1,.9-.25c.65,0,1.69.4,1.69,2.06v2.88h-.88V431.7c0-.77-.29-1.43-1.12-1.43a1.25,1.25,0,0,0-1.18.88,1.07,1.07,0,0,0-.06.42v2.91H315Z"/><path class="cls-6" d="M271.82,355.34a9.06,9.06,0,0,1,1.67-.14,2.76,2.76,0,0,1,1.95.55A1.68,1.68,0,0,1,276,357a1.76,1.76,0,0,1-1.27,1.71v0a1.65,1.65,0,0,1,1,1.35,10.73,10.73,0,0,0,.52,1.85h-.9a8.73,8.73,0,0,1-.45-1.61c-.2-.93-.56-1.28-1.35-1.3h-.82V362h-.87Zm.87,3.06h.89c.93,0,1.52-.5,1.52-1.27s-.63-1.25-1.55-1.26a3.58,3.58,0,0,0-.86.08Z"/><path class="cls-6" d="M280,362l-.07-.61h0a1.8,1.8,0,0,1-1.48.72,1.38,1.38,0,0,1-1.48-1.39c0-1.17,1-1.8,2.91-1.8v-.1a1,1,0,0,0-1.1-1.11,2.32,2.32,0,0,0-1.26.36l-.2-.58a3,3,0,0,1,1.59-.43c1.48,0,1.84,1,1.84,2v1.81a6.81,6.81,0,0,0,.08,1.16Zm-.13-2.47c-1,0-2,.15-2,1.09a.78.78,0,0,0,.83.84,1.2,1.2,0,0,0,1.17-.81.92.92,0,0,0,0-.28Z"/><path class="cls-6" d="M280.93,363.38a1.42,1.42,0,0,0,1-.37c.24-.28.33-.66.33-1.82v-4h.88v4.38a2.65,2.65,0,0,1-.58,2,2.23,2.23,0,0,1-1.5.55Zm2.27-7.59a.52.52,0,0,1-.55.54.53.53,0,0,1-.54-.54.54.54,0,0,1,.56-.55A.52.52,0,0,1,283.2,355.79Z"/><path class="cls-6" d="M284.42,361.08a2.31,2.31,0,0,0,1.16.35c.64,0,.94-.32.94-.72s-.25-.65-.9-.89c-.87-.31-1.28-.79-1.28-1.37A1.49,1.49,0,0,1,286,357a2.42,2.42,0,0,1,1.19.3L287,358a1.88,1.88,0,0,0-1-.29c-.52,0-.81.3-.81.67s.29.58.92.81c.84.32,1.27.74,1.27,1.46s-.66,1.45-1.81,1.45a2.76,2.76,0,0,1-1.36-.33Z"/><path class="cls-6" d="M291.18,362l-.07-.61h0a1.8,1.8,0,0,1-1.48.72,1.38,1.38,0,0,1-1.48-1.39c0-1.17,1-1.8,2.91-1.8v-.1a1,1,0,0,0-1.1-1.11,2.32,2.32,0,0,0-1.26.36l-.2-.58a3,3,0,0,1,1.59-.43c1.48,0,1.84,1,1.84,2v1.81A6.81,6.81,0,0,0,292,362Zm-.13-2.47c-1,0-2.05.15-2.05,1.09a.78.78,0,0,0,.83.84,1.2,1.2,0,0,0,1.17-.81.92.92,0,0,0,.05-.28Z"/><path class="cls-6" d="M293.32,358.45c0-.49,0-.9,0-1.3h.77l0,.78h0a1.67,1.67,0,0,1,1.52-.89,1.43,1.43,0,0,1,1.37,1h0a1.89,1.89,0,0,1,.54-.63,1.65,1.65,0,0,1,1.07-.34c.64,0,1.59.42,1.59,2.09V362h-.86v-2.74c0-.92-.34-1.48-1.05-1.48a1.14,1.14,0,0,0-1,.8,1.33,1.33,0,0,0-.07.43v3h-.86v-2.9c0-.76-.34-1.32-1-1.32a1.19,1.19,0,0,0-1.09.87,1.27,1.27,0,0,0-.07.44V362h-.86Z"/><path class="cls-6" d="M304.34,362l-.07-.61h0a1.8,1.8,0,0,1-1.48.72,1.38,1.38,0,0,1-1.48-1.39c0-1.17,1-1.8,2.91-1.8v-.1a1,1,0,0,0-1.1-1.11,2.32,2.32,0,0,0-1.26.36l-.2-.58a3,3,0,0,1,1.59-.43c1.48,0,1.84,1,1.84,2v1.81a6.81,6.81,0,0,0,.08,1.16Zm-.13-2.47c-1,0-2,.15-2,1.09a.78.78,0,0,0,.83.84,1.2,1.2,0,0,0,1.17-.81.92.92,0,0,0,0-.28Z"/><path class="cls-6" d="M306.48,358.45c0-.49,0-.9,0-1.3h.78l0,.79h0a1.79,1.79,0,0,1,1.6-.9c.67,0,1.71.4,1.71,2V362h-.88v-2.79c0-.78-.29-1.42-1.12-1.42a1.25,1.25,0,0,0-1.18.89,1.31,1.31,0,0,0-.06.41V362h-.88Z"/><path class="cls-6" d="M316.21,354.89v5.84c0,.43,0,.92,0,1.25h-.79l0-.84h0a1.79,1.79,0,0,1-1.65.95,2.21,2.21,0,0,1-2.07-2.46,2.31,2.31,0,0,1,2.17-2.59,1.62,1.62,0,0,1,1.46.74h0v-2.89Zm-.88,4.22a1.61,1.61,0,0,0,0-.37,1.3,1.3,0,0,0-1.27-1c-.91,0-1.45.8-1.45,1.86s.48,1.79,1.43,1.79a1.32,1.32,0,0,0,1.29-1.05,1.53,1.53,0,0,0,0-.38Z"/><path class="cls-6" d="M428.61,272.42a3.08,3.08,0,0,0,1.56.44c.89,0,1.41-.47,1.41-1.15s-.36-1-1.27-1.34c-1.1-.39-1.78-.95-1.78-1.9a1.94,1.94,0,0,1,2.18-1.83,3.06,3.06,0,0,1,1.49.33l-.24.71a2.68,2.68,0,0,0-1.28-.32c-.92,0-1.27.55-1.27,1,0,.63.41.94,1.34,1.29,1.14.45,1.72,1,1.72,2s-.77,1.94-2.36,1.94a3.48,3.48,0,0,1-1.72-.43Z"/><path class="cls-6" d="M436.34,273.48l-.07-.61h0a1.8,1.8,0,0,1-1.48.72,1.38,1.38,0,0,1-1.48-1.39c0-1.17,1-1.8,2.91-1.8v-.1a1,1,0,0,0-1.1-1.11,2.32,2.32,0,0,0-1.26.36l-.2-.58a3,3,0,0,1,1.59-.43c1.48,0,1.84,1,1.84,2v1.81a6.81,6.81,0,0,0,.08,1.16Zm-.13-2.47c-1,0-2,.15-2,1.09a.78.78,0,0,0,.83.84,1.2,1.2,0,0,0,1.17-.81.92.92,0,0,0,0-.28Z"/><path class="cls-6" d="M438.75,268.65l.64,2.45c.14.54.27,1,.36,1.54h0c.11-.49.27-1,.43-1.53l.79-2.46h.74l.75,2.41c.18.58.32,1.09.43,1.58h0a14.55,14.55,0,0,1,.37-1.57l.69-2.42h.87l-1.56,4.83h-.8l-.74-2.31c-.17-.54-.31-1-.43-1.58h0a14.75,14.75,0,0,1-.44,1.59l-.78,2.3h-.8l-1.46-4.83Z"/><path class="cls-6" d="M448.4,273.48l-.07-.61h0a1.8,1.8,0,0,1-1.48.72,1.38,1.38,0,0,1-1.48-1.39c0-1.17,1-1.8,2.91-1.8v-.1a1,1,0,0,0-1.1-1.11,2.32,2.32,0,0,0-1.26.36l-.2-.58a3,3,0,0,1,1.59-.43c1.48,0,1.84,1,1.84,2v1.81a6.81,6.81,0,0,0,.08,1.16Zm-.13-2.47c-1,0-2,.15-2,1.09a.78.78,0,0,0,.83.84,1.2,1.2,0,0,0,1.17-.81.92.92,0,0,0,0-.28Z"/><path class="cls-6" d="M451.52,267.29a.55.55,0,0,1-1.09,0,.54.54,0,0,1,.55-.55A.52.52,0,0,1,451.52,267.29Zm-1,6.19v-4.83h.88v4.83Z"/><path class="cls-6" d="M424.47,280.53c-.06-.94-.12-2.07-.1-2.91h0c-.23.79-.51,1.63-.85,2.55l-1.18,3.27h-.66l-1.09-3.21c-.32-.94-.59-1.81-.78-2.61h0c0,.84-.07,2-.13,3l-.18,2.89h-.83l.47-6.73h1.11l1.15,3.25c.28.83.51,1.57.68,2.27h0c.17-.68.41-1.42.71-2.27l1.2-3.25h1.1l.42,6.73h-.84Z"/><path class="cls-6" d="M429.54,283.48l-.07-.61h0a1.8,1.8,0,0,1-1.48.72,1.38,1.38,0,0,1-1.48-1.39c0-1.17,1-1.8,2.91-1.8v-.1a1,1,0,0,0-1.1-1.11,2.32,2.32,0,0,0-1.26.36l-.2-.58a3,3,0,0,1,1.59-.43c1.47,0,1.84,1,1.84,2v1.81a6.81,6.81,0,0,0,.08,1.16Zm-.13-2.47c-1,0-2.05.15-2.05,1.09a.78.78,0,0,0,.83.84,1.2,1.2,0,0,0,1.17-.81.92.92,0,0,0,.05-.28Z"/><path class="cls-6" d="M435.86,276.39v5.84c0,.43,0,.92,0,1.25h-.78l0-.84h0a1.79,1.79,0,0,1-1.65.95,2.21,2.21,0,0,1-2.07-2.46,2.31,2.31,0,0,1,2.17-2.59,1.62,1.62,0,0,1,1.46.74h0v-2.89Zm-.89,4.22a1.58,1.58,0,0,0,0-.37,1.3,1.3,0,0,0-1.27-1c-.91,0-1.45.8-1.45,1.86s.48,1.79,1.43,1.79a1.32,1.32,0,0,0,1.29-1.05,1.54,1.54,0,0,0,0-.38Z"/><path class="cls-6" d="M437.32,276.39h.88v3h0a1.68,1.68,0,0,1,.63-.61,1.81,1.81,0,0,1,.9-.25c.64,0,1.69.4,1.69,2.06v2.88h-.88V280.7c0-.77-.29-1.43-1.12-1.43a1.25,1.25,0,0,0-1.18.88,1.07,1.07,0,0,0-.06.42v2.91h-.88Z"/><path class="cls-6" d="M447.24,281a2.36,2.36,0,0,1-2.4,2.57,2.3,2.3,0,0,1-2.32-2.49,2.35,2.35,0,0,1,2.4-2.56A2.28,2.28,0,0,1,447.24,281Zm-3.83.05c0,1.06.61,1.86,1.47,1.86s1.47-.79,1.47-1.88c0-.82-.41-1.86-1.45-1.86S443.41,280.15,443.41,281.07Z"/><path class="cls-6" d="M448.36,280.23c0-.62,0-1.12,0-1.58h.79l0,.83h0a1.9,1.9,0,0,1,1.72-.94,2.18,2.18,0,0,1,2,2.45c0,1.74-1.05,2.6-2.19,2.6a1.7,1.7,0,0,1-1.49-.76h0v2.63h-.87Zm.87,1.28a2,2,0,0,0,0,.36,1.36,1.36,0,0,0,1.32,1c.93,0,1.47-.76,1.47-1.87,0-1-.51-1.8-1.44-1.8a1.4,1.4,0,0,0-1.33,1.09,1.59,1.59,0,0,0-.06.36Z"/><path class="cls-6" d="M458.09,282.16a13,13,0,0,0,.05,1.32h-.78l-.05-.79h0a1.82,1.82,0,0,1-1.6.9c-.76,0-1.67-.42-1.67-2.12v-2.82h.88v2.67c0,.92.28,1.54,1.07,1.54a1.24,1.24,0,0,0,1.25-1.25v-3h.87Z"/><path class="cls-6" d="M459.56,280.15c0-.56,0-1,0-1.5h.77l0,1h0a1.45,1.45,0,0,1,1.34-1.06,1,1,0,0,1,.25,0v.83a1.3,1.3,0,0,0-.31,0,1.23,1.23,0,0,0-1.17,1.13,2.48,2.48,0,0,0,0,.41v2.58h-.87Z"/><path class="cls-6" d="M361.09,187.42a3.08,3.08,0,0,0,1.56.44c.89,0,1.41-.47,1.41-1.15s-.36-1-1.27-1.34c-1.1-.39-1.78-1-1.78-1.9a1.94,1.94,0,0,1,2.18-1.83,3.06,3.06,0,0,1,1.49.33l-.24.71a2.68,2.68,0,0,0-1.28-.32c-.92,0-1.27.55-1.27,1,0,.63.41.94,1.34,1.3,1.14.44,1.72,1,1.72,2s-.77,1.94-2.36,1.94a3.48,3.48,0,0,1-1.72-.43Z"/><path class="cls-6" d="M367.09,182.29a.55.55,0,0,1-1.09,0,.54.54,0,0,1,.55-.55A.52.52,0,0,1,367.09,182.29Zm-1,6.19v-4.83H367v4.83Z"/><path class="cls-6" d="M369.32,185.86h0c.12-.17.29-.38.43-.55l1.42-1.66h1.05l-1.86,2,2.12,2.85h-1.06l-1.67-2.32-.45.5v1.82h-.87v-7.09h.87Z"/><path class="cls-6" d="M376,188.48l-.07-.61h0a1.77,1.77,0,0,1-1.47.72,1.38,1.38,0,0,1-1.48-1.39c0-1.17,1-1.81,2.9-1.8v-.1a1,1,0,0,0-1.09-1.11,2.41,2.41,0,0,0-1.26.36l-.2-.58a3,3,0,0,1,1.59-.43c1.47,0,1.84,1,1.84,2v1.81a5.92,5.92,0,0,0,.08,1.16Zm-.12-2.47c-1,0-2.05.15-2.05,1.09a.78.78,0,0,0,.82.84,1.19,1.19,0,0,0,1.17-.81.94.94,0,0,0,.06-.28Z"/><path class="cls-6" d="M378.14,185.15c0-.56,0-1.05,0-1.5h.77l0,.95h0a1.45,1.45,0,0,1,1.34-1.06,1,1,0,0,1,.25,0v.83a1.35,1.35,0,0,0-.31,0,1.23,1.23,0,0,0-1.17,1.12,2.48,2.48,0,0,0,0,.41v2.58h-.87Z"/><path class="cls-6" d="M217.79,383.92a3.08,3.08,0,0,0,1.56.44c.89,0,1.41-.47,1.41-1.15s-.36-1-1.27-1.34c-1.1-.39-1.78-.95-1.78-1.9a1.94,1.94,0,0,1,2.18-1.83,3.06,3.06,0,0,1,1.49.33l-.24.71a2.68,2.68,0,0,0-1.28-.32c-.92,0-1.27.55-1.27,1,0,.63.41.94,1.34,1.29,1.14.45,1.72,1,1.72,2s-.77,1.94-2.36,1.94a3.48,3.48,0,0,1-1.72-.43Z"/><path class="cls-6" d="M223.79,378.79a.55.55,0,0,1-1.09,0,.54.54,0,0,1,.55-.55A.52.52,0,0,1,223.79,378.79Zm-1,6.19v-4.83h.88V385Z"/><path class="cls-6" d="M225.15,381.65c0-.56,0-1,0-1.5h.77l0,1h0a1.45,1.45,0,0,1,1.34-1.06,1,1,0,0,1,.25,0v.83a1.28,1.28,0,0,0-.3,0,1.23,1.23,0,0,0-1.18,1.13,2.48,2.48,0,0,0,0,.41V385h-.87Z"/><path class="cls-6" d="M232.7,382.52a2.37,2.37,0,0,1-2.41,2.57A2.3,2.3,0,0,1,228,382.6a2.35,2.35,0,0,1,2.4-2.56A2.29,2.29,0,0,1,232.7,382.52Zm-3.84.05c0,1.06.61,1.86,1.47,1.86s1.47-.79,1.47-1.88c0-.82-.41-1.86-1.45-1.86S228.86,381.65,228.86,382.57Z"/><path class="cls-6" d="M233.81,377.89h.88v3h0a1.68,1.68,0,0,1,.63-.61,1.81,1.81,0,0,1,.9-.25c.65,0,1.69.4,1.69,2.06V385h-.88V382.2c0-.77-.29-1.43-1.12-1.43a1.25,1.25,0,0,0-1.18.88,1.07,1.07,0,0,0-.06.42V385h-.88Z"/><path class="cls-6" d="M240.34,378.79a.55.55,0,0,1-1.09,0,.54.54,0,0,1,.55-.55A.52.52,0,0,1,240.34,378.79Zm-1,6.19v-4.83h.88V385Z"/><path class="cls-6" d="M376.45,288.3H374.4v-.74h5v.74h-2.06v6h-.88Z"/><path class="cls-6" d="M383.78,291.83a2.37,2.37,0,0,1-2.41,2.57,2.3,2.3,0,0,1-2.32-2.49,2.35,2.35,0,0,1,2.4-2.56A2.29,2.29,0,0,1,383.78,291.83Zm-3.84.05c0,1.06.61,1.86,1.47,1.86s1.47-.79,1.47-1.88c0-.82-.41-1.85-1.45-1.85S379.94,291,379.94,291.88Z"/><path class="cls-6" d="M384.89,290.77c0-.5,0-.91,0-1.31h.78l.05.8h0a1.78,1.78,0,0,1,1.6-.91c.67,0,1.71.4,1.71,2v2.89h-.88v-2.78c0-.79-.29-1.43-1.12-1.43a1.25,1.25,0,0,0-1.18.89,1.31,1.31,0,0,0-.06.41v2.91h-.88Z"/><path class="cls-6" d="M391.31,291.68h0c.12-.17.29-.39.43-.56l1.42-1.66h1.06l-1.87,2,2.13,2.85h-1.07L391.76,292l-.45.5v1.82h-.87V287.2h.87Z"/><path class="cls-6" d="M263.82,406.25v4c0,1.51.67,2.15,1.57,2.15s1.64-.66,1.64-2.15v-4h.88v3.92c0,2.07-1.09,2.92-2.55,2.92s-2.42-.79-2.42-2.88v-4Z"/><path class="cls-6" d="M273.57,405.89v5.84c0,.43,0,.92,0,1.25h-.79l0-.84h0a1.79,1.79,0,0,1-1.65.95,2.21,2.21,0,0,1-2.07-2.46,2.31,2.31,0,0,1,2.17-2.59,1.62,1.62,0,0,1,1.46.74h0v-2.89Zm-.88,4.22a1.61,1.61,0,0,0,0-.37,1.3,1.3,0,0,0-1.27-1c-.91,0-1.45.8-1.45,1.86s.48,1.79,1.43,1.79a1.32,1.32,0,0,0,1.29-1.05,1.53,1.53,0,0,0,0-.38Z"/><path class="cls-6" d="M277.71,413l-.07-.61h0a1.8,1.8,0,0,1-1.48.72,1.38,1.38,0,0,1-1.48-1.39c0-1.17,1-1.8,2.91-1.8v-.1a1,1,0,0,0-1.1-1.11,2.32,2.32,0,0,0-1.26.36l-.2-.58a3,3,0,0,1,1.59-.43c1.48,0,1.84,1,1.84,2v1.81a6.81,6.81,0,0,0,.08,1.16Zm-.13-2.47c-1,0-2.05.15-2.05,1.09a.78.78,0,0,0,.83.84,1.2,1.2,0,0,0,1.17-.81.92.92,0,0,0,.05-.28Z"/><path class="cls-6" d="M280.83,406.79a.55.55,0,0,1-1.09,0,.54.54,0,0,1,.55-.55A.52.52,0,0,1,280.83,406.79Zm-1,6.19v-4.83h.88V413Z"/><path class="cls-6" d="M282.19,409.73c0-.62,0-1.12,0-1.58h.79l0,.83h0a1.9,1.9,0,0,1,1.72-.94,2.19,2.19,0,0,1,2,2.45c0,1.74-1.06,2.6-2.2,2.6a1.7,1.7,0,0,1-1.49-.76h0V415h-.87Zm.87,1.28a2,2,0,0,0,0,.36,1.36,1.36,0,0,0,1.32,1c.93,0,1.47-.76,1.47-1.87,0-1-.51-1.8-1.44-1.8a1.4,1.4,0,0,0-1.33,1.09,1.59,1.59,0,0,0-.06.36Z"/><path class="cls-6" d="M291.93,411.66c0,.5,0,.94,0,1.32h-.78l-.05-.79h0a1.82,1.82,0,0,1-1.6.9c-.76,0-1.67-.42-1.67-2.12v-2.82h.88v2.67c0,.92.28,1.54,1.08,1.54a1.27,1.27,0,0,0,1.16-.8,1.29,1.29,0,0,0,.08-.45v-3h.88Z"/><path class="cls-6" d="M293.39,409.65c0-.56,0-1,0-1.5h.77l0,1h0a1.45,1.45,0,0,1,1.34-1.06,1,1,0,0,1,.25,0v.83a1.28,1.28,0,0,0-.3,0A1.23,1.23,0,0,0,294.3,410a2.48,2.48,0,0,0,0,.41V413h-.87Z"/><path class="cls-5" d="M461,370.6v-7h1.41l1.82,3.05a19.64,19.64,0,0,1,1.18,2.33h0c-.09-.92-.12-1.82-.12-2.9v-2.47h1.15v7h-1.28l-1.84-3.11a24.83,24.83,0,0,1-1.24-2.4h0c.05.9.07,1.82.07,3v2.53Z"/><path class="cls-5" d="M470.67,370.6l-.09-.57h0a1.82,1.82,0,0,1-1.48.68,1.48,1.48,0,0,1-1.57-1.49c0-1.27,1.12-1.91,3-1.91v-.08c0-.35-.13-.91-1-.91a2.7,2.7,0,0,0-1.34.37l-.25-.8a3.61,3.61,0,0,1,1.8-.45,1.87,1.87,0,0,1,2.05,2.12v1.83a8.34,8.34,0,0,0,.08,1.21Zm-.17-2.48c-.89,0-1.78.17-1.78,1a.68.68,0,0,0,.74.74,1,1,0,0,0,1-.7.9.9,0,0,0,0-.28Z"/><path class="cls-5" d="M473.06,363.25h1.24v3h0a1.68,1.68,0,0,1,.63-.58,1.76,1.76,0,0,1,.87-.23c.84,0,1.74.56,1.74,2.18v3h-1.23v-2.85c0-.73-.27-1.29-1-1.29a1.05,1.05,0,0,0-1,.73,1.13,1.13,0,0,0-.05.38v3h-1.24Z"/><path class="cls-5" d="M481.74,370.6l-.09-.57h0a1.82,1.82,0,0,1-1.48.68,1.48,1.48,0,0,1-1.57-1.49c0-1.27,1.12-1.91,3-1.91v-.08c0-.35-.13-.91-1-.91a2.7,2.7,0,0,0-1.34.37l-.24-.8a3.57,3.57,0,0,1,1.79-.45,1.87,1.87,0,0,1,2,2.12v1.83a8.34,8.34,0,0,0,.08,1.21Zm-.17-2.48c-.89,0-1.78.17-1.78,1a.68.68,0,0,0,.74.74,1,1,0,0,0,1-.7.9.9,0,0,0,0-.28Z"/><path class="cls-5" d="M484.13,367.17c0-.66,0-1.16,0-1.61h1.07l0,.95h0a1.51,1.51,0,0,1,1.37-1.07,1.39,1.39,0,0,1,.3,0v1.17a1.9,1.9,0,0,0-.37,0,1.13,1.13,0,0,0-1.14,1,2.5,2.5,0,0,0,0,.4v2.62h-1.24Z"/><path class="cls-5" d="M490.5,370.6l-.09-.57h0a1.82,1.82,0,0,1-1.48.68,1.48,1.48,0,0,1-1.57-1.49c0-1.27,1.12-1.91,3-1.91v-.08c0-.35-.13-.91-1-.91a2.7,2.7,0,0,0-1.34.37l-.25-.8a3.61,3.61,0,0,1,1.8-.45,1.87,1.87,0,0,1,2,2.12v1.83a8.34,8.34,0,0,0,.08,1.21Zm-.17-2.48c-.89,0-1.78.17-1.78,1a.68.68,0,0,0,.74.74,1,1,0,0,0,1-.7.9.9,0,0,0,0-.28Z"/><path class="cls-5" d="M497.44,365.56c0,.34-.05.76-.05,1.44v2.87a2.41,2.41,0,0,1-2.66,2.89,3.57,3.57,0,0,1-1.73-.4l.27-.94a3,3,0,0,0,1.45.39,1.35,1.35,0,0,0,1.45-1.54v-.45h0a1.68,1.68,0,0,1-1.46.75,2.23,2.23,0,0,1-2.12-2.46,2.41,2.41,0,0,1,2.26-2.67,1.59,1.59,0,0,1,1.46.79h0l0-.67Zm-1.28,2a1.25,1.25,0,0,0,0-.35,1.08,1.08,0,0,0-1.05-.83c-.72,0-1.25.64-1.25,1.68,0,.87.44,1.57,1.24,1.57a1.08,1.08,0,0,0,1-.78,1.63,1.63,0,0,0,.06-.45Z"/><path class="cls-5" d="M498.77,363.25H500v3h0a1.71,1.71,0,0,1,.64-.58,1.76,1.76,0,0,1,.87-.23c.84,0,1.74.56,1.74,2.18v3H502v-2.85c0-.73-.26-1.29-1-1.29a1.05,1.05,0,0,0-1,.73,1.12,1.12,0,0,0-.06.38v3h-1.23Z"/></g></g></svg>