<svg width="6" height="12" viewBox="0 0 6 12" fill="none" xmlns="http://www.w3.org/2000/svg">
<path d="M5.77406 0.0024968L4.33493 0C2.71812 0 1.67327 1.15914 1.67327 2.95322V4.31485H0.226289C0.101253 4.31485 0 4.42446 0 4.55966V6.53251C0 6.66771 0.101368 6.77719 0.226289 6.77719H1.67327V11.7553C1.67327 11.8905 1.77452 12 1.89956 12H3.78745C3.91249 12 4.01374 11.8904 4.01374 11.7553V6.77719H5.70559C5.83063 6.77719 5.93188 6.66771 5.93188 6.53251L5.93258 4.55966C5.93258 4.49474 5.90868 4.43257 5.8663 4.38663C5.82393 4.34069 5.76621 4.31485 5.70617 4.31485H4.01374V3.16058C4.01374 2.60579 4.136 2.32415 4.80436 2.32415L5.77383 2.32377C5.89875 2.32377 6 2.21416 6 2.07909V0.247183C6 0.112231 5.89886 0.00274648 5.77406 0.0024968Z" fill="#BCBCBC"/>
</svg>
