<svg width="12" height="12" viewBox="0 0 12 12" fill="none" xmlns="http://www.w3.org/2000/svg">
<path fill-rule="evenodd" clip-rule="evenodd" d="M8.11475 0H3.68852C1.65172 0 0 1.67925 0 3.75V8.25C0 10.3208 1.65172 12 3.68852 12H8.11475C10.1516 12 11.8033 10.3208 11.8033 8.25V3.75C11.8033 1.67925 10.1516 0 8.11475 0ZM10.6967 8.25C10.6967 9.6975 9.53852 10.875 8.11475 10.875H3.68852C2.26475 10.875 1.10656 9.6975 1.10656 8.25V3.75C1.10656 2.3025 2.26475 1.125 3.68852 1.125H8.11475C9.53852 1.125 10.6967 2.3025 10.6967 3.75V8.25ZM5.90164 3C4.27205 3 2.95082 4.34325 2.95082 6C2.95082 7.65675 4.27205 9 5.90164 9C7.53123 9 8.85246 7.65675 8.85246 6C8.85246 4.34325 7.53123 3 5.90164 3ZM5.90164 7.875C4.88508 7.875 4.05738 7.0335 4.05738 6C4.05738 4.96575 4.88508 4.125 5.90164 4.125C6.9182 4.125 7.7459 4.96575 7.7459 6C7.7459 7.0335 6.9182 7.875 5.90164 7.875ZM9.46696 2.77499C9.46696 2.99577 9.29093 3.17474 9.07377 3.17474C8.85661 3.17474 8.68057 2.99577 8.68057 2.77499C8.68057 2.55422 8.85661 2.37524 9.07377 2.37524C9.29093 2.37524 9.46696 2.55422 9.46696 2.77499Z" fill="#BCBCBC"/>
</svg>
