<svg width="15" height="10" viewBox="0 0 15 10" fill="none" xmlns="http://www.w3.org/2000/svg">
<path d="M14.6909 1.56476C14.5181 0.952892 14.0114 0.470562 13.3689 0.305804C12.1951 0 7.49983 0 7.49983 0C7.49983 0 2.80472 0 1.63092 0.29421C1.00076 0.458793 0.481751 0.952979 0.3089 1.56476C0 2.68232 0 5 0 5C0 5 0 7.32936 0.3089 8.43524C0.481935 9.04702 0.988405 9.52935 1.63102 9.69411C2.81708 10 7.50001 10 7.50001 10C7.50001 10 12.1951 10 13.3689 9.70579C14.0115 9.54112 14.5181 9.05879 14.6911 8.44701C14.9999 7.32936 14.9999 5.01177 14.9999 5.01177C14.9999 5.01177 15.0123 2.68232 14.6909 1.56476ZM6.00496 7.14115V2.85885L9.90932 5L6.00496 7.14115Z" fill="#BCBCBC"/>
</svg>
